<svg width="500" height="500" viewBox="0 0 500 500" fill="none" xmlns="http://www.w3.org/2000/svg">
<path d="M95.6 324.51C95.6 322.59 95.49 320.69 95.47 318.81L95.75 319.09C91.21 319.14 86.66 319.25 82.12 319.26L68.49 319.32L69 318.81V330.33L68.54 329.87C70.78 329.87 73.02 329.87 75.28 329.93L82 330L95.75 330.29L95.6 324.51ZM82.24 330.61L75.38 330.73C73.09 330.73 70.79 330.73 68.49 330.79H68V330.33V318.81V318.29H68.52L82.15 318.36C86.69 318.36 91.24 318.47 95.78 318.53H96V318.81C96 320.76 95.91 322.71 95.87 324.63L95.72 330.33L82.24 330.61Z" fill="#878787" fill-opacity="0.7"/>
<path d="M80.4 339C80.35 337.08 80.28 335.19 80.26 333.3L80.54 333.58C76 333.64 71.46 333.75 66.91 333.75L53.28 333.82L53.8 333.3L53.74 344.82L53.28 344.36C55.53 344.36 57.77 344.36 60.02 344.42L66.79 344.54L80.54 344.82L80.4 339ZM67 345.14L60.14 345.25C57.85 345.3 55.55 345.25 53.25 345.31H52.79V344.84V333.32V332.81H53.31L66.94 332.87C71.49 332.87 76.03 332.99 80.57 333.04H80.86V333.31C80.86 335.31 80.77 337.21 80.73 339.13L80.58 344.83L67 345.14Z" fill="#878787" fill-opacity="0.7"/>
<path d="M110.81 339C110.81 337.08 110.69 335.19 110.67 333.3L110.96 333.58C106.41 333.64 101.87 333.75 97.33 333.75L83.7 333.82L84.21 333.3L84.15 344.82L83.7 344.36C85.94 344.36 88.18 344.36 90.43 344.42L97.21 344.54L110.96 344.82L110.81 339ZM97.44 345.11L90.59 345.22C88.3 345.27 85.99 345.22 83.7 345.28H83.24V344.81L83.18 333.29V332.78H83.7L97.33 332.84C101.87 332.84 106.41 332.96 110.96 333.01H111.24V333.28C111.24 335.28 111.15 337.18 111.1 339.1L110.96 344.8L97.44 345.11Z" fill="#878787" fill-opacity="0.7"/>
<path d="M431.6 339C431.55 337.08 431.48 335.19 431.46 333.3L431.74 333.58C427.2 333.64 422.66 333.75 418.11 333.75L404.48 333.82L405 333.3L404.94 344.82L404.48 344.36C406.73 344.36 408.97 344.36 411.22 344.42L418 344.54L431.74 344.82L431.6 339ZM418.23 345.11L411.38 345.22C409.08 345.27 406.78 345.22 404.48 345.28H404V344.81V333.33V332.82H404.51L418.14 332.88C422.69 332.88 427.23 333 431.77 333.05H432V333.32C432 335.32 431.91 337.22 431.86 339.14L431.71 344.84L418.23 345.11Z" fill="#878787" fill-opacity="0.7"/>
<path d="M431.6 55C431.55 53.08 431.48 51.19 431.46 49.3L431.74 49.58C427.2 49.63 422.66 49.74 418.11 49.75L404.48 49.81L405 49.3L404.94 60.82L404.48 60.36C406.73 60.36 408.97 60.36 411.22 60.42L418 60.53L431.74 60.82L431.6 55ZM418.23 61.11L411.38 61.22C409.08 61.27 406.78 61.22 404.48 61.28H404V60.82V49.34V48.82H404.51L418.14 48.88C422.69 48.88 427.23 49 431.77 49.05H432V49.33C432 51.28 431.91 53.23 431.86 55.15L431.71 60.85L418.23 61.11Z" fill="#878787" fill-opacity="0.7"/>
<path d="M446.81 69.56C446.76 67.65 446.69 65.75 446.67 63.87L446.95 64.15C442.41 64.15 437.86 64.31 433.32 64.31L419.69 64.38L420.2 63.87L420.15 75.38L419.69 74.93C421.94 74.93 424.18 74.93 426.43 74.93L433.2 75.05L446.95 75.33L446.81 69.56ZM433.44 75.67L426.58 75.79C424.29 75.79 421.99 75.79 419.69 75.79H419.23V75.32L419.18 63.81V63.29H419.7L433.33 63.36C437.87 63.36 442.42 63.47 446.96 63.52H447.25V63.8C447.25 65.75 447.16 67.69 447.12 69.62L447 75.38L433.44 75.67Z" fill="#878787" fill-opacity="0.7"/>
<path d="M80.4 55.05C80.35 53.13 80.28 51.24 80.26 49.35L80.54 49.63C76 49.69 71.46 49.8 66.91 49.8L53.28 49.87L53.8 49.35L53.74 60.87L53.28 60.41C55.53 60.41 57.77 60.41 60.02 60.47L66.79 60.58L80.54 60.87L80.4 55.05ZM67 61.16L60.14 61.27C57.85 61.27 55.55 61.27 53.25 61.33H52.79V60.87V49.35V48.84H53.31L66.94 48.9C71.49 48.9 76.03 49.02 80.57 49.07H80.86V49.35C80.86 51.35 80.77 53.25 80.73 55.17L80.58 60.87L67 61.16Z" fill="#878787" fill-opacity="0.7"/>
<path d="M219 175.34C219.05 177.26 219.12 179.16 219.14 181.04L218.86 180.76C223.4 180.76 227.94 180.6 232.49 180.59L246.12 180.53L245.6 181.04L245.66 169.52L246.12 169.98C243.87 169.98 241.63 169.98 239.38 169.98L232.6 169.86L218.86 169.57L219 175.34ZM232.37 169.24L239.22 169.12C241.52 169.07 243.82 169.12 246.12 169.07H246.57V169.53L246.63 181.05V181.57H246.12L232.49 181.5C227.94 181.5 223.4 181.39 218.86 181.33H218.57V181C218.57 179.05 218.66 177.11 218.71 175.18L218.86 169.48L232.37 169.24Z" fill="#878787" fill-opacity="0.7"/>
<path d="M234.16 160.82C234.16 162.74 234.27 164.63 234.29 166.52L234.01 166.24C238.56 166.18 243.1 166.07 247.64 166.07L261.27 166L260.76 166.52L260.81 155L261.27 155.46C259.03 155.46 256.79 155.46 254.53 155.4L247.76 155.29L234 155L234.16 160.82ZM247.52 154.71L254.38 154.6C256.67 154.6 258.98 154.6 261.27 154.54H261.73V155L261.79 166.52V167H261.27H247.64C243.1 167 238.56 166.88 234.01 166.83H233.73V166.55C233.73 164.55 233.82 162.65 233.87 160.73L234 155L247.52 154.71Z" fill="#878787" fill-opacity="0.7"/>
<path d="M86.9 157.62V187.09L106 209.5C110.58 205.589 113.851 200.368 115.374 194.541C116.897 188.714 116.598 182.56 114.517 176.908C112.436 171.257 108.674 166.378 103.736 162.929C98.7985 159.481 92.9227 157.628 86.9 157.62V157.62Z" fill="#878787" fill-opacity="0.7"/>
<path d="M51.44 190.09C51.4437 195.714 53.0574 201.22 56.0903 205.957C59.1233 210.693 63.4487 214.463 68.5556 216.82C73.6624 219.176 79.3371 220.022 84.9092 219.256C90.4813 218.491 95.7178 216.147 100 212.5L80.9 190.09V160.62C77.0289 160.615 73.1949 161.374 69.6176 162.853C66.0403 164.332 62.7901 166.503 60.0533 169.24C57.3165 171.978 55.1469 175.229 53.6689 178.807C52.1908 182.385 51.4334 186.219 51.44 190.09V190.09Z" fill="#878787" fill-opacity="0.7"/>
<path d="M51.44 190.09C51.4437 195.714 53.0574 201.22 56.0903 205.957C59.1233 210.693 63.4487 214.463 68.5556 216.82C73.6624 219.176 79.3371 220.022 84.9092 219.256C90.4813 218.491 95.7178 216.147 100 212.5L80.9 190.09V160.62C77.0289 160.615 73.1949 161.374 69.6176 162.853C66.0403 164.332 62.7901 166.503 60.0533 169.24C57.3165 171.978 55.1469 175.229 53.6689 178.807C52.1908 182.385 51.4334 186.219 51.44 190.09V190.09Z" fill="#AEAEAE" fill-opacity="0.86"/>
<path d="M100.02 172.73V134.71" stroke="#C7C7C7" stroke-miterlimit="10"/>
<path d="M97.36 132.05C97.358 132.579 97.5132 133.097 97.8058 133.537C98.0984 133.978 98.5153 134.322 99.0036 134.525C99.4919 134.728 100.03 134.782 100.548 134.679C101.067 134.576 101.544 134.322 101.918 133.948C102.292 133.574 102.546 133.097 102.649 132.578C102.752 132.06 102.698 131.522 102.495 131.034C102.291 130.545 101.948 130.128 101.507 129.836C101.067 129.543 100.549 129.388 100.02 129.39C99.3145 129.39 98.6379 129.67 98.1391 130.169C97.6402 130.668 97.36 131.345 97.36 132.05V132.05Z" stroke="#C7C7C7" stroke-miterlimit="10"/>
<path d="M62.42 130.71H91.95V129.38H62.42V130.71Z" fill="#C7C7C7"/>
<path d="M75.24 133.38H91.95V132.05H75.24V133.38Z" fill="#C7C7C7"/>
<path d="M386.26 97.41C387.139 103.343 389.703 108.899 393.647 113.417C397.592 117.935 402.75 121.226 408.51 122.898C414.27 124.57 420.389 124.553 426.14 122.85C431.89 121.146 437.031 117.826 440.95 113.286C444.869 108.746 447.402 103.176 448.249 97.2387C449.095 91.301 448.218 85.2452 445.723 79.7911C443.228 74.337 439.22 69.7139 434.174 66.4715C429.128 63.229 423.258 61.5035 417.26 61.5V92.81L386.26 97.41Z" fill="#AEAEAE" fill-opacity="0.86"/>
<path d="M379.54 86.44C379.542 87.9762 379.655 89.5103 379.88 91.03L410.88 86.44V55.12C406.766 55.1174 402.692 55.9257 398.891 57.4987C395.09 59.0718 391.636 61.3787 388.728 64.2876C385.819 67.1964 383.512 70.6501 381.939 74.4513C380.366 78.2524 379.557 82.3263 379.56 86.44H379.54Z" fill="#878787" fill-opacity="0.7"/>
<path d="M413.85 104.37H380.54" stroke="#C7C7C7" stroke-miterlimit="10"/>
<path d="M378.21 106.7C379.497 106.7 380.54 105.657 380.54 104.37C380.54 103.083 379.497 102.04 378.21 102.04C376.923 102.04 375.88 103.083 375.88 104.37C375.88 105.657 376.923 106.7 378.21 106.7Z" stroke="#C7C7C7" stroke-miterlimit="10"/>
<path d="M343.88 103.78H369.75V102.61H343.88V103.78Z" fill="#C7C7C7"/>
<path d="M355.1 106.12H369.74V104.95H355.1V106.12Z" fill="#C7C7C7"/>
<path d="M313.89 0H312.64V66.65H313.89V0Z" fill="#878787" fill-opacity="0.7"/>
<path d="M316.73 61.09H309.8V65.78H316.73V61.09Z" fill="#AEAEAE" fill-opacity="0.86"/>
<path d="M316.73 62.65H309.8V65.78H316.73V62.65Z" fill="#C7C7C7"/>
<path d="M318.61 96.79C318.612 97.8466 318.3 98.88 317.715 99.7595C317.129 100.639 316.296 101.325 315.32 101.731C314.345 102.136 313.271 102.244 312.234 102.039C311.198 101.834 310.245 101.326 309.498 100.58C308.75 99.8331 308.24 98.8816 308.033 97.8455C307.826 96.8094 307.932 95.7352 308.336 94.7588C308.739 93.7825 309.424 92.9479 310.302 92.3607C311.181 91.7735 312.213 91.46 313.27 91.46C314.684 91.46 316.041 92.0213 317.042 93.0205C318.044 94.0198 318.607 95.3755 318.61 96.79V96.79Z" fill="#878787" fill-opacity="0.7"/>
<path d="M330.64 96.79H295.9L302.19 85.64L307.32 64.95H319.21L324.35 85.64L330.64 96.79Z" fill="#AEAEAE" fill-opacity="0.86"/>
<path d="M249.31 0H248.06V55.68H249.31V0Z" fill="#878787" fill-opacity="0.7"/>
<path d="M252.15 50.13H245.22V54.82H252.15V50.13Z" fill="#AEAEAE" fill-opacity="0.86"/>
<path d="M252.15 51.69H245.22V54.82H252.15V51.69Z" fill="#C7C7C7"/>
<path d="M254 85.83C254.002 86.8866 253.69 87.92 253.105 88.7995C252.519 89.6789 251.686 90.3649 250.71 90.7706C249.735 91.1763 248.661 91.2835 247.624 91.0786C246.588 90.8737 245.635 90.3659 244.888 89.6195C244.14 88.8731 243.63 87.9216 243.423 86.8855C243.216 85.8493 243.322 84.7751 243.726 83.7988C244.129 82.8224 244.814 81.9879 245.692 81.4007C246.571 80.8134 247.603 80.5 248.66 80.5C250.075 80.5 251.431 81.0612 252.432 82.0605C253.434 83.0598 253.997 84.4155 254 85.83V85.83Z" fill="#878787" fill-opacity="0.7"/>
<path d="M266.05 85.83H231.32L237.61 74.68L242.74 53.98H254.63L259.76 74.68L266.05 85.83Z" fill="#AEAEAE" fill-opacity="0.86"/>
<path d="M187.35 0H186.1V44.23H187.35V0Z" fill="#878787" fill-opacity="0.7"/>
<path d="M190.19 38.67H183.26V43.36H190.19V38.67Z" fill="#AEAEAE" fill-opacity="0.86"/>
<path d="M190.19 40.23H183.26V43.36H190.19V40.23Z" fill="#C7C7C7"/>
<path d="M192.07 74.38C192.062 75.4344 191.742 76.4629 191.151 77.3358C190.559 78.2087 189.722 78.8869 188.746 79.2849C187.77 79.6829 186.697 79.783 185.664 79.5725C184.631 79.3619 183.683 78.8502 182.94 78.1018C182.197 77.3535 181.693 76.4019 181.49 75.3672C181.287 74.3324 181.395 73.2608 181.8 72.2873C182.206 71.3139 182.89 70.4823 183.767 69.8972C184.645 69.3122 185.676 69 186.73 69C187.435 69 188.132 69.1394 188.783 69.4103C189.433 69.6811 190.024 70.0781 190.52 70.5782C191.017 71.0783 191.409 71.6717 191.675 72.3242C191.941 72.9767 192.075 73.6754 192.07 74.38V74.38Z" fill="#878787" fill-opacity="0.7"/>
<path d="M204.1 74.38H169.36L175.65 63.23L180.78 42.53H192.68L197.81 63.23L204.1 74.38Z" fill="#AEAEAE" fill-opacity="0.86"/>
<path d="M38.37 383.54L91.28 383.3L144.18 383.21L250 383.04L355.82 383.21L408.73 383.3L461.63 383.54L408.73 383.79L355.82 383.87L250 384.04L144.18 383.87L91.28 383.78L38.37 383.54Z" fill="#263238"/>
<path d="M291.01 447.32C339.445 447.32 378.71 434.363 378.71 418.38C378.71 402.397 339.445 389.44 291.01 389.44C242.575 389.44 203.31 402.397 203.31 418.38C203.31 434.363 242.575 447.32 291.01 447.32Z" fill="#EBEBEB" fill-opacity="0.72"/>
<path d="M230.31 457.45C260.167 457.45 284.37 449.463 284.37 439.61C284.37 429.757 260.167 421.77 230.31 421.77C200.453 421.77 176.25 429.757 176.25 439.61C176.25 449.463 200.453 457.45 230.31 457.45Z" fill="#EBEBEB" fill-opacity="0.72"/>
<path d="M458.6 301.54C447.39 316.72 435.7 334.34 432.86 353.37C432.847 353.435 432.86 353.503 432.896 353.558C432.933 353.613 432.99 353.652 433.055 353.665C433.12 353.678 433.188 353.665 433.243 353.629C433.298 353.592 433.337 353.535 433.35 353.47C434.654 348.278 436.324 343.185 438.35 338.23C445.72 336.23 452.95 334.53 456.82 327.23C460.76 319.71 460.26 309.91 459.51 301.72C459.42 301.27 458.82 301.25 458.6 301.54Z" fill="#015D09"/>
<path d="M438.42 338.08C443.42 326.79 449.92 315.44 458.13 306.15C458.19 306.09 458.27 306.15 458.22 306.24C452.84 312.86 448.76 320.07 444.76 327.4C448.48 323.63 452.54 320.26 456.06 316.26C456.13 316.18 456.23 316.26 456.17 316.37C452.68 320.56 448.87 325.11 444.32 328.21C443.1 330.46 441.87 332.72 440.62 334.97C440.93 334.8 441.25 334.65 441.56 334.5C441.61 334.5 441.66 334.55 441.61 334.58C441.26 334.76 440.92 334.94 440.56 335.09C439.97 336.16 439.38 337.23 438.78 338.29C438.64 338.53 438.31 338.32 438.42 338.08Z" fill="#263238"/>
<path d="M442.16 334.14C445.176 332.455 448.054 330.535 450.77 328.4C450.84 328.34 450.95 328.4 450.87 328.51C448.242 330.777 445.363 332.736 442.29 334.35C442.262 334.367 442.229 334.373 442.197 334.365C442.165 334.358 442.137 334.338 442.12 334.31C442.103 334.282 442.097 334.249 442.105 334.217C442.112 334.185 442.132 334.157 442.16 334.14Z" fill="#263238"/>
<path d="M431.56 350.54C431.56 350.77 431.98 350.77 431.97 350.54C432.03 344.27 431.97 337.98 432.07 331.68C433.68 328.44 437.12 326.68 439.52 324.05C441.245 322.156 442.745 320.069 443.99 317.83C446.874 312.475 448.64 306.589 449.18 300.53C449.84 293.83 447.29 271.71 444.47 272.47C443 272.87 438.26 283.83 437 287.47C434.961 293.446 433.469 299.595 432.54 305.84C430.25 320.55 430.44 335.7 431.56 350.54Z" fill="#015D09"/>
<path d="M431.52 323.5C431.87 315.57 433.65 307.56 435.33 299.86C437.13 291.58 439.24 283.78 443.5 276.38C443.58 276.25 443.78 276.38 443.71 276.51C440.867 282.25 438.667 288.287 437.15 294.51C437.43 294.06 437.78 293.64 438.08 293.22C438.19 293.05 438.47 293.22 438.35 293.38C437.969 294.048 437.523 294.678 437.02 295.26H436.96C435.5 301.18 434.44 307.26 433.54 313.26C433.61 313.19 433.67 313.1 433.74 313.03C433.75 313.023 433.763 313.019 433.776 313.02C433.788 313.02 433.8 313.025 433.81 313.032C433.82 313.04 433.828 313.051 433.831 313.063C433.835 313.075 433.834 313.088 433.83 313.1C433.717 313.3 433.597 313.5 433.47 313.7C433.02 316.77 432.6 319.83 432.17 322.86C437.64 318.19 442.3 312.69 444.93 305.86C444.93 305.86 445 305.86 444.98 305.86C442.41 312.86 438.34 319.14 432.09 323.41C431.97 324.22 431.86 325.04 431.74 325.86C431.74 326.02 431.45 325.98 431.45 325.86C431.45 325.13 431.45 324.41 431.52 323.69C431.501 323.662 431.491 323.629 431.491 323.595C431.491 323.561 431.501 323.528 431.52 323.5Z" fill="#263238"/>
<path d="M434.09 312C438.349 305.949 442.073 299.538 445.22 292.84C445.22 292.76 445.38 292.84 445.35 292.84C442.78 299.68 439.17 306.62 434.3 312.11C434.2 312.28 434 312.14 434.09 312Z" fill="#263238"/>
<path d="M439.64 291.31C441.37 288.25 443.19 285.31 444.82 282.15C444.82 282.06 444.98 282.15 444.94 282.23C443.621 285.483 441.944 288.579 439.94 291.46C439.79 291.62 439.54 291.48 439.64 291.31Z" fill="#263238"/>
<path d="M427.32 332.41C427.233 336.565 426.74 340.701 425.85 344.76C425.92 345.21 425.98 345.66 426.05 346.12C427.327 341.633 428.069 337.011 428.26 332.35C428.297 332.284 428.316 332.21 428.316 332.135C428.316 332.06 428.297 331.986 428.26 331.92V331.92C428.437 325.672 427.971 319.423 426.87 313.27C424.93 301.75 420.69 290.7 412.66 282.06C412.593 282.002 412.514 281.961 412.429 281.939C412.343 281.917 412.254 281.915 412.168 281.933C412.081 281.952 412.001 281.99 411.932 282.045C411.863 282.1 411.807 282.17 411.77 282.25C408.53 290.49 409.66 300.32 412.42 308.55C413.932 312.989 416.085 317.183 418.81 321C421.57 324.9 425.08 328.18 427.32 332.41Z" fill="#015D09"/>
<path d="M413.63 285.91C421.24 298.27 426.54 312.91 427.19 327.51C427.19 327.77 426.76 327.84 426.73 327.58C426.55 326.26 426.34 324.96 426.13 323.67C422.98 320.67 419.75 317.47 417.49 313.67C417.49 313.6 417.55 313.52 417.6 313.58C420.215 316.786 423.016 319.834 425.99 322.71C425.45 319.49 424.783 316.313 423.99 313.18C423.78 312.95 423.58 312.71 423.38 312.47C423.18 312.23 423.47 312.09 423.61 312.25L423.79 312.45C422.713 308.16 421.377 303.939 419.79 299.81C417.85 297.5 415.69 295.5 414.28 292.72C414.28 292.65 414.33 292.6 414.38 292.66C415.51 294.25 416.61 295.85 417.9 297.33C418.41 297.92 418.97 298.47 419.51 299.05C417.753 294.569 415.667 290.224 413.27 286.05C413.251 286.002 413.253 285.949 413.273 285.902C413.294 285.855 413.332 285.819 413.38 285.8C413.428 285.781 413.481 285.783 413.528 285.803C413.575 285.824 413.611 285.862 413.63 285.91V285.91Z" fill="#263238"/>
<path d="M415.17 301.15C417.63 304.46 420.43 307.62 422.72 311.05C422.736 311.071 422.743 311.098 422.739 311.124C422.735 311.15 422.721 311.174 422.7 311.19C422.679 311.206 422.652 311.213 422.626 311.209C422.6 311.205 422.576 311.191 422.56 311.17C419.639 308.189 417.1 304.857 415 301.25C414.93 301.14 415.09 301.06 415.17 301.15Z" fill="#263238"/>
<path d="M423.06 311.81L423.17 311.92C423.24 311.99 423.17 312.11 423.06 312.03L422.95 311.93C422.88 311.85 423 311.74 423.06 311.81Z" fill="#263238"/>
<path d="M401.7 309.66C402.584 316.559 405.352 323.081 409.7 328.51C411.495 330.642 413.716 332.376 416.22 333.6C419.04 334.99 421.99 336.6 424.91 337.75C426.304 341.281 427.339 344.942 428 348.68C428.1 348.37 428.19 348.03 428.28 347.68C426.41 331.58 415.99 317.82 402.67 308.99C402.564 308.923 402.44 308.888 402.314 308.89C402.189 308.893 402.066 308.932 401.963 309.004C401.859 309.075 401.779 309.175 401.733 309.292C401.686 309.409 401.675 309.537 401.7 309.66V309.66Z" fill="#015D09"/>
<path d="M406.3 314.42C406.21 314.34 406.3 314.17 406.44 314.24C413.772 319.681 419.618 326.878 423.44 335.17C423.465 335.214 423.472 335.266 423.459 335.315C423.446 335.363 423.414 335.405 423.37 335.43C423.326 335.455 423.274 335.462 423.226 335.449C423.177 335.436 423.135 335.404 423.11 335.36C422.49 334.27 421.86 333.22 421.22 332.18C418.22 331.61 415.3 329.47 413.04 327.44C413.034 327.434 413.029 327.427 413.026 327.419C413.023 327.412 413.021 327.403 413.021 327.395C413.021 327.387 413.023 327.378 413.026 327.371C413.029 327.363 413.034 327.356 413.04 327.35C413.046 327.344 413.053 327.339 413.061 327.336C413.068 327.333 413.077 327.331 413.085 327.331C413.093 327.331 413.102 327.333 413.109 327.336C413.117 327.339 413.124 327.344 413.13 327.35C414.293 328.411 415.586 329.318 416.98 330.05C418.24 330.624 419.528 331.135 420.84 331.58C419.72 329.79 418.54 328.08 417.32 326.41C414.035 325.165 410.954 323.436 408.18 321.28C408.09 321.21 408.18 321.07 408.26 321.13C411.012 322.792 413.849 324.307 416.76 325.67C414.903 323.218 412.9 320.88 410.76 318.67C409.76 318.12 408.68 317.57 407.68 316.99C407.59 316.94 407.68 316.8 407.74 316.83C408.573 317.126 409.368 317.519 410.11 318C408.87 316.79 407.63 315.59 406.3 314.42Z" fill="#263238"/>
<path d="M406.58 320C406.763 320.105 406.937 320.225 407.1 320.36C407.1 320.41 407.1 320.47 407.03 320.45C406.846 320.36 406.669 320.257 406.5 320.14C406.41 320.07 406.49 319.92 406.58 320Z" fill="#263238"/>
<path d="M449.1 383.54H412.59L415.54 350.3L416.18 342.96H445.5L446.15 350.3L449.1 383.54Z" fill="#455A64"/>
<path d="M446.15 350.3H415.54L416.18 342.96H445.5L446.15 350.3Z" fill="#263238"/>
<path d="M447.25 337.84H414.44V345.1H447.25V337.84Z" fill="#455A64"/>
<path d="M291.01 392.47V409.13L220.99 416.91V400.26L291.01 392.47Z" fill="#C7C7C7"/>
<path d="M291 367.29V392.47L221 400.26C208.44 387.03 229.6 372.82 268.28 368.52C275.823 367.672 283.409 367.261 291 367.29V367.29Z" fill="#DBDBDB" fill-opacity="0.93"/>
<path d="M217.37 409.12V392.47C217.37 395.05 218.53 397.67 220.99 400.26V416.91C218.53 414.32 217.37 411.7 217.37 409.12Z" fill="#A6A6A6"/>
<path d="M289.17 377.67C286.171 378.782 283.096 379.681 279.97 380.36C279.37 377.52 276.92 375.1 273.49 373.59C271.48 372.663 269.3 372.166 267.087 372.13C264.875 372.094 262.679 372.519 260.64 373.38C258.2 374.53 257.58 376.45 259.02 378.27C261.16 380.94 267.95 383.21 279.1 381.02C279.5 383.68 278.23 386.67 274.54 389.61C272.664 391.073 270.631 392.324 268.48 393.34C266.01 392.868 263.487 392.73 260.98 392.93C255.45 393.22 248.63 394.64 247.31 396.31C246.99 396.71 246.98 397.06 247.31 397.31L248.65 397.16C248.09 396.94 247.92 396.64 248.21 396.27C249.05 395.21 254.67 393.74 260.66 393.44C262.933 393.293 265.215 393.414 267.46 393.8C265.866 394.506 264.23 395.11 262.56 395.61L264.74 395.37C265.9 394.96 267.05 394.49 268.21 393.97C268.911 394.138 269.584 394.404 270.21 394.76L271.51 394.62C270.839 394.099 270.071 393.718 269.25 393.5C271.401 392.457 273.435 391.19 275.32 389.72C279.15 386.66 280.51 383.55 280.13 380.8C283.3 380.102 286.418 379.183 289.46 378.05C290.01 377.85 290.56 377.64 291.08 377.43V377C290.42 377.2 289.8 377.44 289.17 377.67ZM259.94 377.89C258.68 376.3 259.12 374.63 261.02 373.72C264.26 372.18 268.73 372.32 272.7 374.07C276.01 375.53 278.39 377.84 279.01 380.56C268.41 382.59 262 380.43 259.94 377.89V377.89ZM251.72 381.89C249.72 379.12 243.06 376.5 231.81 378.13C231.8 377.94 231.8 377.75 231.81 377.56C231.49 377.7 231.19 377.85 230.88 378C230.87 378.093 230.87 378.187 230.88 378.28L230 378.43C229.52 378.68 229 378.93 228.59 379.18C229.39 379.01 230.17 378.87 230.93 378.75C231.39 381.62 233.72 384.15 237.07 385.83C239.029 386.859 241.181 387.466 243.389 387.615C245.597 387.763 247.811 387.448 249.89 386.69C252.33 385.62 253.08 383.73 251.72 381.85V381.89ZM249.49 386.33C246.19 387.71 241.73 387.33 237.84 385.4C234.62 383.78 232.36 381.34 231.84 378.6C242.52 377.1 248.84 379.6 250.75 382.23C252 383.83 251.45 385.48 249.49 386.29V386.33Z" fill="#C7C7C7"/>
<path d="M255.86 410.93L233.12 434.88C209.91 432.3 193.39 426.64 185.84 418.71L255.86 410.93Z" fill="#455A64"/>
<path d="M246 417.82C243.058 415.778 239.83 414.184 236.42 413.09L235.33 413.21C238.863 414.273 242.21 415.879 245.25 417.97C246.57 418.97 246.94 419.76 246.25 419.97C244.98 420.4 239.46 418.58 234.25 415.59C233.216 414.994 232.214 414.344 231.25 413.64L230.36 413.74C231.29 414.4 232.36 415.11 233.67 415.84C238.36 418.55 244.67 421 246.84 420.46C246.886 420.47 246.934 420.47 246.98 420.46C247.43 420.31 247.64 420.05 247.59 419.7C247.54 419.35 247 418.58 246 417.82ZM212 416.02C212.033 415.945 212.069 415.871 212.11 415.8L210.56 415.97L210.91 416.1C209.91 418.81 210.62 422.17 212.67 425.3C213.851 427.169 215.409 428.772 217.245 430.005C219.08 431.238 221.153 432.074 223.33 432.46C226.01 432.82 227.58 431.55 227.33 429.24C227 425.84 222.5 420.24 211.94 416L212 416.02ZM223.2 432.02C219.66 431.56 215.97 429.02 213.58 425.37C211.58 422.37 210.87 419.12 211.82 416.51C221.82 420.56 226.06 425.88 226.38 429.11C226.52 431.08 225.24 432.25 223.14 432L223.2 432.02Z" fill="#37474F"/>
<path d="M255.86 410.93V427.58L233.12 451.53V434.88L255.86 410.93Z" fill="#263238"/>
<path d="M233.12 434.88V451.53C209.91 448.95 193.39 443.3 185.84 435.36V418.71C193.39 426.64 209.91 432.3 233.12 434.88Z" fill="#37474F"/>
<path d="M291 392.47V417.65C283.403 417.68 275.81 417.269 268.26 416.42L291 392.47Z" fill="#EBEBEB"/>
<path d="M287.77 403.16C288.843 403.047 289.921 402.994 291 403V402.49C289.749 402.45 288.496 402.49 287.25 402.61C282.37 403.09 279.55 404.97 278.37 407.49C277.97 407.34 277.55 407.18 277.13 407.04L276.79 407.4L278.19 407.92C277.19 410.63 277.9 413.99 279.94 417.13L280.11 417.35L281.04 417.4L280.87 417.15C278.87 414.15 278.15 410.9 279.1 408.28C284.87 410.62 288.73 413.38 291 415.92V415C287.595 411.88 283.614 409.455 279.28 407.86C280.4 405.44 283.08 403.61 287.77 403.16Z" fill="#DBDBDB" fill-opacity="0.93"/>
<path d="M291 417.65V434.31C283.403 434.34 275.81 433.929 268.26 433.08V416.42C275.81 417.269 283.403 417.68 291 417.65V417.65Z" fill="#DBDBDB" fill-opacity="0.93"/>
<path d="M291 367.29C323.54 367.29 351 374.11 361 384.69L291 392.47V367.29Z" fill="#37474F"/>
<path d="M312.92 390C311.526 389.874 310.14 389.667 308.77 389.38C307.106 387.498 305.191 385.852 303.08 384.49C299.02 381.71 293.63 379.02 291.01 378.82V379.36C292.56 379.22 297.7 381.42 302.45 384.69C304.349 385.956 306.091 387.443 307.64 389.12C300.44 387.39 294.14 383.74 291.64 381.48C291.38 381.24 291.16 381.02 290.98 380.82V381.67C293.71 384.09 300.46 387.95 308.1 389.67C308.293 389.914 308.473 390.167 308.64 390.43L309.48 390.34C309.39 390.2 309.3 390.06 309.19 389.91C309.72 390.02 310.19 390.11 310.78 390.19L312.92 390ZM325.8 386.06C327.05 383.44 326.57 380.06 324.8 376.74C323.77 374.779 322.343 373.055 320.609 371.678C318.875 370.3 316.873 369.3 314.73 368.74C312.1 368.18 310.43 369.32 310.48 371.64C310.54 375.05 314.55 380.99 324.74 386.03C323.945 387.397 322.712 388.454 321.24 389.03L323.37 388.79C324.3 388.197 325.072 387.387 325.62 386.43C326.84 387.003 328.14 387.563 329.52 388.11L330.52 388C328.807 387.42 327.233 386.787 325.8 386.1V386.06ZM324.91 385.63C315.26 380.8 311.45 375.16 311.4 371.91C311.4 369.91 312.72 368.82 314.8 369.27C318.29 370.01 321.8 372.84 323.86 376.65C325.58 379.85 326.07 383.13 324.91 385.67V385.63ZM357.12 381.31L356.25 380.71C355.893 382.182 355.802 383.706 355.98 385.21L356.88 385.11C356.763 383.852 356.844 382.583 357.12 381.35V381.31Z" fill="#455A64"/>
<path d="M361.03 384.69V401.34L291.01 409.13V392.47L361.03 384.69Z" fill="#263238"/>
<path d="M364.66 392.48V409.13C364.66 419.75 344.87 429.62 313.77 433.08C306.21 433.93 298.607 434.34 291 434.31V417.65C298.604 417.68 306.203 417.269 313.76 416.42C344.87 413 364.66 403.1 364.66 392.48Z" fill="#015D09"/>
<g opacity="0.1">
<path opacity="0.1" d="M364.66 392.48V409.13C364.66 419.75 344.87 429.62 313.77 433.08C306.21 433.93 298.607 434.34 291 434.31V417.65C298.604 417.68 306.203 417.269 313.76 416.42C344.87 413 364.66 403.1 364.66 392.48Z" fill="black"/>
</g>
<path d="M361 384.69C373.58 397.92 352.4 412.13 313.74 416.42C306.19 417.268 298.597 417.679 291 417.65V392.47L361 384.69Z" fill="#015D09"/>
<path opacity="0.1" d="M349 389.3C354.335 389.271 359.63 390.209 364.63 392.07C364.63 391.87 364.63 391.68 364.63 391.49C359.427 389.664 353.944 388.767 348.43 388.84C347.536 388.209 346.842 387.334 346.43 386.32L345.5 386.42C345.876 387.396 346.516 388.248 347.35 388.88C344.962 388.969 342.591 389.321 340.28 389.93C335.54 391.2 333.06 393.52 332.28 396.2C329.097 395.567 325.871 395.166 322.63 395C312.72 394.43 304.91 395.89 299.17 398.26C297.03 395.869 294.475 393.884 291.63 392.4L291.03 392.47V392.72C293.855 394.183 296.379 396.164 298.47 398.56C295.731 399.713 293.214 401.334 291.03 403.35V404.55C293.236 402.194 295.91 400.324 298.88 399.06C302.42 403.43 303.72 408.37 302.45 411.92C301.79 413.75 299.85 416.71 294.13 415.92C293.045 415.776 291.995 415.437 291.03 414.92V415.54C291.97 415.934 292.959 416.2 293.97 416.33L294.76 416.42C299.16 416.82 302.29 415.24 303.44 412.03C304.74 408.36 303.34 403.23 299.59 398.72C305.19 396.34 312.89 394.87 322.66 395.43C325.855 395.597 329.033 395.994 332.17 396.62C331.6 399.47 332.88 402.62 335.42 405.41C337.519 407.699 340.207 409.366 343.19 410.23L343.99 409.95C341.039 409.172 338.378 407.553 336.33 405.29C333.88 402.64 332.62 399.57 333.14 396.83C343.66 399.18 348.72 403.74 349.56 406.88C349.637 407.136 349.678 407.402 349.68 407.67L350.63 407.24C350.63 407.13 350.58 407.01 350.54 406.89C349.66 403.59 344.34 398.8 333.24 396.37C333.93 393.77 336.24 391.53 340.84 390.31C343.144 389.708 345.51 389.373 347.89 389.31C349.964 390.729 352.222 391.859 354.6 392.67C357.72 393.841 360.954 394.679 364.25 395.17C364.25 395.03 364.34 394.88 364.37 394.73C361.219 394.264 358.128 393.46 355.15 392.33C352.992 391.557 350.928 390.54 349 389.3V389.3Z" fill="black"/>
<path d="M350.83 127.57H341.81V223.88H350.83V127.57Z" fill="black"/>
<path d="M341.81 127.57C310.4 127.57 283.57 141.45 265.1 167.26L341.81 223.88V127.57Z" fill="#263238"/>
<path d="M334.82 127.8C334.5 127.8 334.2 127.8 333.88 127.87C336.6 132.56 338.29 137.78 337.43 143.07C336.7 147.64 332.27 149.98 328.69 151.14C325.008 152.232 321.191 152.805 317.35 152.84C315.98 149.686 314.205 146.725 312.07 144.03C309.541 140.814 306.614 137.931 303.36 135.45C303.07 135.57 302.77 135.71 302.48 135.86C308.449 140.282 313.217 146.125 316.35 152.86C305.72 152.95 293.51 150.31 285.56 146.01L284.79 146.59C293 151.2 305.68 153.96 316.74 153.76C319.197 159.432 319.748 165.748 318.31 171.76C317.612 174.65 316.525 177.432 315.08 180.03C311.315 178.893 307.391 178.376 303.46 178.5C296.39 178.73 290.9 181 288.39 184.5L289.07 185C291.41 181.74 296.68 179.61 303.5 179.38C307.283 179.222 311.067 179.667 314.71 180.7C311.392 186.537 305.922 190.844 299.47 192.7L300.32 193.33C306.775 191.287 312.217 186.874 315.55 180.98C325.94 184.35 331.65 192.53 332.71 200.41C333.408 205.477 332.349 210.629 329.71 215.01L330.38 215.5C331.975 212.864 333.034 209.938 333.495 206.892C333.956 203.845 333.811 200.738 333.068 197.747C332.324 194.757 330.998 191.943 329.163 189.467C327.329 186.991 325.024 184.902 322.38 183.32C320.348 182.071 318.176 181.064 315.91 180.32C317.346 177.696 318.432 174.896 319.14 171.99C320.601 165.912 320.1 159.527 317.71 153.75C321.535 153.683 325.334 153.094 329 152C334.47 150.24 337.69 147.22 338.33 143.26C339.13 137.93 337.58 132.67 334.82 127.8Z" fill="#37474F"/>
<path d="M341.9 330.17H350.9C370.947 330.168 390.462 323.717 406.56 311.77H397.56C381.462 323.717 361.947 330.168 341.9 330.17Z" fill="#DBDBDB" fill-opacity="0.77"/>
<path d="M341.81 233.88L265.1 290.47C272.31 300.678 281.486 309.342 292.09 315.955C302.693 322.568 314.511 326.997 326.85 328.981C339.188 330.965 351.799 330.465 363.941 327.509C376.084 324.554 387.514 319.203 397.56 311.77L341.81 233.88Z" fill="#EBEBEB" fill-opacity="0.78"/>
<path d="M352.53 248.85L351.78 247.85C346.295 247.068 340.709 248.24 336 251.16C333.929 252.424 332.007 253.917 330.27 255.61C328.575 253.086 326.558 250.793 324.27 248.79C323.86 248.42 323.44 248.07 323 247.79L322.26 248.33C322.74 248.7 323.26 249.09 323.69 249.5C325.988 251.482 328.006 253.766 329.69 256.29C326.903 259.164 324.6 262.47 322.87 266.08C318.68 274.85 319.17 282.75 324.1 285.75C326.6 287.26 329.45 286.31 331.74 283.2C335.74 277.76 337.25 266.63 330.74 256.29C337.37 249.67 345.56 247.68 352.53 248.85ZM331 282.63C329 285.34 326.59 286.21 324.52 284.95C319.99 282.2 319.63 274.74 323.62 266.41C325.242 262.909 327.416 259.691 330.06 256.88C336.26 266.83 334.85 277.41 331 282.63ZM371.46 275.31C371.322 275.812 371.117 276.293 370.85 276.74C370.714 277.028 370.488 277.264 370.207 277.413C369.926 277.563 369.605 277.618 369.29 277.57C368.55 277.41 367.7 275.32 368.07 271.94C368.07 271.66 368.16 271.27 368.24 270.8L367.55 269.8C367.395 270.459 367.278 271.127 367.2 271.8C366.81 275.3 367.61 278.06 369.11 278.37C370.4 278.63 371.46 277.81 372.11 276.12L371.46 275.31ZM356.55 269.43C352.98 269.08 349.97 270.76 347.64 274.43C342.3 282.8 341.5 300.21 344.84 313.99C339.738 317.692 333.573 319.64 327.27 319.54C324.241 319.477 321.235 319.01 318.33 318.15C318.651 314.159 318.313 310.142 317.33 306.26C314.92 296.85 309.47 291.1 303.77 291.97C300.88 292.41 299.29 294.97 299.54 298.83C299.97 305.57 305.94 315.08 317.59 318.83C317.345 321.457 316.729 324.036 315.76 326.49L316.56 326.72L316.77 326.14C317.55 323.843 318.063 321.464 318.3 319.05C321.226 319.906 324.252 320.37 327.3 320.43C333.654 320.541 339.881 318.64 345.09 315C346.009 318.769 347.435 322.395 349.33 325.78C350.126 327.187 351.093 328.491 352.21 329.66L353.31 329.52C352.046 328.282 350.959 326.875 350.08 325.34C348.177 321.922 346.767 318.252 345.89 314.44C348.719 312.38 351.27 309.964 353.48 307.25C359.48 299.94 363.48 290.38 364.02 282.25C364.49 274.71 361.69 269.93 356.56 269.43H356.55ZM317.63 317.9C306.5 314.25 300.79 305.23 300.38 298.76C300.17 295.4 301.47 293.18 303.86 292.81C309.1 292.02 314.16 297.5 316.46 306.45C317.455 310.181 317.85 314.045 317.63 317.9V317.9ZM363.16 282.17C362.52 292.5 355.96 305.77 345.65 313.4C342.53 299.9 343.3 282.84 348.39 274.88C350.53 271.53 353.25 269.99 356.47 270.3C361.15 270.75 363.59 275.08 363.16 282.17V282.17ZM390.05 301.29C388.089 305.995 385.73 310.525 383 314.83C380.957 318.008 378.613 320.981 376 323.71C376.65 323.46 377.3 323.19 377.94 322.93C383.94 316.23 388.3 307.72 390.66 302.17L390.05 301.29Z" fill="#DBDBDB" fill-opacity="0.77"/>
<path d="M397.56 311.77H406.58L350.83 233.88H341.81L397.56 311.77Z" fill="#C7C7C7"/>
<path d="M397.56 301.77H406.56C448.94 270.51 458.33 210.28 427.56 167.26C421.804 159.033 414.705 151.832 406.56 145.96H397.56C405.702 151.836 412.801 159.035 418.56 167.26C449.34 210.28 440 270.51 397.56 301.77Z" fill="#37474F"/>
<path d="M397.56 146L341.81 223.92L397.56 301.81C439.95 270.55 449.34 210.32 418.56 167.3C412.801 159.075 405.702 151.875 397.56 146V146Z" fill="#455A64"/>
<path d="M431.06 256.51C431.18 256.17 431.3 255.83 431.4 255.51C421.3 249.18 402.72 246.34 387.22 248.07C383.556 241.423 382.152 233.765 383.22 226.25C383.752 222.643 384.761 219.122 386.22 215.78C390.948 216.744 395.802 216.93 400.59 216.33C412.2 214.87 419.89 209.24 419.72 202.33C419.64 198.82 416.81 196.54 412.17 196.24C404.05 195.72 391.79 201.43 385.55 214.77C373.2 211.99 365.46 203.49 362.81 194.54L362.03 195.61C363.218 199.324 365.161 202.752 367.738 205.679C370.314 208.607 373.467 210.97 377 212.62C379.625 213.895 382.386 214.868 385.23 215.52C383.774 218.884 382.765 222.424 382.23 226.05C381.124 233.643 382.454 241.391 386.03 248.18C381.382 248.704 376.827 249.858 372.49 251.61C369.728 252.699 367.23 254.362 365.16 256.49L365.79 257.36C367.789 255.272 370.214 253.638 372.9 252.57C377.281 250.819 381.886 249.691 386.58 249.22C388.608 252.913 391.102 256.331 394 259.39C401.69 267.54 412.29 273.75 421.79 275.68L422.37 274.73C410.14 272.39 395.32 262.55 387.78 249.09C403 247.54 421.41 250.38 431.06 256.51ZM412.15 197.22C416.15 197.48 418.65 199.37 418.72 202.29C418.88 208.66 411.56 213.88 400.51 215.29C395.901 215.916 391.222 215.801 386.65 214.95C392.71 202.18 404.36 196.72 412.15 197.22Z" fill="#37474F"/>
<path d="M338.52 110.15V206.46L394.27 128.54C377.33 116 359.48 110.15 338.52 110.15Z" fill="#DBDBDB" fill-opacity="0.77"/>
<path d="M394.27 128.54H403.27C386.33 116.04 368.47 110.15 347.51 110.15H338.51C359.48 110.15 377.33 116 394.27 128.54Z" fill="#C7C7C7"/>
<path d="M387.13 123.7L386.23 123.16C386.366 124.733 386.292 126.317 386.01 127.87C385.17 132.46 380.68 134.72 377.06 135.81C373.331 136.837 369.477 137.335 365.61 137.29C364.299 134.08 362.574 131.054 360.48 128.29C354.87 120.83 346.64 114.72 338.97 112.35L338.52 112.22V113.13H338.72C348.48 116.13 359.72 125.54 364.6 137.2C355.662 137.062 346.825 135.296 338.52 131.99V132.99C346.948 136.35 355.927 138.117 365 138.2C367.364 143.954 367.796 150.32 366.23 156.34C365.466 159.23 364.319 162.004 362.82 164.59C359.054 163.378 355.117 162.78 351.16 162.82C345.94 162.89 341.54 164.08 338.55 166.06V167.06C341.39 164.97 345.81 163.71 351.17 163.64C354.982 163.554 358.783 164.077 362.43 165.19C356.34 175.01 346.34 178.39 340.04 177.28C339.533 177.196 339.035 177.069 338.55 176.9V177.8C338.988 177.944 339.436 178.054 339.89 178.13C346.46 179.29 356.97 175.77 363.27 165.47C364.472 165.883 365.645 166.377 366.78 166.95L367.23 166.35C366.066 165.772 364.867 165.267 363.64 164.84C365.142 162.233 366.292 159.439 367.06 156.53C368.646 150.458 368.275 144.039 366 138.19C369.833 138.188 373.647 137.667 377.34 136.64C382.87 134.97 386.17 132 386.89 128.03C387.139 126.601 387.219 125.148 387.13 123.7V123.7Z" fill="#C7C7C7"/>
<path d="M338.52 206.46H347.53L403.29 128.54H394.27L338.52 206.46Z" fill="#A6A6A6"/>
<path d="M111.79 275.14V275.32L118.61 305L119.42 308.52L136.53 383.38H148.21C148.21 383.57 148.21 383.78 148.21 383.97C148.21 383.76 148.21 383.57 148.21 383.38H213.64L186.57 277L186.4 276.35L186.11 275.16L111.79 275.14Z" fill="#37474F"/>
<path d="M139.85 275.15L167.07 383.38H136.53L111.84 275.32L139.85 275.15Z" fill="#263238"/>
<path d="M74 383.38H148.2C148.2 383.57 148.2 383.78 148.2 383.97C148.2 383.76 148.2 383.57 148.2 383.38C148.25 382.23 148.29 381.11 148.33 380.01C148.38 378.57 148.44 377.1 148.5 375.65C148.5 375.1 148.5 374.57 148.57 374.03C148.57 373.69 148.57 373.35 148.57 373.03C148.57 372.71 148.57 372.12 148.63 371.66C148.69 371.2 148.63 370.56 148.7 370.04C148.77 369.52 148.7 368.95 148.75 368.42C148.75 368.19 148.75 367.96 148.75 367.74C148.8 366.79 148.84 365.9 148.87 365.05C148.87 364.64 148.87 364.25 148.92 363.87C148.92 363.7 148.92 363.54 148.92 363.37V363.23C148.92 363.05 148.92 362.87 148.92 362.71C148.92 362.55 148.92 362.51 148.92 362.41C148.92 361.97 148.92 361.56 148.97 361.17C148.965 361.07 148.965 360.97 148.97 360.87C148.97 360.71 148.97 360.56 148.97 360.41C148.97 359.9 148.97 359.41 149.03 359.01C149.09 358.61 149.03 358.48 149.03 358.25C149.03 358.02 149.03 357.55 149.03 357.25C149.025 357.15 149.025 357.05 149.03 356.95C149.024 356.853 149.024 356.757 149.03 356.66C149.03 356.38 149.03 356.23 149.03 356.23C149.233 356.099 149.444 355.979 149.66 355.87L150.5 355.39C150.5 355.39 150.5 355.39 150.56 355.39H150.62L151.4 354.91L154.78 353.01L155.85 352.43C156.55 352.05 157.23 351.7 157.85 351.37C159.17 350.68 160.4 350.06 161.54 349.5L163.18 348.72L163.94 348.36L164.1 348.28L164.9 347.91C165.5 347.63 166.07 347.39 166.58 347.16L167.51 346.77C168.44 346.38 169.16 346.1 169.66 345.91C169.75 345.86 169.85 345.84 169.93 345.8L170.19 345.71C170.266 345.671 170.347 345.64 170.43 345.62H170.54C170.63 345.38 170.71 345.13 170.8 344.88C170.89 344.63 170.99 344.37 171.07 344.11C171.34 343.32 171.6 342.53 171.86 341.72C172.12 340.91 172.46 339.81 172.74 338.84C172.94 338.18 173.13 337.52 173.32 336.84C173.51 336.16 173.68 335.6 173.85 334.98C174.64 332.15 175.36 329.25 176.03 326.35C176.17 325.77 176.3 325.18 176.42 324.6C176.54 324.02 176.73 323.23 176.87 322.54C177.16 321.2 177.43 319.87 177.69 318.54C177.8 318.04 177.9 317.54 178 317.06C178.63 313.73 179.2 310.46 179.71 307.3C179.76 306.99 179.8 306.67 179.85 306.36L180.24 303.8C180.35 303.05 180.47 302.31 180.57 301.56C180.81 299.83 181.05 298.14 181.26 296.5C181.31 296.11 181.36 295.73 181.4 295.35C181.55 294.18 181.69 293.03 181.82 291.91C181.89 291.35 181.95 290.8 182.01 290.26C182.07 289.72 182.12 289.37 182.16 288.93C182.2 288.49 182.24 288.28 182.27 287.93C182.265 287.85 182.265 287.77 182.27 287.69C182.33 287.15 182.39 286.61 182.44 286.1C182.59 284.57 182.73 283.17 182.84 281.93C182.92 281.18 182.97 280.49 183.02 279.86C183.014 279.834 183.014 279.806 183.02 279.78C183.13 278.57 183.2 277.56 183.26 276.78C183.26 276.27 183.33 275.88 183.34 275.6C183.35 275.32 183.34 275.27 183.34 275.22H126.76H82.45C82.45 275.22 82.17 278.78 81.66 285.04C81.66 285.67 81.57 286.33 81.52 287.04C81.23 290.72 80.88 295.14 80.52 300.19C80.46 300.87 80.4 301.59 80.34 302.3C80.1533 304.847 79.94 307.543 79.7 310.39C79.58 312.06 79.44 313.77 79.31 315.51C79.25 316.16 79.2 316.8 79.15 317.45C78.85 321.283 78.54 325.283 78.22 329.45C77.36 340.4 76.44 352.36 75.48 364.73C75.48 364.92 75.48 365.11 75.48 365.3C75.25 368.46 75 371.66 74.76 374.86C74.45 377.64 74.24 380.51 74 383.38Z" fill="#D3766A"/>
<path d="M70.58 383.38H148.21C148.21 382.28 148.3 381.15 148.35 380.01C148.4 378.57 148.46 377.1 148.52 375.65C148.61 373.14 148.71 370.65 148.8 368.39C148.8 368.16 148.8 367.93 148.8 367.71C148.86 366.14 148.92 364.71 148.98 363.34V363.2C148.98 362.46 149.04 361.78 149.07 361.14C149.065 361.04 149.065 360.94 149.07 360.84C149.07 359.84 149.14 358.93 149.17 358.22C149.17 357.85 149.17 357.52 149.17 357.22C149.165 357.12 149.165 357.02 149.17 356.92C149.164 356.823 149.164 356.727 149.17 356.63C149.17 356.35 149.17 356.2 149.17 356.2C149.373 356.069 149.584 355.949 149.8 355.84L150.64 355.36L151.54 354.83L154.92 352.93C156 352.35 157.03 351.8 158.02 351.29C159.34 350.6 160.57 349.98 161.71 349.42L163.35 348.64L164.11 348.28C164.167 348.265 164.22 348.241 164.27 348.21V348.21L165.07 347.85L166.75 347.1L167.68 346.71C168.61 346.32 169.33 346.04 169.83 345.85C169.92 345.8 170.02 345.78 170.1 345.74L170.36 345.65C170.436 345.611 170.517 345.58 170.6 345.56H170.71C170.8 345.32 170.88 345.07 170.97 344.82C171.06 344.57 171.17 344.3 171.25 344.03C171.52 343.25 171.79 342.46 172.03 341.66C172.27 340.86 172.63 339.75 172.91 338.78C173.11 338.12 173.3 337.46 173.49 336.78C173.68 336.1 173.85 335.54 174.02 334.92C174.81 332.09 175.53 329.19 176.2 326.29C176.34 325.71 176.47 325.12 176.59 324.54C176.71 323.96 176.9 323.17 177.04 322.48C177.32 321.15 177.59 319.83 177.85 318.48C178.68 314.33 179.39 310.23 180.01 306.3L180.4 303.74C180.51 302.99 180.63 302.25 180.73 301.5C180.97 299.77 181.21 298.08 181.42 296.44C181.47 296.05 181.52 295.67 181.56 295.29C181.71 294.12 181.85 292.97 181.98 291.85C182.05 291.29 182.11 290.74 182.17 290.2C182.23 289.66 182.28 289.31 182.32 288.87C182.36 288.43 182.4 288.22 182.43 287.87C182.425 287.79 182.425 287.71 182.43 287.63C182.49 287.09 182.54 286.55 182.6 286.04C182.75 284.51 182.89 283.11 183 281.87C183.06 281.12 183.13 280.43 183.18 279.8C183.174 279.774 183.174 279.746 183.18 279.72C183.28 278.5 183.36 277.5 183.42 276.72C183.42 276.21 183.48 275.82 183.5 275.54C183.52 275.26 183.5 275.21 183.5 275.16H82.45C82.45 275.16 64.54 302.35 73.45 338.09C73.43 338.07 71.72 366.43 70.58 383.38Z" fill="#37474F"/>
<path d="M139.9 360.12C143.31 357.75 146.99 355.76 150.6 353.72C154.21 351.68 158.05 349.63 161.9 347.84C169.482 344.498 177.279 341.668 185.24 339.37C185.44 339.31 185.58 339.63 185.38 339.72C177.77 342.99 170.38 346.72 162.82 350.09C159.01 351.78 155.17 353.4 151.35 355.09C147.53 356.78 143.82 358.68 139.98 360.28C139.959 360.288 139.936 360.287 139.916 360.279C139.895 360.271 139.878 360.256 139.868 360.236C139.859 360.216 139.856 360.193 139.862 360.172C139.868 360.151 139.881 360.132 139.9 360.12V360.12Z" fill="#263238"/>
<path d="M160.73 322.86C160.82 319.13 161.08 315.4 161.27 311.67C161.7 302.86 162.04 294.01 162.86 285.23C162.872 285.166 162.906 285.108 162.957 285.067C163.007 285.025 163.07 285.003 163.135 285.003C163.2 285.003 163.263 285.025 163.313 285.067C163.364 285.108 163.398 285.166 163.41 285.23C163.52 292.04 163.26 298.87 163.12 305.68C163.05 309.08 162.95 312.49 162.86 315.9C162.672 319.15 162.648 322.408 162.79 325.66C162.97 328.12 163.51 332.89 166.72 333.19C169.72 333.46 171.39 330.19 172.14 327.82C174.06 321.76 174.74 315.21 175.36 308.9C175.72 305.17 176.09 301.45 176.36 297.7C176.693 293.873 176.817 290.031 176.73 286.19C176.73 285.95 177.09 285.96 177.11 286.19C177.31 290.04 179.19 332.29 168.48 335.53C168.127 335.616 167.763 335.653 167.4 335.64C167.4 336.43 167.26 337.23 167.2 338.01C167.12 339.24 166.96 340.47 166.8 341.69C166.627 342.896 166.373 344.088 166.04 345.26C165.788 346.45 165.367 347.599 164.79 348.67C164.69 348.84 164.46 348.74 164.44 348.57C164.415 347.389 164.516 346.209 164.74 345.05C164.9 343.85 165.07 342.64 165.31 341.46C165.55 340.28 165.77 339.12 166.01 337.95C166.17 337.17 166.28 336.37 166.43 335.57C165.494 335.409 164.613 335.017 163.866 334.43C163.119 333.844 162.529 333.081 162.15 332.21C160.76 329.37 160.65 326 160.73 322.86Z" fill="#263238"/>
<path d="M89.2 312.06C93.6 312.37 97.95 312.94 102.37 312.42C106.534 311.99 110.503 310.435 113.85 307.92C121.11 302.28 124.3 293.06 126.27 284.41C126.27 284.37 126.286 284.332 126.314 284.304C126.342 284.276 126.38 284.26 126.42 284.26C126.46 284.26 126.498 284.276 126.526 284.304C126.554 284.332 126.57 284.37 126.57 284.41C125.75 291.92 124.14 299.67 119.29 305.71C117.207 308.37 114.569 310.544 111.56 312.08C108.367 313.568 104.871 314.287 101.35 314.18C97.2202 314.147 93.1111 313.592 89.12 312.53C89.0777 312.502 89.0443 312.463 89.024 312.416C89.0038 312.37 88.9975 312.319 89.006 312.269C89.0145 312.219 89.0374 312.173 89.0719 312.135C89.1063 312.098 89.1509 312.072 89.2 312.06Z" fill="#263238"/>
<path d="M148.21 383.38C148.21 383.57 148.21 383.78 148.21 383.97C148.21 383.76 148.21 383.57 148.21 383.38H148.59C148.97 377.53 149.85 359.85 149.91 355.86V355.25C149.91 355.1 149.28 355.32 149.25 355.48C149.22 355.64 149.25 355.82 149.19 356.06C148.79 359.88 147.81 373.56 147.57 378.13C147.49 379.87 147.4 381.63 147.35 383.38H148.21Z" fill="#263238"/>
<path d="M129.84 87C113.43 101.07 118 121.59 111.14 132.72C106.95 139.53 93.3 146.72 90.59 154.56C86.13 167.44 97.05 172.07 94.59 179.07C91.13 188.99 77.84 188.22 75.45 204.45C73.06 220.68 90.92 237.95 133.3 242.63C175.68 247.31 198.98 231.79 200.5 218.01C202.02 204.23 187.94 199.7 187 189.41C186.38 182.84 195.09 178.27 195.53 166.17C195.97 154.07 184.18 150.17 182.53 139.87C180.88 129.57 186.27 104.64 171.18 91.87C156.09 79.1 137.94 80.1 129.84 87Z" fill="#263238"/>
<path d="M131.74 87.41C127.148 90.6675 123.412 94.9869 120.85 100C118.192 105.3 116.158 110.891 114.79 116.66C114.077 120.108 112.973 123.462 111.5 126.66C110.031 129.31 108.104 131.68 105.81 133.66C101.22 137.81 95.75 140.96 91.63 145.66C87.73 150.07 84.7 155.98 86.25 161.99C87.1 165.26 89.25 167.93 90.6 170.99C91.87 173.88 92.38 177.47 89.9 179.88C87.78 181.93 84.71 182.88 82.3 184.55C79.9276 186.204 77.8375 188.23 76.11 190.55C74.3616 192.846 73.1117 195.482 72.4402 198.289C71.7686 201.095 71.6902 204.011 72.21 206.85C74.71 220 87.08 227.48 98.5 232.2C100.093 232.867 101.69 233.51 103.29 234.13C103.54 234.23 103.75 233.88 103.5 233.76C92.03 228.63 78.73 222.61 74.33 209.76C73.3349 206.963 72.9977 203.975 73.3446 201.026C73.6914 198.078 74.713 195.25 76.33 192.76C77.9304 190.29 79.9629 188.129 82.33 186.38C84.64 184.68 87.33 183.64 89.64 182.02C90.808 181.278 91.7577 180.238 92.392 179.008C93.0263 177.778 93.3224 176.402 93.25 175.02C93.1 171.93 91.59 169.23 90.09 166.6C88.51 163.82 87.16 161 87.39 157.72C87.7272 154.641 88.8994 151.712 90.78 149.25C94.34 144.2 99.63 140.88 104.36 137.06C109.09 133.24 112.94 128.77 114.68 122.79C115.56 119.79 116.1 116.66 116.86 113.6C117.553 110.763 118.397 107.966 119.39 105.22C121.277 99.6993 124.349 94.6581 128.39 90.45C129.459 89.3806 130.632 88.4193 131.89 87.58C132 87.54 131.88 87.31 131.74 87.41Z" fill="#263238"/>
<path d="M202.4 208C201.881 205.756 200.882 203.65 199.47 201.83C197.99 199.97 196.21 198.39 194.58 196.67C192.903 195.128 191.699 193.141 191.11 190.94C190.57 188.23 191.71 185.63 192.98 183.31C194.419 180.941 195.685 178.471 196.77 175.92C197.707 173.384 198.253 170.72 198.39 168.02C198.613 162.45 197.123 156.946 194.12 152.25C192.68 149.89 191.05 147.64 189.59 145.25C187.972 142.688 186.707 139.92 185.83 137.02C183.92 130.64 183.51 123.9 181.95 117.44C180.31 110.813 178.001 104.37 175.06 98.21C174.99 98.06 174.77 98.21 174.84 98.35C177.439 103.915 179.45 109.737 180.84 115.72C182.18 121.39 182.7 127.17 183.71 132.9C184.149 135.718 184.869 138.485 185.86 141.16C186.868 143.631 188.1 146.004 189.54 148.25C192.4 152.92 195.36 157.53 196.15 163.06C196.942 168.506 195.987 174.062 193.42 178.93C191.19 183.14 188.07 187.79 190.01 192.72C191.66 196.9 195.65 199.4 198.29 202.86C199.687 204.764 200.665 206.943 201.16 209.253C201.655 211.562 201.655 213.95 201.16 216.26C198.9 228.11 187 234 175.87 234.58C175.806 234.592 175.748 234.626 175.707 234.677C175.665 234.727 175.643 234.79 175.643 234.855C175.643 234.92 175.665 234.983 175.707 235.033C175.748 235.084 175.806 235.118 175.87 235.13C185.55 235.01 196.08 230.76 200.62 221.69C202.778 217.47 203.407 212.632 202.4 208V208Z" fill="#263238"/>
<path d="M150.56 178.43C163.4 201.66 199.33 243.43 218.56 245.72C236.96 247.94 277.56 201.19 281.68 189.25C283.4 184.25 243.68 165.45 243.68 165.45C237.48 173.2 211.86 199.29 209.32 198.27C204.32 196.27 171.69 171.27 159.41 165.91C139.56 157.32 144.49 167.47 150.56 178.43Z" fill="#D3766A"/>
<path d="M169.46 213.14L182.46 177.85C182.46 177.85 166.8 167.27 157.31 162.63C144.74 156.5 139.52 159.73 146.17 175.52C150.61 186.09 169.46 213.14 169.46 213.14Z" fill="#015D09"/>
<path d="M156.75 164.29C156.75 164.488 156.691 164.681 156.581 164.846C156.472 165.01 156.315 165.138 156.133 165.214C155.95 165.29 155.749 165.309 155.555 165.271C155.361 165.232 155.183 165.137 155.043 164.997C154.903 164.857 154.808 164.679 154.769 164.485C154.731 164.291 154.75 164.09 154.826 163.907C154.902 163.725 155.03 163.568 155.194 163.459C155.359 163.349 155.552 163.29 155.75 163.29C156.015 163.29 156.27 163.395 156.457 163.583C156.645 163.77 156.75 164.025 156.75 164.29ZM166.35 180.6C166.152 180.6 165.959 180.659 165.794 180.769C165.63 180.878 165.502 181.035 165.426 181.217C165.35 181.4 165.331 181.601 165.369 181.795C165.408 181.989 165.503 182.167 165.643 182.307C165.783 182.447 165.961 182.542 166.155 182.581C166.349 182.619 166.55 182.6 166.733 182.524C166.915 182.448 167.072 182.32 167.181 182.156C167.291 181.991 167.35 181.798 167.35 181.6C167.35 181.335 167.245 181.08 167.057 180.893C166.87 180.705 166.615 180.6 166.35 180.6Z" fill="white"/>
<path d="M167.43 208.33C168.97 203.06 170.58 197.83 172.43 192.66C173.35 190.08 174.31 187.517 175.31 184.97C176.31 182.43 177.56 179.97 178.52 177.42C178.57 177.28 178.8 177.42 178.74 177.51C177.65 180.01 176.89 182.68 175.93 185.24C174.97 187.8 174 190.37 173.1 193C171.25 198.14 169.38 203.28 167.65 208.47C167.6 208.56 167.39 208.47 167.43 208.33Z" fill="#263238"/>
<path opacity="0.1" d="M146.17 175.53C150.61 186.1 169.46 213.15 169.46 213.15L179.28 186.51L144.81 160.62C142.46 162.48 142.7 167.3 146.17 175.53Z" fill="black"/>
<path d="M186.1 275.15L180.4 236.45C180.4 236.45 192.08 221.9 185.48 207.62C182.14 200.4 163.84 173.34 152.55 163.12C139.26 151.12 124.55 159.51 118.47 166.25C106.32 179.75 92.32 212.92 82.47 275.15H186.1Z" fill="#D3766A"/>
<path d="M187.5 264.44L180.4 236.44C180.4 236.44 192.08 221.89 185.48 207.61C182.14 200.39 163.84 173.33 152.55 163.11C139.26 151.11 123 158.92 116.86 165.6C106 177.45 92.32 202.22 82.45 264.44H187.5Z" fill="#015D09"/>
<path d="M135.5 164.29C135.5 164.488 135.441 164.681 135.331 164.846C135.222 165.01 135.065 165.138 134.883 165.214C134.7 165.29 134.499 165.309 134.305 165.271C134.111 165.232 133.933 165.137 133.793 164.997C133.653 164.857 133.558 164.679 133.519 164.485C133.481 164.291 133.5 164.09 133.576 163.907C133.652 163.725 133.78 163.568 133.944 163.459C134.109 163.349 134.302 163.29 134.5 163.29C134.765 163.29 135.02 163.395 135.207 163.583C135.395 163.77 135.5 164.025 135.5 164.29ZM113.22 198.8C113.022 198.8 112.829 198.859 112.664 198.969C112.5 199.078 112.372 199.235 112.296 199.417C112.22 199.6 112.201 199.801 112.239 199.995C112.278 200.189 112.373 200.367 112.513 200.507C112.653 200.647 112.831 200.742 113.025 200.781C113.219 200.819 113.42 200.8 113.603 200.724C113.785 200.648 113.942 200.52 114.051 200.356C114.161 200.191 114.22 199.998 114.22 199.8C114.22 199.535 114.115 199.28 113.927 199.093C113.74 198.905 113.485 198.8 113.22 198.8ZM134.47 198.8C134.272 198.8 134.079 198.859 133.914 198.969C133.75 199.078 133.622 199.235 133.546 199.417C133.47 199.6 133.451 199.801 133.489 199.995C133.528 200.189 133.623 200.367 133.763 200.507C133.903 200.647 134.081 200.742 134.275 200.781C134.469 200.819 134.67 200.8 134.853 200.724C135.035 200.648 135.192 200.52 135.301 200.356C135.411 200.191 135.47 199.998 135.47 199.8C135.47 199.535 135.365 199.28 135.177 199.093C134.99 198.905 134.735 198.8 134.47 198.8ZM155.72 198.8C155.522 198.8 155.329 198.859 155.164 198.969C155 199.078 154.872 199.235 154.796 199.417C154.72 199.6 154.701 199.801 154.739 199.995C154.778 200.189 154.873 200.367 155.013 200.507C155.153 200.647 155.331 200.742 155.525 200.781C155.719 200.819 155.92 200.8 156.103 200.724C156.285 200.648 156.442 200.52 156.551 200.356C156.661 200.191 156.72 199.998 156.72 199.8C156.72 199.535 156.615 199.28 156.427 199.093C156.24 198.905 155.985 198.8 155.72 198.8ZM176.97 198.8C176.772 198.8 176.579 198.859 176.414 198.969C176.25 199.078 176.122 199.235 176.046 199.417C175.97 199.6 175.951 199.801 175.989 199.995C176.028 200.189 176.123 200.367 176.263 200.507C176.403 200.647 176.581 200.742 176.775 200.781C176.969 200.819 177.17 200.8 177.353 200.724C177.535 200.648 177.692 200.52 177.801 200.356C177.911 200.191 177.97 199.998 177.97 199.8C177.97 199.54 177.869 199.29 177.688 199.103C177.507 198.917 177.26 198.808 177 198.8H176.97ZM123.85 180.6C123.652 180.6 123.459 180.659 123.294 180.769C123.13 180.878 123.002 181.035 122.926 181.217C122.85 181.4 122.831 181.601 122.869 181.795C122.908 181.989 123.003 182.167 123.143 182.307C123.283 182.447 123.461 182.542 123.655 182.581C123.849 182.619 124.05 182.6 124.233 182.524C124.415 182.448 124.572 182.32 124.681 182.156C124.791 181.991 124.85 181.798 124.85 181.6C124.85 181.335 124.745 181.08 124.557 180.893C124.37 180.705 124.115 180.6 123.85 180.6ZM145.1 180.6C144.902 180.6 144.709 180.659 144.544 180.769C144.38 180.878 144.252 181.035 144.176 181.217C144.1 181.4 144.081 181.601 144.119 181.795C144.158 181.989 144.253 182.167 144.393 182.307C144.533 182.447 144.711 182.542 144.905 182.581C145.099 182.619 145.3 182.6 145.483 182.524C145.665 182.448 145.822 182.32 145.931 182.156C146.041 181.991 146.1 181.798 146.1 181.6C146.1 181.335 145.995 181.08 145.807 180.893C145.62 180.705 145.365 180.6 145.1 180.6ZM166.35 180.6C166.152 180.6 165.959 180.659 165.794 180.769C165.63 180.878 165.502 181.035 165.426 181.217C165.35 181.4 165.331 181.601 165.369 181.795C165.408 181.989 165.503 182.167 165.643 182.307C165.783 182.447 165.961 182.542 166.155 182.581C166.349 182.619 166.55 182.6 166.733 182.524C166.915 182.448 167.072 182.32 167.181 182.156C167.291 181.991 167.35 181.798 167.35 181.6C167.35 181.335 167.245 181.08 167.057 180.893C166.87 180.705 166.615 180.6 166.35 180.6ZM92 234.33C91.8022 234.33 91.6089 234.389 91.4444 234.499C91.28 234.608 91.1518 234.765 91.0761 234.947C91.0004 235.13 90.9806 235.331 91.0192 235.525C91.0578 235.719 91.1531 235.897 91.2929 236.037C91.4328 236.177 91.6109 236.272 91.8049 236.311C91.9989 236.349 92.2 236.33 92.3827 236.254C92.5654 236.178 92.7216 236.05 92.8315 235.886C92.9414 235.721 93 235.528 93 235.33C93 235.065 92.8947 234.81 92.7071 234.623C92.5196 234.435 92.2652 234.33 92 234.33ZM113.25 234.33C113.052 234.33 112.859 234.389 112.694 234.499C112.53 234.608 112.402 234.765 112.326 234.947C112.25 235.13 112.231 235.331 112.269 235.525C112.308 235.719 112.403 235.897 112.543 236.037C112.683 236.177 112.861 236.272 113.055 236.311C113.249 236.349 113.45 236.33 113.633 236.254C113.815 236.178 113.972 236.05 114.081 235.886C114.191 235.721 114.25 235.528 114.25 235.33C114.25 235.196 114.223 235.064 114.171 234.94C114.119 234.817 114.043 234.705 113.947 234.612C113.851 234.519 113.737 234.446 113.612 234.397C113.487 234.349 113.354 234.326 113.22 234.33H113.25ZM134.5 234.33C134.302 234.33 134.109 234.389 133.944 234.499C133.78 234.608 133.652 234.765 133.576 234.947C133.5 235.13 133.481 235.331 133.519 235.525C133.558 235.719 133.653 235.897 133.793 236.037C133.933 236.177 134.111 236.272 134.305 236.311C134.499 236.349 134.7 236.33 134.883 236.254C135.065 236.178 135.222 236.05 135.331 235.886C135.441 235.721 135.5 235.528 135.5 235.33C135.5 235.196 135.473 235.064 135.421 234.94C135.369 234.817 135.293 234.705 135.197 234.612C135.101 234.519 134.987 234.446 134.862 234.397C134.737 234.349 134.604 234.326 134.47 234.33H134.5ZM155.75 234.33C155.552 234.33 155.359 234.389 155.194 234.499C155.03 234.608 154.902 234.765 154.826 234.947C154.75 235.13 154.731 235.331 154.769 235.525C154.808 235.719 154.903 235.897 155.043 236.037C155.183 236.177 155.361 236.272 155.555 236.311C155.749 236.349 155.95 236.33 156.133 236.254C156.315 236.178 156.472 236.05 156.581 235.886C156.691 235.721 156.75 235.528 156.75 235.33C156.75 235.196 156.723 235.064 156.671 234.94C156.619 234.817 156.543 234.705 156.447 234.612C156.351 234.519 156.237 234.446 156.112 234.397C155.987 234.349 155.854 234.326 155.72 234.33H155.75ZM177 234.33C176.802 234.33 176.609 234.389 176.444 234.499C176.28 234.608 176.152 234.765 176.076 234.947C176 235.13 175.981 235.331 176.019 235.525C176.058 235.719 176.153 235.897 176.293 236.037C176.433 236.177 176.611 236.272 176.805 236.311C176.999 236.349 177.2 236.33 177.383 236.254C177.565 236.178 177.722 236.05 177.831 235.886C177.941 235.721 178 235.528 178 235.33C178 235.065 177.895 234.81 177.707 234.623C177.52 234.435 177.265 234.33 177 234.33ZM102.63 216.13C102.432 216.13 102.239 216.189 102.074 216.299C101.91 216.408 101.782 216.565 101.706 216.747C101.63 216.93 101.611 217.131 101.649 217.325C101.688 217.519 101.783 217.697 101.923 217.837C102.063 217.977 102.241 218.072 102.435 218.111C102.629 218.149 102.83 218.13 103.013 218.054C103.195 217.978 103.352 217.85 103.461 217.686C103.571 217.521 103.63 217.328 103.63 217.13C103.63 216.996 103.603 216.864 103.551 216.74C103.499 216.617 103.423 216.505 103.327 216.412C103.231 216.319 103.117 216.246 102.992 216.197C102.867 216.149 102.734 216.126 102.6 216.13H102.63ZM123.88 216.13C123.682 216.13 123.489 216.189 123.324 216.299C123.16 216.408 123.032 216.565 122.956 216.747C122.88 216.93 122.861 217.131 122.899 217.325C122.938 217.519 123.033 217.697 123.173 217.837C123.313 217.977 123.491 218.072 123.685 218.111C123.879 218.149 124.08 218.13 124.263 218.054C124.445 217.978 124.602 217.85 124.711 217.686C124.821 217.521 124.88 217.328 124.88 217.13C124.88 216.996 124.853 216.864 124.801 216.74C124.749 216.617 124.673 216.505 124.577 216.412C124.481 216.319 124.367 216.246 124.242 216.197C124.117 216.149 123.984 216.126 123.85 216.13H123.88ZM145.13 216.13C144.932 216.13 144.739 216.189 144.574 216.299C144.41 216.408 144.282 216.565 144.206 216.747C144.13 216.93 144.111 217.131 144.149 217.325C144.188 217.519 144.283 217.697 144.423 217.837C144.563 217.977 144.741 218.072 144.935 218.111C145.129 218.149 145.33 218.13 145.513 218.054C145.695 217.978 145.852 217.85 145.961 217.686C146.071 217.521 146.13 217.328 146.13 217.13C146.13 216.996 146.103 216.864 146.051 216.74C145.999 216.617 145.923 216.505 145.827 216.412C145.731 216.319 145.617 216.246 145.492 216.197C145.367 216.149 145.234 216.126 145.1 216.13H145.13ZM166.38 216.13C166.182 216.13 165.989 216.189 165.824 216.299C165.66 216.408 165.532 216.565 165.456 216.747C165.38 216.93 165.361 217.131 165.399 217.325C165.438 217.519 165.533 217.697 165.673 217.837C165.813 217.977 165.991 218.072 166.185 218.111C166.379 218.149 166.58 218.13 166.763 218.054C166.945 217.978 167.102 217.85 167.211 217.686C167.321 217.521 167.38 217.328 167.38 217.13C167.38 216.996 167.353 216.864 167.301 216.74C167.249 216.617 167.173 216.505 167.077 216.412C166.981 216.319 166.867 216.246 166.742 216.197C166.617 216.149 166.484 216.126 166.35 216.13H166.38ZM187.51 216.13C187.261 216.153 187.029 216.268 186.86 216.453C186.692 216.638 186.599 216.88 186.6 217.13C186.599 217.379 186.69 217.619 186.857 217.804C187.023 217.989 187.252 218.105 187.5 218.13L187.51 216.13ZM102.6 251.66C102.402 251.66 102.209 251.719 102.044 251.829C101.88 251.938 101.752 252.095 101.676 252.277C101.6 252.46 101.581 252.661 101.619 252.855C101.658 253.049 101.753 253.227 101.893 253.367C102.033 253.507 102.211 253.602 102.405 253.641C102.599 253.679 102.8 253.66 102.983 253.584C103.165 253.508 103.322 253.38 103.431 253.216C103.541 253.051 103.6 252.858 103.6 252.66C103.6 252.395 103.495 252.14 103.307 251.953C103.12 251.765 102.865 251.66 102.6 251.66ZM123.85 251.66C123.652 251.66 123.459 251.719 123.294 251.829C123.13 251.938 123.002 252.095 122.926 252.277C122.85 252.46 122.831 252.661 122.869 252.855C122.908 253.049 123.003 253.227 123.143 253.367C123.283 253.507 123.461 253.602 123.655 253.641C123.849 253.679 124.05 253.66 124.233 253.584C124.415 253.508 124.572 253.38 124.681 253.216C124.791 253.051 124.85 252.858 124.85 252.66C124.85 252.395 124.745 252.14 124.557 251.953C124.37 251.765 124.115 251.66 123.85 251.66ZM145.1 251.66C144.902 251.66 144.709 251.719 144.544 251.829C144.38 251.938 144.252 252.095 144.176 252.277C144.1 252.46 144.081 252.661 144.119 252.855C144.158 253.049 144.253 253.227 144.393 253.367C144.533 253.507 144.711 253.602 144.905 253.641C145.099 253.679 145.3 253.66 145.483 253.584C145.665 253.508 145.822 253.38 145.931 253.216C146.041 253.051 146.1 252.858 146.1 252.66C146.1 252.395 145.995 252.14 145.807 251.953C145.62 251.765 145.365 251.66 145.1 251.66ZM166.35 251.66C166.152 251.66 165.959 251.719 165.794 251.829C165.63 251.938 165.502 252.095 165.426 252.277C165.35 252.46 165.331 252.661 165.369 252.855C165.408 253.049 165.503 253.227 165.643 253.367C165.783 253.507 165.961 253.602 166.155 253.641C166.349 253.679 166.55 253.66 166.733 253.584C166.915 253.508 167.072 253.38 167.181 253.216C167.291 253.051 167.35 252.858 167.35 252.66C167.35 252.395 167.245 252.14 167.057 251.953C166.87 251.765 166.615 251.66 166.35 251.66Z" fill="white"/>
<path d="M145.4 232.5C150.293 232.583 155.173 233.028 160 233.83C162.39 234.26 164.75 234.83 167.11 235.4C168.29 235.69 169.47 235.95 170.65 236.19C171.884 236.491 173.15 236.639 174.42 236.63C174.434 236.625 174.448 236.624 174.462 236.626C174.477 236.628 174.49 236.633 174.502 236.642C174.513 236.65 174.523 236.661 174.53 236.674C174.536 236.686 174.54 236.701 174.54 236.715C174.54 236.729 174.536 236.744 174.53 236.756C174.523 236.769 174.513 236.78 174.502 236.788C174.49 236.797 174.477 236.802 174.462 236.804C174.448 236.806 174.434 236.805 174.42 236.8C173.232 236.943 172.036 237.007 170.84 236.99C169.679 236.94 168.523 236.81 167.38 236.6C164.94 236.18 162.53 235.65 160.1 235.21C155.2 234.33 150.3 233.44 145.35 232.91C145.303 232.895 145.263 232.865 145.236 232.823C145.21 232.782 145.198 232.733 145.204 232.684C145.21 232.635 145.233 232.59 145.269 232.557C145.305 232.523 145.351 232.503 145.4 232.5Z" fill="#263238"/>
<path d="M133.69 237.68C137.66 236.973 141.666 236.489 145.69 236.23C147.69 236.11 149.69 236.1 151.69 236.15C152.69 236.15 153.62 236.22 154.58 236.27C155.54 236.32 156.69 236.52 157.75 236.57C157.86 236.57 157.88 236.74 157.75 236.74C156.75 236.74 155.75 236.89 154.75 236.94L151.75 237.07C149.75 237.17 147.75 237.29 145.75 237.37C141.75 237.52 137.75 237.72 133.69 238.01C133.49 238 133.48 237.72 133.69 237.68Z" fill="#263238"/>
<path d="M131.7 163.05C132.06 165.05 141.63 177.5 150.61 176.05C156.93 175.05 153.61 162.36 153.61 162.36L158.52 144.74L136.89 129.39C136.89 129.39 131.56 162.2 131.7 163.05Z" fill="#D3766A"/>
<path d="M135 140.89C136.572 145.409 139.056 149.556 142.299 153.074C145.542 156.593 149.474 159.406 153.85 161.34L158.49 144.71L136.86 129.35L135 140.89Z" fill="#263238"/>
<path d="M183.18 119.13C185.73 148.99 168.18 153.89 161.71 154.43C155.86 154.93 135.9 155.87 130.27 126.43C124.64 96.99 137.71 86.43 151.02 84.54C164.33 82.65 180.62 89.28 183.18 119.13Z" fill="#D3766A"/>
<path d="M177.38 113.25C176.701 113.064 176.034 112.841 175.38 112.58C174.656 112.445 173.998 112.072 173.51 111.52C173.379 111.321 173.322 111.082 173.352 110.845C173.381 110.609 173.494 110.391 173.67 110.23C174.046 109.946 174.491 109.769 174.959 109.716C175.427 109.664 175.9 109.737 176.33 109.93C177.26 110.178 178.063 110.767 178.58 111.58C178.683 111.769 178.731 111.983 178.718 112.197C178.705 112.412 178.631 112.618 178.506 112.793C178.381 112.968 178.208 113.103 178.009 113.184C177.81 113.265 177.592 113.288 177.38 113.25Z" fill="#263238"/>
<path d="M157.3 113.07C157.974 112.947 158.642 112.79 159.3 112.6C160.045 112.541 160.749 112.234 161.3 111.73C161.446 111.545 161.525 111.316 161.525 111.08C161.525 110.844 161.446 110.615 161.3 110.43C160.953 110.111 160.527 109.891 160.066 109.793C159.606 109.695 159.127 109.721 158.68 109.87C157.727 110.025 156.868 110.532 156.27 111.29C156.149 111.468 156.08 111.676 156.072 111.891C156.064 112.106 156.117 112.318 156.224 112.504C156.332 112.691 156.49 112.842 156.681 112.943C156.871 113.043 157.086 113.087 157.3 113.07V113.07Z" fill="#263238"/>
<path d="M162.16 122.3C162.16 122.22 162 122.4 162.01 122.49C162.16 124.49 162.01 126.88 160.18 127.64C160.12 127.64 160.13 127.76 160.18 127.75C162.44 127.34 162.63 124.2 162.16 122.3Z" fill="#263238"/>
<path d="M160.25 120.25C156.96 120.14 156.98 126.73 160.03 126.83C163.08 126.93 163 120.34 160.25 120.25Z" fill="#263238"/>
<path d="M159 120.6C158.42 120.98 157.86 121.6 157.17 121.71C156.48 121.82 155.76 121.1 155.23 120.44C155.17 120.37 155.12 120.44 155.12 120.52C155.12 121.78 155.59 123.07 156.95 123.26C158.31 123.45 159.06 122.26 159.37 121.03C159.39 120.8 159.19 120.45 159 120.6Z" fill="#263238"/>
<path d="M173.46 122C173.46 121.92 173.62 122.1 173.62 122.18C173.56 124.18 173.83 126.57 175.68 127.24C175.696 127.24 175.711 127.246 175.722 127.258C175.734 127.269 175.74 127.284 175.74 127.3C175.74 127.316 175.734 127.331 175.722 127.342C175.711 127.354 175.696 127.36 175.68 127.36C173.41 127 173.08 123.88 173.46 122Z" fill="#263238"/>
<path d="M175.28 119.82C178.56 119.57 178.83 126.15 175.79 126.39C172.75 126.63 172.53 120 175.28 119.82Z" fill="#263238"/>
<path d="M176.59 120.12C177.18 120.47 177.77 121.12 178.46 121.12C179.15 121.12 179.85 120.46 180.34 119.77C180.4 119.7 180.45 119.77 180.46 119.84C180.53 121.1 180.1 122.42 178.75 122.66C177.4 122.9 176.6 121.8 176.23 120.55C176.16 120.33 176.35 120 176.59 120.12Z" fill="#263238"/>
<path d="M159.78 138.28C160.11 138.88 160.38 139.65 161.07 139.93C161.802 140.132 162.568 140.18 163.32 140.07C163.337 140.065 163.355 140.067 163.37 140.075C163.386 140.083 163.398 140.096 163.404 140.112C163.41 140.129 163.41 140.147 163.404 140.163C163.397 140.179 163.385 140.192 163.37 140.2C162.974 140.497 162.505 140.683 162.012 140.738C161.52 140.792 161.022 140.714 160.57 140.51C160.207 140.281 159.919 139.951 159.741 139.56C159.563 139.169 159.504 138.734 159.57 138.31C159.57 138.19 159.73 138.19 159.78 138.28Z" fill="#263238"/>
<path d="M170.12 130.79C170.12 130.79 170.59 133.79 170.61 135.27C170.61 135.41 170.27 135.48 169.78 135.51C169.78 135.51 169.78 135.51 169.72 135.51C168.49 135.755 167.217 135.656 166.04 135.224C164.863 134.792 163.829 134.043 163.05 133.06C162.95 132.93 163.12 132.77 163.26 132.86C165.109 134.085 167.306 134.678 169.52 134.55C169.62 134.15 168.52 129.37 168.78 129.35C169.896 129.431 170.996 129.663 172.05 130.04C171.26 123.68 169.46 117.49 168.76 111.15C168.757 111.104 168.77 111.057 168.797 111.02C168.824 110.982 168.864 110.955 168.909 110.943C168.954 110.931 169.001 110.935 169.044 110.955C169.086 110.974 169.12 111.008 169.14 111.05C171.49 117.4 172.56 124.7 173.54 131.25C173.68 132.06 170.7 131 170.12 130.79Z" fill="#263238"/>
<path d="M131.77 123.38C134.97 123.38 143.7 115.03 144.77 99.68C144.77 99.68 142.88 113.39 141.77 115.36C140.66 117.33 146.65 110.68 147.67 98.36C147.67 98.36 154.27 103.66 160.04 105.6C165.81 107.54 169.39 107.67 169.83 107.27C170.27 106.87 161.83 103.71 159.61 100.91C159.61 100.91 174.8 108.91 181.94 109.91C182.77 110.01 184.64 93 173.94 85.19C163.24 77.38 145.25 84.3 140.29 88.62C140.29 88.62 134.71 89.12 128.29 97.02C121.87 104.92 128.34 123.41 131.77 123.38Z" fill="#263238"/>
<path d="M172.28 123.16C172.01 118.16 174.5 113.89 177.83 113.72C181.16 113.55 184.08 117.49 184.34 122.52C184.6 127.55 182.11 131.79 178.79 131.96C175.47 132.13 172.54 128.19 172.28 123.16ZM173.5 123.09C173.73 127.45 176.07 130.88 178.72 130.74C181.37 130.6 183.35 126.94 183.12 122.59C182.89 118.24 180.55 114.8 177.9 114.94C175.25 115.08 173.27 118.74 173.5 123.09Z" fill="#015D09"/>
<path d="M149.34 124.36C149.08 119.36 152.69 115.04 157.34 114.79C161.99 114.54 166.07 118.44 166.34 123.47C166.61 128.5 163 132.79 158.34 133.03C153.68 133.27 149.61 129.39 149.34 124.36ZM150.57 124.29C150.8 128.65 154.25 132.02 158.28 131.81C162.31 131.6 165.39 127.88 165.16 123.53C164.93 119.18 161.47 115.8 157.45 116.01C153.43 116.22 150.34 119.94 150.57 124.29Z" fill="#015D09"/>
<path d="M165.93 122.67C170.41 120.82 172.55 122.21 172.57 122.22L173.27 121.22C173.17 121.15 170.63 119.41 165.46 121.53L165.93 122.67Z" fill="#015D09"/>
<path d="M150 123.13V121.9C149.19 121.9 130.24 122.26 128.23 122.55C126.22 122.84 121.79 126.55 121.3 127.01L122.1 127.93C123.33 126.87 126.78 124.09 128.32 123.78H128.41C129.94 123.54 143.21 123.25 150 123.13Z" fill="#015D09"/>
<path d="M135.35 126.27C135.35 126.27 128.82 116.91 124.58 119.27C120.34 121.63 125.23 135.16 130.21 137.02C130.832 137.303 131.505 137.457 132.189 137.473C132.872 137.488 133.552 137.365 134.186 137.111C134.821 136.857 135.397 136.477 135.881 135.994C136.365 135.51 136.745 134.934 137 134.3L135.35 126.27Z" fill="#D3766A"/>
<path d="M126.08 123.09C126.067 123.095 126.056 123.104 126.048 123.116C126.04 123.127 126.036 123.141 126.036 123.155C126.036 123.169 126.04 123.183 126.048 123.194C126.056 123.206 126.067 123.215 126.08 123.22C129.57 124.64 131.41 127.88 132.69 131.22C131.69 129.93 130.24 129.22 128.51 130.45C128.493 130.466 128.481 130.487 128.476 130.51C128.472 130.533 128.475 130.557 128.485 130.578C128.495 130.599 128.512 130.617 128.532 130.628C128.553 130.639 128.577 130.643 128.6 130.64C129.214 130.447 129.874 130.448 130.487 130.643C131.101 130.838 131.64 131.218 132.03 131.73C132.676 132.595 133.225 133.527 133.67 134.51C133.83 134.82 134.4 134.66 134.28 134.3V134.21C134.31 129.78 130.86 123.54 126.08 123.09Z" fill="#263238"/>
<path d="M216.38 162.77C189.78 199.92 189.78 247.77 216.38 284.98L299.2 223.88L216.38 162.77Z" fill="#015D09"/>
<path opacity="0.1" d="M275.87 206.67L274.93 205.98C275.93 214.15 275.51 223.8 269.69 229.98C266.5 233.4 261.47 232.87 257.82 231.82C254.116 230.652 250.595 228.969 247.36 226.82C247.979 223.407 248.157 219.928 247.89 216.47C247.21 207.12 243.56 197.47 238.37 191.33C233.57 185.62 228.3 184.11 224.26 187.26C221.46 189.45 220.46 192.71 221.26 196.92C223.14 206.58 234.48 219.61 246.31 227.24C245.18 233.388 242.085 239.003 237.49 243.24C235.278 245.267 232.802 246.986 230.13 248.35C227.611 245.284 224.613 242.646 221.25 240.54C213.08 235.44 205.25 235.04 201.74 239.54C199.97 241.83 200.59 244.75 203.4 247.36C208.31 251.9 219.1 254.63 230.02 249.36C235.6 256.46 236.73 264.51 235.02 271.15L236.19 270.29C237.311 265.195 236.702 259.871 234.46 255.16C233.443 252.978 232.181 250.918 230.7 249.02C233.383 247.637 235.871 245.905 238.1 243.87C242.746 239.593 245.923 233.959 247.18 227.77C250.414 229.848 253.917 231.476 257.59 232.61C263.17 234.21 267.59 233.49 270.34 230.53C276 224.57 276.86 215.41 275.87 206.67ZM204 246.8C201.56 244.53 201 242.05 202.44 240.15C205.66 236.01 213.04 236.47 220.81 241.33C224.076 243.327 227.003 245.831 229.48 248.75C219 253.74 208.72 251.17 204 246.8ZM246.51 226.36C235 218.79 223.92 206 222.13 196.84C221.37 192.97 222.27 190 224.8 188.02C228.47 185.14 233.18 186.58 237.72 191.97C244.32 199.81 248.69 213.83 246.51 226.36Z" fill="black"/>
<path d="M299.2 223.88H308.93L226.11 162.77H216.38L299.2 223.88Z" fill="#015D09"/>
<g opacity="0.1">
<path opacity="0.1" d="M299.2 223.88H308.93L226.11 162.77H216.38L299.2 223.88Z" fill="black"/>
</g>
<path d="M216.38 284.98H226.11L308.93 223.88H299.2L216.38 284.98Z" fill="#015D09"/>
<g opacity="0.2">
<path opacity="0.2" d="M216.38 284.98H226.11L308.93 223.88H299.2L216.38 284.98Z" fill="black"/>
</g>
<path d="M115.07 181C114.2 219.72 121.78 262.27 130.17 268.52C139.4 275.41 156.96 282.28 184.52 288.75C190.59 290.18 199.08 245.09 192.6 243.52C177.66 239.88 155.47 234.78 151.85 231.06C147.68 226.79 143.72 207.33 132.96 182.45C124.72 163.4 115.51 161.35 115.07 181Z" fill="#D3766A"/>
<path d="M185.61 247.06C185.61 247.06 200.67 238.96 209.91 237.16C222.27 234.74 233.91 237.74 238.75 239.3C248.8 242.54 270.85 257.3 267.7 264.42C264.85 270.85 243.07 254.59 243.07 254.59C243.07 254.59 268.01 267.5 263.15 274.59C258.29 281.68 234.09 261.39 234.09 261.39C234.09 261.39 259.42 275.23 253.25 281.76C248.59 286.69 225.63 269.53 225.63 269.53C225.63 269.53 247.32 281.53 242.74 286.86C237.69 292.7 215.5 278.19 215.5 278.19C201.61 289.66 190.31 289.44 182.29 288.33C180.34 288.07 185.61 247.06 185.61 247.06Z" fill="#D3766A"/>
<path d="M234.73 249.57C237.73 250.98 240.73 252.39 243.59 254.06C246.45 255.73 249.24 257.51 251.92 259.43C255.474 261.879 258.733 264.731 261.63 267.93C256.07 262.64 245.96 256.5 243.11 254.83C240.26 253.16 237.51 251.35 234.66 249.68C234.59 249.64 234.66 249.54 234.73 249.57Z" fill="#263238"/>
<path d="M228.51 259.75C232.24 261.75 236.02 263.53 239.67 265.66C243.32 267.79 246.56 270.11 250.03 272.48C250.3 272.66 250.11 272.75 249.84 272.57C246.27 270.35 242.84 268.57 239.21 266.39C235.58 264.21 232.11 261.88 228.46 259.84C228.4 259.81 228.45 259.72 228.51 259.75Z" fill="#263238"/>
<path d="M221.6 267.53C227.46 270.24 232.81 274.03 237.97 277.87C238.23 278.06 237.97 278.15 237.7 277.97C232.33 274.42 228.13 271.61 221.51 267.73C221.4 267.67 221.48 267.47 221.6 267.53Z" fill="#263238"/>
<path d="M126.58 263.6C127.415 264.906 128.365 266.134 129.42 267.27C130.518 268.326 131.752 269.231 133.09 269.96C135.73 271.57 138.44 273.12 141.02 274.96C138.067 273.886 135.235 272.505 132.57 270.84C131.175 270.037 129.927 269.002 128.88 267.78C127.905 266.512 127.13 265.102 126.58 263.6V263.6Z" fill="#263238"/>
<path d="M113 221.39L143 198.78C143 198.78 135.57 181.4 130.1 172.36C122.87 160.36 116.73 160.28 113.76 177.16C111.8 188.45 113 221.39 113 221.39Z" fill="#015D09"/>
<path d="M114.25 199.82C114.25 200.085 114.145 200.34 113.957 200.527C113.77 200.715 113.515 200.82 113.25 200.82C113.037 200.818 112.83 200.748 112.66 200.62C112.66 200.07 112.66 199.52 112.66 198.96C112.829 198.838 113.032 198.771 113.24 198.77C113.376 198.768 113.512 198.795 113.638 198.848C113.764 198.9 113.877 198.978 113.972 199.077C114.067 199.175 114.14 199.292 114.188 199.42C114.236 199.547 114.257 199.684 114.25 199.82ZM134.47 198.82C134.272 198.82 134.079 198.879 133.914 198.989C133.75 199.098 133.622 199.255 133.546 199.437C133.47 199.62 133.451 199.821 133.489 200.015C133.528 200.209 133.623 200.387 133.763 200.527C133.903 200.667 134.081 200.762 134.275 200.801C134.469 200.839 134.67 200.82 134.853 200.744C135.035 200.668 135.192 200.54 135.301 200.376C135.411 200.211 135.47 200.018 135.47 199.82C135.473 199.687 135.449 199.555 135.4 199.431C135.351 199.308 135.277 199.195 135.184 199.1C135.091 199.005 134.98 198.93 134.857 198.878C134.735 198.827 134.603 198.8 134.47 198.8V198.82ZM123.85 180.62C123.652 180.62 123.459 180.679 123.294 180.789C123.13 180.898 123.002 181.055 122.926 181.237C122.85 181.42 122.831 181.621 122.869 181.815C122.908 182.009 123.003 182.187 123.143 182.327C123.283 182.467 123.461 182.562 123.655 182.601C123.849 182.639 124.05 182.62 124.233 182.544C124.415 182.468 124.572 182.34 124.681 182.176C124.791 182.011 124.85 181.818 124.85 181.62C124.853 181.487 124.829 181.355 124.78 181.231C124.731 181.108 124.657 180.995 124.564 180.9C124.471 180.805 124.36 180.73 124.237 180.678C124.115 180.627 123.983 180.6 123.85 180.6V180.62Z" fill="white"/>
<path d="M139.37 201.55C139.65 201.24 142.66 198.82 142.93 198.71C142 196.71 141.05 194.71 140.15 192.64C139.7 191.64 139.26 190.64 138.84 189.57C138.42 188.5 137.84 187.17 137.39 186.17C137.33 186.01 137.52 185.91 137.6 186.06C138.26 187.32 138.71 188.27 139.27 189.36C139.83 190.45 140.27 191.36 140.72 192.31C141.72 194.41 142.83 196.61 143.72 198.75C142.37 199.814 140.95 200.786 139.47 201.66C139.38 201.69 139.33 201.59 139.37 201.55Z" fill="#263238"/>
<path d="M113.89 216.25C118.03 212.66 122.22 209.13 126.57 205.79C128.743 204.123 130.937 202.487 133.15 200.88C135.37 199.28 137.76 197.88 139.94 196.28C140.06 196.19 140.2 196.39 140.08 196.47C137.81 197.98 135.72 199.81 133.53 201.47C131.34 203.13 129.16 204.75 126.98 206.47C122.64 209.78 118.28 213.1 113.98 216.47C113.9 216.54 113.78 216.35 113.89 216.25Z" fill="#263238"/>
<path d="M116.64 218.64C116.07 219.15 115.49 219.64 114.91 220.14C114.33 220.64 113.75 221.14 113.15 221.62L112.74 221.94V221.4C112.6 219.31 112.45 217.23 112.38 215.14C112.31 213.05 112.25 210.95 112.24 208.86C112.23 206.77 112.24 204.68 112.31 202.58C112.38 200.48 112.47 198.4 112.65 196.31C112.81 198.4 112.91 200.49 113 202.58C113.09 204.67 113.16 206.76 113.21 208.85L113.31 215.11C113.31 217.2 113.31 219.29 113.31 221.38L112.87 221.17C113.49 220.73 114.13 220.31 114.77 219.89C115.41 219.47 116 219.05 116.64 218.64Z" fill="#263238"/>
<path d="M110.86 201.14C111.405 202.083 111.829 203.091 112.12 204.14C112.439 205.179 112.62 206.254 112.66 207.34C111.586 205.448 110.97 203.332 110.86 201.16V201.14Z" fill="#263238"/>
<path d="M139.29 187C139.647 187.674 139.909 188.394 140.07 189.14C140.155 189.509 140.215 189.883 140.25 190.26C140.285 190.643 140.285 191.027 140.25 191.41C139.959 190.712 139.731 189.989 139.57 189.25C139.396 188.512 139.303 187.758 139.29 187V187Z" fill="#263238"/>
<path d="M232.3 167.12C240.4 166.22 251.93 160.9 257.85 162.19C259.318 162.461 260.661 163.194 261.683 164.283C262.705 165.371 263.352 166.758 263.53 168.24C263.53 168.24 268.32 163.55 273.53 165.61C276.2 166.61 276.85 171.85 276.85 171.85C276.85 171.85 280.85 168.26 285.36 170.37C288.91 172.05 289 177 289 177C289 177 294.45 175.35 297.55 178.23C303.84 184.08 292.71 216.17 279.17 217.03C272.86 217.43 276.01 209.74 276.01 209.74C276.01 209.74 268.81 219.74 262.14 217.59C255.47 215.44 260.14 205.72 260.14 205.72C260.14 205.72 253.09 215.31 246.39 212.41C239.39 209.41 245.77 200.41 245.77 200.41C245.77 200.41 238.46 205.87 233.84 202.47C226.21 196.87 241.64 187.08 242.41 179.47L232.13 171.54L232.3 167.12Z" fill="#D3766A"/>
<path d="M244.64 164.19C236.89 164.36 231.36 152.92 223.93 152.02C213.87 150.81 219.39 164.51 232.16 171.56L243 175.29L244.64 164.19Z" fill="#D3766A"/>
<path d="M289.16 177.78C289.155 177.766 289.154 177.752 289.156 177.738C289.158 177.724 289.163 177.71 289.172 177.698C289.18 177.687 289.191 177.677 289.204 177.67C289.217 177.664 289.231 177.66 289.245 177.66C289.259 177.66 289.274 177.664 289.286 177.67C289.299 177.677 289.31 177.687 289.318 177.698C289.327 177.71 289.332 177.724 289.334 177.738C289.336 177.752 289.335 177.766 289.33 177.78C288.25 189.22 283.54 201.47 275.9 210.15C275.65 210.44 275.08 210.15 275.3 209.79C281.46 199.36 286.1 189.59 289.16 177.78Z" fill="#263238"/>
<path d="M276.94 171.72C276.94 171.59 277.19 171.64 277.18 171.78C275.99 183.57 270.32 197.22 260.33 206.19C259.99 206.5 259.33 206.44 259.74 206.05C265.93 199.58 274.24 182.36 276.94 171.72Z" fill="#263238"/>
<path d="M244.87 200.87C254.11 191.87 259.55 180.87 263.5 168.73C263.55 168.57 263.77 168.66 263.77 168.8C263.45 175.27 260.12 182.74 257.04 188.34C254.276 193.588 250.187 198.021 245.18 201.2C245 201.32 244.67 201.07 244.87 200.87Z" fill="#263238"/>
<path d="M148.2 384C148.2 383.79 148.2 383.6 148.2 383.41C148.21 383.57 148.2 383.78 148.2 384Z" fill="#015D09"/>
</svg>
