<svg width="600" height="600" viewBox="0 0 600 600" fill="none" xmlns="http://www.w3.org/2000/svg">
<path d="M71.28 462.084C71.8399 461.748 72.4808 461.57 73.134 461.57C73.7872 461.57 74.4281 461.748 74.988 462.084L75.936 462.636L76.92 463.128C77.5155 463.394 78.0245 463.822 78.3894 464.363C78.7542 464.904 78.9602 465.536 78.984 466.188L79.128 470.76L93.996 470.292L93.852 465.732C93.8437 465.078 94.0136 464.435 94.3434 463.87C94.6732 463.306 95.1505 462.842 95.724 462.528C96.3735 462.163 97.0024 461.762 97.608 461.328C98.1432 460.959 98.7683 460.742 99.4169 460.7C100.066 460.658 100.713 460.792 101.292 461.088L105.312 463.248L112.344 450.132L108.324 447.984C107.755 447.667 107.283 447.202 106.957 446.637C106.632 446.073 106.465 445.431 106.476 444.78C106.5 444.039 106.476 443.298 106.404 442.56C106.357 441.923 106.48 441.285 106.76 440.712C107.04 440.138 107.468 439.65 108 439.296L111.876 436.896L104.04 424.26L100.14 426.66C99.5852 427.004 98.9451 427.187 98.292 427.187C97.6389 427.187 96.9989 427.004 96.444 426.66C96.132 426.468 95.82 426.288 95.496 426.12L94.512 425.628C93.9172 425.357 93.4093 424.927 93.0449 424.384C92.6804 423.842 92.4738 423.209 92.448 422.556L92.4 417.96L77.544 418.416L77.688 422.976C77.6963 423.63 77.5264 424.273 77.1966 424.838C76.8668 425.402 76.3896 425.866 75.816 426.18C75.1666 426.545 74.5376 426.946 73.932 427.38C73.3993 427.76 72.7711 427.984 72.1182 428.026C71.4652 428.069 70.8134 427.928 70.236 427.62L66.228 425.472L59.196 438.588L63.204 440.736C63.7731 441.053 64.2455 441.518 64.571 442.082C64.8964 442.647 65.0627 443.289 65.052 443.94C65.0338 444.681 65.0579 445.422 65.124 446.16C65.1796 446.813 65.0559 447.469 64.7662 448.057C64.4765 448.645 64.0318 449.142 63.48 449.496L59.604 451.896L67.452 464.532L71.28 462.084ZM75 438.612C76.138 436.489 77.8801 434.75 80.006 433.617C82.1319 432.484 84.5461 432.007 86.9433 432.246C89.3405 432.484 91.613 433.429 93.4734 434.959C95.3338 436.49 96.6986 438.538 97.3952 440.844C98.0917 443.15 98.0887 445.611 97.3866 447.915C96.6845 450.22 95.3148 452.264 93.4506 453.79C91.5865 455.316 89.3117 456.255 86.914 456.488C84.5162 456.721 82.1032 456.238 79.98 455.1C77.1357 453.571 75.014 450.977 74.0804 447.886C73.1468 444.795 73.4775 441.46 75 438.612V438.612Z" fill="#BAB5B5"/>
<path d="M113.352 409.2C113.587 408.806 113.927 408.485 114.334 408.273C114.741 408.061 115.198 407.967 115.656 408H117.192C117.648 407.969 118.103 408.064 118.508 408.276C118.912 408.488 119.25 408.808 119.484 409.2L121.08 411.972L130.104 406.764L128.508 403.992C128.282 403.594 128.17 403.142 128.185 402.684C128.2 402.227 128.341 401.782 128.592 401.4C128.882 400.97 129.143 400.521 129.372 400.056C129.579 399.647 129.895 399.303 130.284 399.062C130.673 398.821 131.122 398.691 131.58 398.688H134.772V388.272H131.58C131.122 388.269 130.673 388.139 130.284 387.898C129.895 387.657 129.579 387.313 129.372 386.904C129.143 386.439 128.882 385.99 128.592 385.56C128.341 385.175 128.2 384.729 128.185 384.27C128.171 383.811 128.282 383.356 128.508 382.956L130.104 380.196L121.08 374.988L119.472 377.76C119.239 378.153 118.901 378.474 118.496 378.686C118.092 378.898 117.636 378.993 117.18 378.96H116.412H115.656C115.198 378.994 114.741 378.899 114.334 378.687C113.927 378.475 113.587 378.154 113.352 377.76L111.756 374.988L102.732 380.196L104.328 382.956C104.554 383.354 104.666 383.806 104.651 384.264C104.636 384.721 104.495 385.166 104.244 385.548C103.954 385.982 103.693 386.435 103.464 386.904C103.257 387.313 102.941 387.657 102.552 387.898C102.162 388.139 101.714 388.269 101.256 388.272H98.064V398.688H101.256C101.714 398.691 102.162 398.821 102.552 399.062C102.941 399.303 103.257 399.647 103.464 400.056C103.693 400.525 103.954 400.978 104.244 401.412C104.495 401.794 104.636 402.239 104.651 402.696C104.666 403.154 104.554 403.606 104.328 404.004L102.732 406.764L111.756 411.972L113.352 409.2ZM107.88 393.444C107.885 391.757 108.389 390.109 109.33 388.709C110.271 387.309 111.606 386.219 113.166 385.578C114.726 384.936 116.442 384.771 118.096 385.104C119.749 385.437 121.267 386.252 122.458 387.448C123.648 388.643 124.457 390.165 124.783 391.82C125.109 393.475 124.937 395.19 124.289 396.747C123.64 398.304 122.545 399.635 121.141 400.57C119.737 401.505 118.087 402.002 116.4 402C114.136 401.994 111.967 401.089 110.37 399.485C108.772 397.881 107.877 395.708 107.88 393.444Z" fill="#BAB5B5"/>
<path d="M506.628 90.084C507.021 90.3169 507.342 90.6547 507.554 91.0595C507.766 91.4644 507.861 91.9202 507.828 92.376C507.828 92.64 507.828 92.892 507.828 93.144C507.828 93.396 507.828 93.66 507.828 93.924C507.859 94.3796 507.764 94.835 507.552 95.2395C507.34 95.6441 507.02 95.9821 506.628 96.216L503.856 97.812L509.076 106.8L511.836 105.204C512.235 104.976 512.69 104.862 513.15 104.877C513.61 104.892 514.056 105.034 514.44 105.288C514.873 105.574 515.321 105.834 515.784 106.068C516.206 106.269 516.563 106.585 516.814 106.98C517.064 107.375 517.198 107.832 517.2 108.3V111.492H527.616V108.3C527.62 107.844 527.75 107.397 527.992 107.01C528.233 106.622 528.576 106.309 528.984 106.104C529.447 105.87 529.895 105.61 530.328 105.324C530.712 105.07 531.158 104.928 531.618 104.913C532.078 104.898 532.533 105.012 532.932 105.24L535.692 106.836L540.9 97.812L538.116 96.204C537.724 95.9701 537.404 95.6321 537.192 95.2275C536.98 94.823 536.885 94.3676 536.916 93.912C536.916 93.66 536.916 93.408 536.916 93.144C536.916 92.88 536.916 92.64 536.916 92.376C536.883 91.9202 536.978 91.4644 537.19 91.0595C537.402 90.6547 537.723 90.3169 538.116 90.084L540.888 88.488L535.68 79.464L532.92 81.06C532.522 81.287 532.068 81.3984 531.61 81.3814C531.152 81.3644 530.708 81.2199 530.328 80.964C529.896 80.688 529.44 80.424 528.972 80.184C528.558 79.986 528.208 79.6769 527.96 79.2912C527.712 78.9055 527.576 78.4584 527.568 78V74.796H517.2V78C517.197 78.4567 517.068 78.9036 516.826 79.2913C516.585 79.6789 516.241 79.9921 515.832 80.196C515.364 80.436 514.908 80.7 514.476 80.976C514.096 81.2319 513.652 81.3764 513.194 81.3934C512.736 81.4103 512.282 81.299 511.884 81.072L509.124 79.476L503.916 88.5L506.628 90.084ZM522.36 84.612C524.047 84.612 525.697 85.1124 527.1 86.0499C528.503 86.9874 529.597 88.3199 530.243 89.879C530.888 91.438 531.057 93.1535 530.728 94.8085C530.399 96.4636 529.586 97.9838 528.393 99.1771C527.2 100.37 525.68 101.183 524.025 101.512C522.369 101.841 520.654 101.672 519.095 101.027C517.536 100.381 516.203 99.2872 515.266 97.8841C514.328 96.4811 513.828 94.8315 513.828 93.144C513.831 90.8822 514.731 88.7139 516.33 87.1145C517.93 85.5151 520.098 84.6152 522.36 84.612V84.612Z" fill="#BAB5B5"/>
<path d="M488.4 161.1C487.194 169.227 483.679 176.836 478.274 183.024C472.868 189.211 465.8 193.716 457.909 196.004C450.018 198.291 441.636 198.265 433.76 195.927C425.883 193.59 418.844 189.04 413.478 182.818C408.112 176.596 404.646 168.965 403.491 160.83C402.336 152.696 403.541 144.401 406.963 136.932C410.385 129.463 415.88 123.133 422.794 118.696C429.709 114.258 437.752 111.899 445.968 111.9V154.8L488.4 161.1Z" fill="#BAB5B5"/>
<path d="M497.532 146.076C497.535 148.181 497.378 150.283 497.064 152.364L454.644 146.076V103.2C460.277 103.195 465.857 104.301 471.062 106.455C476.268 108.609 480.998 111.768 484.981 115.751C488.964 119.734 492.123 124.464 494.277 129.67C496.431 134.875 497.537 140.455 497.532 146.088V146.076Z" fill="#DBDBDB"/>
<path d="M88.956 231.6V266.964L66 293.856C60.5018 289.161 56.575 282.893 54.7486 275.897C52.9223 268.901 53.2843 261.513 55.7857 254.729C58.2872 247.946 62.8079 242.091 68.7388 237.956C74.6697 233.82 81.7256 231.602 88.956 231.6V231.6Z" fill="#BAB5B5"/>
<path d="M131.52 270.564C131.518 277.32 129.582 283.934 125.939 289.624C122.296 295.314 117.099 299.841 110.964 302.67C104.829 305.499 98.012 306.511 91.3194 305.587C84.6269 304.663 78.3391 301.842 73.2 297.456L96.144 270.564V235.2C100.789 235.197 105.389 236.109 109.681 237.885C113.973 239.662 117.873 242.266 121.157 245.551C124.442 248.835 127.046 252.735 128.823 257.027C130.599 261.319 131.511 265.919 131.508 270.564H131.52Z" fill="#BAB5B5"/>
<path d="M131.52 270.564C131.518 277.32 129.582 283.934 125.939 289.624C122.296 295.314 117.099 299.841 110.964 302.67C104.829 305.499 98.012 306.511 91.3194 305.587C84.6269 304.663 78.3391 301.842 73.2 297.456L96.144 270.564V235.2C100.789 235.197 105.389 236.109 109.681 237.885C113.973 239.662 117.873 242.266 121.157 245.551C124.442 248.835 127.046 252.735 128.823 257.027C130.599 261.319 131.511 265.919 131.508 270.564H131.52Z" fill="#DBDBDB"/>
<path d="M73.812 204.108H72.612V249.72H73.812V204.108Z" fill="#C7C7C7"/>
<path d="M73.2 204.708C72.4471 204.708 71.7112 204.485 71.0854 204.066C70.4596 203.648 69.972 203.053 69.6844 202.357C69.3969 201.661 69.3223 200.896 69.47 200.158C69.6178 199.419 69.9812 198.742 70.5144 198.21C71.0476 197.678 71.7266 197.317 72.4653 197.172C73.204 197.026 73.9692 197.103 74.6641 197.393C75.3589 197.683 75.9522 198.172 76.3688 198.799C76.7853 199.427 77.0064 200.163 77.004 200.916C77.0008 201.923 76.5987 202.887 75.8856 203.598C75.1726 204.309 74.2068 204.708 73.2 204.708V204.708ZM73.2 198.312C72.685 198.312 72.1815 198.465 71.7533 198.751C71.3251 199.037 70.9913 199.444 70.7942 199.92C70.5971 200.395 70.5456 200.919 70.646 201.424C70.7465 201.929 70.9945 202.393 71.3587 202.757C71.7229 203.122 72.1869 203.37 72.692 203.47C73.1971 203.571 73.7207 203.519 74.1965 203.322C74.6723 203.125 75.079 202.791 75.3652 202.363C75.6513 201.935 75.804 201.431 75.804 200.916C75.804 200.225 75.5297 199.563 75.0413 199.075C74.553 198.586 73.8906 198.312 73.2 198.312V198.312Z" fill="#C7C7C7"/>
<path d="M118.344 197.712H82.908V199.308H118.344V197.712Z" fill="#C7C7C7"/>
<path d="M102.96 200.916H82.908V202.512H102.96V200.916Z" fill="#C7C7C7"/>
<path d="M496.164 170.04H450.552V171.24H496.164V170.04Z" fill="#C7C7C7"/>
<path d="M499.368 174.444C498.615 174.446 497.879 174.225 497.251 173.809C496.624 173.392 496.135 172.799 495.845 172.104C495.555 171.409 495.478 170.644 495.624 169.905C495.769 169.167 496.13 168.488 496.662 167.954C497.193 167.421 497.871 167.058 498.609 166.91C499.348 166.762 500.113 166.837 500.809 167.124C501.505 167.412 502.1 167.9 502.518 168.525C502.937 169.151 503.16 169.887 503.16 170.64C503.162 171.139 503.065 171.633 502.875 172.095C502.685 172.556 502.406 172.976 502.054 173.329C501.701 173.683 501.283 173.963 500.822 174.154C500.361 174.346 499.867 174.444 499.368 174.444V174.444ZM499.368 168.048C498.852 168.046 498.347 168.197 497.917 168.482C497.487 168.767 497.151 169.174 496.953 169.65C496.754 170.126 496.701 170.651 496.801 171.157C496.902 171.663 497.15 172.128 497.515 172.493C497.88 172.858 498.345 173.106 498.851 173.207C499.357 173.307 499.882 173.254 500.358 173.055C500.834 172.857 501.241 172.521 501.526 172.091C501.811 171.661 501.962 171.156 501.96 170.64C501.966 170.296 501.904 169.953 501.777 169.633C501.649 169.313 501.459 169.022 501.218 168.776C500.977 168.53 500.689 168.335 500.371 168.202C500.054 168.069 499.712 168 499.368 168V168.048Z" fill="#C7C7C7"/>
<path d="M546.396 168.24H510.96V169.836H546.396V168.24Z" fill="#C7C7C7"/>
<path d="M531.012 171.444H510.96V173.04H531.012V171.444Z" fill="#C7C7C7"/>
<path d="M252.924 158.4H88.02V51.072H252.924V158.4ZM89.22 157.2H251.724V52.272H89.22V157.2Z" fill="#BAB5B5"/>
<path d="M252.924 66.384H88.02V51.072H252.924V66.384ZM89.22 65.184H251.724V52.272H89.22V65.184Z" fill="#BAB5B5"/>
<path d="M101.856 58.8001C101.856 59.5121 101.645 60.2081 101.249 60.8001C100.854 61.3921 100.291 61.8536 99.6337 62.126C98.9759 62.3985 98.252 62.4698 97.5537 62.3309C96.8554 62.192 96.2139 61.8491 95.7104 61.3457C95.207 60.8422 94.8641 60.2007 94.7252 59.5024C94.5863 58.8041 94.6576 58.0802 94.93 57.4224C95.2025 56.7646 95.6639 56.2024 96.256 55.8068C96.848 55.4112 97.544 55.2001 98.256 55.2001C99.2108 55.2001 100.126 55.5794 100.802 56.2545C101.477 56.9296 101.856 57.8453 101.856 58.8001Z" fill="#C7C7C7"/>
<path d="M116.4 58.8001C116.4 59.5121 116.189 60.2081 115.793 60.8001C115.398 61.3921 114.835 61.8536 114.178 62.126C113.52 62.3985 112.796 62.4698 112.098 62.3309C111.399 62.192 110.758 61.8491 110.254 61.3457C109.751 60.8422 109.408 60.2007 109.269 59.5024C109.13 58.8041 109.202 58.0802 109.474 57.4224C109.747 56.7646 110.208 56.2024 110.8 55.8068C111.392 55.4112 112.088 55.2001 112.8 55.2001C113.755 55.2001 114.67 55.5794 115.346 56.2545C116.021 56.9296 116.4 57.8453 116.4 58.8001V58.8001Z" fill="#BAB5B5"/>
<path d="M130.8 58.8001C130.8 59.5121 130.589 60.2081 130.193 60.8001C129.798 61.3921 129.235 61.8536 128.578 62.126C127.92 62.3985 127.196 62.4698 126.498 62.3309C125.799 62.192 125.158 61.8491 124.654 61.3457C124.151 60.8422 123.808 60.2007 123.669 59.5024C123.53 58.8041 123.602 58.0802 123.874 57.4224C124.147 56.7646 124.608 56.2024 125.2 55.8068C125.792 55.4112 126.488 55.2001 127.2 55.2001C128.155 55.2001 129.07 55.5794 129.746 56.2545C130.421 56.9296 130.8 57.8453 130.8 58.8001V58.8001Z" fill="#015D09"/>
<path d="M35.652 508.176L101.736 507.888L167.82 507.78L300 507.576L432.18 507.78L498.264 507.876L564.348 508.176L498.264 508.464L432.18 508.572L300 508.776L167.82 508.572L101.736 508.464L35.652 508.176Z" fill="#263238"/>
<path d="M479.34 83.9519H120.672V485.664H479.34V83.9519Z" fill="#37474F"/>
<path d="M474.024 90.312H126.9V346.44H474.024V90.312Z" fill="#263238"/>
<path d="M371.856 113.46H229.056V116.628H371.856V113.46Z" fill="#455A64"/>
<path d="M347.448 120.06H253.476V123.228H347.448V120.06Z" fill="#455A64"/>
<path d="M349.524 300.588C346.039 302.505 342.161 303.599 338.188 303.787C334.215 303.975 330.252 303.251 326.601 301.672C322.951 300.092 319.71 297.698 317.127 294.673C314.544 291.649 312.688 288.073 311.699 284.22C310.711 280.368 310.617 276.34 311.424 272.445C312.232 268.55 313.92 264.892 316.359 261.75C318.798 258.608 321.924 256.066 325.496 254.318C329.069 252.569 332.994 251.662 336.972 251.664V277.728L349.524 300.588Z" fill="#A7A7A7"/>
<path d="M352.428 256.8L336.972 277.776V251.664C342.543 251.665 347.964 253.466 352.428 256.8Z" fill="#015D09"/>
<path d="M363.036 277.728C363.05 284.282 360.58 290.598 356.124 295.404L336.924 277.728L352.428 256.8C355.713 259.212 358.385 262.364 360.228 265.999C362.071 269.634 363.032 273.652 363.036 277.728V277.728Z" fill="#A6A6A6"/>
<path d="M365.496 307.5C363.594 309.572 361.369 311.322 358.908 312.684L346.356 289.884L365.496 307.5Z" fill="#455A64"/>
<path d="M266.604 252.66L259.404 277.728V303.804C252.587 303.658 246.098 300.847 241.328 295.974C236.558 291.101 233.887 284.553 233.887 277.734C233.887 270.915 236.558 264.368 241.328 259.494C246.098 254.621 252.587 251.81 259.404 251.664C261.838 251.663 264.261 251.998 266.604 252.66V252.66Z" fill="#A6A6A6"/>
<path d="M274.884 298.728C270.418 302.032 265.007 303.812 259.452 303.804V277.728L274.884 298.728Z" fill="#A7A7A7"/>
<path d="M285.516 277.728C285.52 281.818 284.559 285.851 282.712 289.5C280.865 293.149 278.183 296.31 274.884 298.728L259.452 277.728L279.72 261.348C283.477 265.979 285.524 271.764 285.516 277.728Z" fill="#455A64"/>
<path d="M285.516 252.9L265.2 269.292L272.4 244.212C277.561 245.692 282.14 248.726 285.516 252.9V252.9Z" fill="#015D09"/>
<path d="M181.92 251.664V277.728L164.4 297C160.511 293.459 157.784 288.824 156.578 283.705C155.372 278.585 155.743 273.221 157.642 268.316C159.542 263.411 162.88 259.196 167.22 256.224C171.559 253.252 176.696 251.662 181.956 251.664H181.92Z" fill="#455A64"/>
<path d="M200.592 259.524L181.92 277.728V251.664C185.4 251.66 188.845 252.353 192.052 253.703C195.259 255.053 198.163 257.032 200.592 259.524V259.524Z" fill="#015D09"/>
<path d="M207.996 277.728C207.999 281.598 207.139 285.42 205.478 288.916C203.817 292.412 201.398 295.493 198.396 297.936L181.92 277.728L200.592 259.524C205.342 264.393 207.999 270.926 207.996 277.728V277.728Z" fill="#A6A6A6"/>
<path d="M198.396 304.8C193.551 308.746 187.45 310.82 181.204 310.646C174.958 310.472 168.982 308.061 164.364 303.852L181.92 284.592L198.396 304.8Z" fill="#A7A7A7"/>
<path d="M414.504 251.664V303.804C407.687 303.658 401.198 300.847 396.428 295.974C391.658 291.101 388.987 284.553 388.987 277.734C388.987 270.915 391.658 264.368 396.428 259.494C401.198 254.621 407.687 251.81 414.504 251.664V251.664Z" fill="#015D09"/>
<path d="M421.08 252.504L414.504 277.704V251.664C416.723 251.667 418.932 251.949 421.08 252.504Z" fill="#263238"/>
<path d="M445.056 276.228C445.065 279.513 444.454 282.77 443.256 285.828L418.992 276.228L425.58 251.028C431.156 252.483 436.093 255.745 439.617 260.305C443.141 264.865 445.054 270.465 445.056 276.228V276.228Z" fill="#455A64"/>
<path d="M438.756 287.292C436.836 292.159 433.496 296.336 429.171 299.28C424.846 302.225 419.736 303.801 414.504 303.804V277.728L438.756 287.292Z" fill="#A6A6A6"/>
<path d="M200.34 319.14H169.908V322.068H200.34V319.14Z" fill="#455A64"/>
<path d="M190.104 325.236H169.908V328.164H190.104V325.236Z" fill="#455A64"/>
<path d="M164.964 319.092H155.856V328.2H164.964V319.092Z" fill="#455A64"/>
<path d="M277.86 319.14H247.428V322.068H277.86V319.14Z" fill="#455A64"/>
<path d="M267.624 325.236H247.428V328.164H267.624V325.236Z" fill="#455A64"/>
<path d="M242.496 319.092H233.388V328.2H242.496V319.092Z" fill="#A6A6A6"/>
<path d="M355.392 319.14H324.96V322.068H355.392V319.14Z" fill="#455A64"/>
<path d="M345.156 325.236H324.96V328.164H345.156V325.236Z" fill="#455A64"/>
<path d="M320.016 319.092H310.908V328.2H320.016V319.092Z" fill="#A7A7A7"/>
<path d="M432.912 319.14H402.48V322.068H432.912V319.14Z" fill="#455A64"/>
<path d="M422.676 325.236H402.48V328.164H422.676V325.236Z" fill="#455A64"/>
<path d="M397.548 319.092H388.44V328.2H397.548V319.092Z" fill="#015D09"/>
<path d="M155.856 139.056L228.156 138.876C252.264 138.876 276.36 138.876 300.456 139.056C276.36 139.224 252.264 139.176 228.156 139.248L155.856 139.056Z" fill="#455A64"/>
<path d="M155.856 144.804L228.156 144.624C252.264 144.624 276.36 144.624 300.456 144.804C276.36 144.972 252.264 144.924 228.156 144.996L155.856 144.804Z" fill="#455A64"/>
<path d="M155.856 150.552L228.156 150.36C252.264 150.432 276.36 150.36 300.456 150.552C276.36 150.72 252.264 150.672 228.156 150.744L155.856 150.552Z" fill="#455A64"/>
<path d="M155.856 156.3L228.156 156.108C252.264 156.18 276.36 156.108 300.456 156.3C276.36 156.456 252.264 156.42 228.156 156.48L155.856 156.3Z" fill="#455A64"/>
<path d="M155.856 162L228.156 161.808C252.264 161.88 276.36 161.808 300.456 162C276.36 162.156 252.264 162.12 228.156 162.18L155.856 162Z" fill="#455A64"/>
<path d="M155.856 167.796L228.156 167.604C252.264 167.676 276.36 167.604 300.456 167.796C276.36 167.952 252.264 167.916 228.156 167.976L155.856 167.796Z" fill="#455A64"/>
<path d="M155.856 173.532L228.156 173.352C252.264 173.352 276.36 173.352 300.456 173.532C276.36 173.7 252.264 173.664 228.156 173.724L155.856 173.532Z" fill="#455A64"/>
<path d="M155.856 179.28L228.156 179.1C252.264 179.16 276.36 179.1 300.456 179.28C276.36 179.448 252.264 179.4 228.156 179.472L155.856 179.28Z" fill="#455A64"/>
<path d="M155.856 185.028L228.156 184.848C252.264 184.908 276.36 184.848 300.456 185.028C276.36 185.196 252.264 185.148 228.156 185.22L155.856 185.028Z" fill="#455A64"/>
<path d="M155.856 190.8L228.156 190.608C252.264 190.68 276.36 190.608 300.456 190.8C276.36 190.956 252.264 190.92 228.156 190.992L155.856 190.8Z" fill="#455A64"/>
<path d="M155.856 196.524L228.156 196.332C252.264 196.404 276.36 196.332 300.456 196.524C276.36 196.68 252.264 196.644 228.156 196.704L155.856 196.524Z" fill="#455A64"/>
<path d="M155.856 202.272L228.156 202.08C252.264 202.152 276.36 202.08 300.456 202.272C276.36 202.428 252.264 202.392 228.156 202.452L155.856 202.272Z" fill="#455A64"/>
<path d="M155.856 208.02L228.156 207.828C252.264 207.888 276.36 207.828 300.456 208.02C276.36 208.176 252.264 208.14 228.156 208.2L155.856 208.02Z" fill="#455A64"/>
<path d="M155.856 213.756L228.156 213.576C252.264 213.636 276.36 213.576 300.456 213.756C276.36 213.924 252.264 213.876 228.156 213.948L155.856 213.756Z" fill="#455A64"/>
<path d="M155.856 219.504L228.156 219.324C252.264 219.324 276.36 219.324 300.456 219.504C276.36 219.672 252.264 219.624 228.156 219.696L155.856 219.504Z" fill="#455A64"/>
<path d="M182.112 179.28H171.144V226.2H182.112V179.28Z" fill="#015D09"/>
<path d="M202.464 159.432H191.496V226.2H202.464V159.432Z" fill="#A7A7A7"/>
<path d="M222.804 173.736H211.836V226.2H222.804V173.736Z" fill="#A6A6A6"/>
<path d="M243.144 156.3H232.176V226.212H243.144V156.3Z" fill="#015D09"/>
<path d="M263.484 165.672H252.516V226.2H263.484V165.672Z" fill="#A7A7A7"/>
<path d="M283.824 199.968H272.856V226.2H283.824V199.968Z" fill="#A6A6A6"/>
<path d="M159.78 135.024L160.08 157.824L160.284 180.624C160.428 195.828 160.464 211.02 160.488 226.224L159.78 225.54H194.952L230.124 225.624L265.284 225.852L300.456 226.26L265.284 226.68L230.124 226.908L194.952 226.992H159.78H159.072V226.296C159.072 211.104 159.132 195.912 159.276 180.696L159.48 157.896L159.78 135.024Z" fill="#455A64"/>
<path d="M182.112 231.024H171.144V231.996H182.112V231.024Z" fill="#455A64"/>
<path d="M202.464 231.024H191.496V231.996H202.464V231.024Z" fill="#455A64"/>
<path d="M222.804 231.024H211.836V231.996H222.804V231.024Z" fill="#455A64"/>
<path d="M243.144 231.024H232.176V231.996H243.144V231.024Z" fill="#455A64"/>
<path d="M263.484 231.024H252.516V231.996H263.484V231.024Z" fill="#455A64"/>
<path d="M283.824 231.024H272.856V231.996H283.824V231.024Z" fill="#455A64"/>
<path d="M381.6 174.192C381.596 180.124 379.848 185.924 376.573 190.87C373.298 195.816 368.64 199.689 363.18 202.008L351.372 174.192H381.6Z" fill="#015D09"/>
<path d="M347.52 172.116L359.328 199.944C359.328 199.944 359.328 199.944 359.268 199.944C358.344 200.316 357.42 200.664 356.496 200.952C351.979 202.358 347.195 202.684 342.529 201.902C337.863 201.12 333.446 199.252 329.635 196.449C325.823 193.647 322.723 189.988 320.586 185.767C318.448 181.547 317.332 176.883 317.328 172.152C317.335 169.109 317.792 166.085 318.684 163.176C320.136 158.503 322.702 154.254 326.162 150.794C329.622 147.334 333.871 144.768 338.544 143.316C344.406 141.498 350.682 141.498 356.544 143.316C362.696 145.218 368.078 149.04 371.9 154.223C375.722 159.406 377.784 165.676 377.784 172.116H347.52Z" fill="#015D09"/>
<path d="M347.52 172.116L359.328 199.944C359.328 199.944 359.328 199.944 359.268 199.944C358.344 200.316 357.42 200.664 356.496 200.952C351.979 202.358 347.195 202.684 342.529 201.902C337.863 201.12 333.446 199.252 329.635 196.449C325.823 193.647 322.723 189.988 320.586 185.767C318.448 181.547 317.332 176.883 317.328 172.152C317.346 164.936 319.946 157.964 324.657 152.499C329.369 147.033 335.88 143.434 343.015 142.352C350.15 141.271 357.436 142.778 363.555 146.602C369.675 150.426 374.224 156.313 376.38 163.2C377.278 166.107 377.735 169.133 377.736 172.176L347.52 172.116Z" fill="#A6A6A6"/>
<path d="M347.532 172.128L327.84 195.024C324.001 191.723 321.053 187.509 319.268 182.771C317.482 178.033 316.917 172.922 317.623 167.908C318.33 162.894 320.286 158.138 323.311 154.077C326.336 150.017 330.333 146.782 334.935 144.67C339.537 142.558 344.596 141.637 349.647 141.992C354.698 142.347 359.579 143.965 363.841 146.7C368.103 149.434 371.609 153.195 374.037 157.639C376.465 162.082 377.737 167.064 377.736 172.128H347.532Z" fill="#455A64"/>
<path d="M397.236 212.148H374.412L346.152 183.888L346.56 183.48L374.652 211.572H397.236V212.148Z" fill="#263238"/>
<path d="M347.94 182.1H344.76V185.28H347.94V182.1Z" fill="#263238"/>
<path d="M397.236 190.284H371.52L359.304 178.08L359.712 177.672L371.76 189.708H397.236V190.284Z" fill="#263238"/>
<path d="M361.104 176.28H357.924V179.46H361.104V176.28Z" fill="#263238"/>
<path d="M397.236 168.648H358.344V169.236H397.236V168.648Z" fill="#263238"/>
<path d="M359.52 167.352H356.34V170.532H359.52V167.352Z" fill="#263238"/>
<path d="M434.328 165.756H406.08V168.384H434.328V165.756Z" fill="#455A64"/>
<path d="M442.74 171.24H406.08V173.868H442.74V171.24Z" fill="#455A64"/>
<path d="M425.676 176.724H406.08V179.352H425.676V176.724Z" fill="#455A64"/>
<path d="M400.416 165.756H394.044V172.128H400.416V165.756Z" fill="#455A64"/>
<path d="M437.772 186.984H406.08V189.612H437.772V186.984Z" fill="#455A64"/>
<path d="M432.504 192.48H406.08V195.108H432.504V192.48Z" fill="#455A64"/>
<path d="M442.74 197.964H406.08V200.592H442.74V197.964Z" fill="#455A64"/>
<path d="M400.416 186.984H394.044V193.356H400.416V186.984Z" fill="#015D09"/>
<path d="M437.772 208.224H406.08V210.852H437.772V208.224Z" fill="#455A64"/>
<path d="M432.504 213.708H406.08V216.336H432.504V213.708Z" fill="#455A64"/>
<path d="M442.74 219.204H406.08V221.832H442.74V219.204Z" fill="#455A64"/>
<path d="M400.416 208.224H394.044V214.596H400.416V208.224Z" fill="#A6A6A6"/>
<path d="M287.004 353.148H126.9V478.8H287.004V353.148Z" fill="#263238"/>
<path d="M264.012 364.104H149.868V366.636H264.012V364.104Z" fill="#455A64"/>
<path d="M244.5 369.384H169.392V371.916H244.5V369.384Z" fill="#455A64"/>
<path d="M162.42 461.448H156.024V467.844H162.42V461.448Z" fill="#015D09"/>
<path d="M236.952 461.448H166.872V463.344H236.952V461.448Z" fill="#455A64"/>
<path d="M212.148 465.96H166.872V467.856H212.148V465.96Z" fill="#455A64"/>
<path d="M151.788 397.2C170.172 397.08 188.556 397.116 206.988 397.068C225.42 397.02 243.756 397.068 262.188 397.2C243.804 397.308 225.42 397.284 206.988 397.332C188.556 397.38 170.172 397.284 151.788 397.2Z" fill="#455A64"/>
<path d="M151.788 408.072C170.172 407.952 188.556 407.988 206.988 407.94C225.42 407.892 243.756 407.94 262.188 408.072C243.804 408.192 225.42 408.156 206.988 408.204C188.556 408.252 170.172 408.18 151.788 408.072Z" fill="#455A64"/>
<path d="M151.788 418.968C170.172 418.86 188.556 418.884 206.988 418.836C225.42 418.788 243.756 418.836 262.188 418.968C243.804 419.088 225.42 419.052 206.988 419.1C188.556 419.148 170.172 419.088 151.788 418.968Z" fill="#455A64"/>
<path d="M151.788 429.864C170.172 429.756 188.556 429.78 206.988 429.732C225.42 429.684 243.756 429.732 262.188 429.864C243.804 429.984 225.42 429.96 206.988 430.008C188.556 430.056 170.172 429.984 151.788 429.864Z" fill="#455A64"/>
<path d="M151.788 440.772C170.172 440.652 188.556 440.688 206.988 440.64C225.42 440.592 243.756 440.64 262.188 440.772C243.804 440.88 225.42 440.856 206.988 440.904C188.556 440.952 170.172 440.88 151.788 440.772Z" fill="#455A64"/>
<path d="M174 390.084C174.168 400.272 174.12 410.484 174.192 420.636C174.264 430.788 174.192 441.036 174 451.188C173.832 441 173.88 430.788 173.808 420.636C173.736 410.484 173.844 400.272 174 390.084Z" fill="#455A64"/>
<path d="M193.08 390.084C193.236 400.272 193.2 410.484 193.26 420.636C193.32 430.788 193.26 441.036 193.08 451.188C192.912 441 192.948 430.788 192.888 420.636C192.828 410.484 192.912 400.272 193.08 390.084Z" fill="#455A64"/>
<path d="M212.148 390.084C212.316 400.272 212.268 410.484 212.34 420.636C212.412 430.788 212.34 441.036 212.148 451.188C211.992 441 212.028 430.788 211.968 420.636C211.908 410.484 211.992 400.272 212.148 390.084Z" fill="#455A64"/>
<path d="M231.228 390.084C231.384 400.272 231.348 410.484 231.408 420.636C231.468 430.788 231.408 441.036 231.228 451.188C231.06 441 231.108 430.788 231.036 420.636C230.964 410.484 231.06 400.272 231.228 390.084Z" fill="#455A64"/>
<path d="M250.296 390.084C250.464 400.272 250.416 410.484 250.488 420.636C250.56 430.788 250.488 441.036 250.296 451.188C250.14 441 250.176 430.788 250.116 420.636C250.056 410.484 250.14 400.272 250.296 390.084Z" fill="#455A64"/>
<path opacity="0.5" d="M154.572 432.864C157.932 432.864 159.948 421.788 164.712 421.788C169.476 421.788 169.98 429.864 174 429.864C178.02 429.864 177.888 415.68 183.288 415.68C188.688 415.68 187.428 421.44 193.08 421.44C198.732 421.44 196.584 408.072 202.488 408.072C208.392 408.072 206.004 426.492 212.088 426.492C215.976 426.492 217.488 420.636 222.132 420.636C225.204 420.636 227.016 423.564 231.036 423.564C235.056 423.564 235.932 412.32 240.96 412.32C245.988 412.32 246.552 418.968 250.236 418.968C253.92 418.968 255.264 408.072 262.032 408.072V451.2H154.512L154.572 432.864Z" fill="#015D09"/>
<path d="M154.572 433.392V432.336C155.592 432.336 156.972 429.744 158.016 427.86C159.78 424.608 161.616 421.26 164.712 421.26C167.808 421.26 169.188 423.72 170.496 425.88C171.516 427.584 172.572 429.336 174 429.336C175.428 429.336 176.34 425.928 177.144 423.444C178.44 419.364 179.784 415.152 183.288 415.152C186.408 415.152 187.644 416.808 188.724 418.26C189.804 419.712 190.68 420.9 193.08 420.9C195.24 420.9 196.092 417.78 196.92 414.768C197.88 411.168 198.888 407.568 202.488 407.568C206.088 407.568 206.976 412.188 207.948 417.084C208.728 421.044 209.7 425.976 212.148 425.976C213.612 425.976 214.812 424.776 216.072 423.48C217.62 421.908 219.372 420.132 222.192 420.132C223.725 420.219 225.208 420.712 226.488 421.56C227.862 422.464 229.453 422.982 231.096 423.06C232.488 423.06 233.76 420.384 234.78 418.26C236.28 415.104 237.828 411.84 241.02 411.84C244.212 411.84 245.736 413.964 247.104 415.836C248.112 417.204 249.06 418.5 250.296 418.5C251.532 418.5 252.564 416.424 253.62 414.6C255.432 411.48 257.688 407.604 262.092 407.604V408.66C258.708 408.66 256.752 412.032 255.024 415.008C253.548 417.552 252.372 419.568 250.296 419.568C248.22 419.568 246.984 417.996 245.76 416.328C244.536 414.66 243.252 412.908 240.96 412.908C238.668 412.908 237.42 415.932 236.16 418.608C234.744 421.584 233.532 424.152 231.048 424.152C229.108 424.063 227.228 423.458 225.6 422.4C224.601 421.72 223.444 421.306 222.24 421.2C220.212 421.2 218.76 422.676 217.368 424.092C215.976 425.508 214.452 427.056 212.196 427.056C208.44 427.056 207.492 422.256 206.496 417.24C205.74 413.412 204.792 408.636 202.536 408.636C200.28 408.636 199.26 412.02 198.444 414.996C197.46 418.596 196.536 422.004 193.128 422.004C191.975 422.04 190.834 421.759 189.829 421.192C188.824 420.625 187.993 419.794 187.428 418.788C186.42 417.432 185.544 416.244 183.336 416.244C181.128 416.244 179.736 420.384 178.656 423.708C177.456 427.464 176.508 430.44 174.048 430.44C171.588 430.44 170.448 428.448 169.152 426.336C167.856 424.224 166.752 422.364 164.76 422.364C162.768 422.364 160.908 425.64 159.48 428.268C157.86 431.124 156.624 433.392 154.572 433.392Z" fill="#015D09"/>
<path d="M154.572 390.744C154.692 400.824 154.8 410.892 154.812 420.972L154.92 451.2L154.572 450.948L208.332 451.02H235.212L262.092 451.152L235.212 451.284H208.332L154.572 451.356H154.212V451.2L154.332 420.984C154.344 410.892 154.452 400.8 154.572 390.744Z" fill="#455A64"/>
<path d="M474.024 353.148H293.664V478.8H474.024V353.148Z" fill="#263238"/>
<path d="M440.916 364.104H326.772V366.636H440.916V364.104Z" fill="#455A64"/>
<path d="M421.392 369.384H346.284V371.916H421.392V369.384Z" fill="#455A64"/>
<path d="M321.336 434.4H313.332V442.404H321.336V434.4Z" fill="#015D09"/>
<path d="M370.02 434.4H326.904V436.764H370.02V434.4Z" fill="#455A64"/>
<path d="M383.556 440.04H326.904V442.404H383.556V440.04Z" fill="#455A64"/>
<path d="M321.336 449.568H313.332V457.572H321.336V449.568Z" fill="#455A64"/>
<path d="M359.664 449.568H326.904V451.932H359.664V449.568Z" fill="#455A64"/>
<path d="M383.556 455.208H326.904V457.572H383.556V455.208Z" fill="#455A64"/>
<path d="M339.036 403.32C339.034 406.707 337.8 409.978 335.565 412.523C333.329 415.068 330.244 416.713 326.885 417.151C323.526 417.589 320.122 416.791 317.309 414.904C314.495 413.018 312.464 410.173 311.593 406.899C310.722 403.626 311.072 400.147 312.577 397.113C314.081 394.078 316.639 391.694 319.771 390.405C322.904 389.117 326.399 389.012 329.603 390.109C332.808 391.207 335.503 393.433 337.188 396.372C338.4 398.487 339.037 400.882 339.036 403.32Z" fill="#455A64"/>
<path d="M337.2 396.372L325.08 403.32V389.352C327.539 389.353 329.955 390.002 332.083 391.235C334.21 392.467 335.976 394.239 337.2 396.372V396.372Z" fill="#015D09"/>
<path d="M334.591 404.833C335.443 399.566 331.865 394.606 326.598 393.754C321.331 392.902 316.371 396.481 315.519 401.747C314.667 407.014 318.246 411.974 323.512 412.826C328.779 413.678 333.739 410.1 334.591 404.833Z" fill="#A7A7A7"/>
<path d="M329.1 401.172H321.06V402.312H329.1V401.172Z" fill="#263238"/>
<path d="M331.092 404.328H319.068V405.468H331.092V404.328Z" fill="#A6A6A6"/>
<path d="M378.108 403.32C378.111 404.003 378.059 404.685 377.952 405.36C377.415 408.907 375.524 412.107 372.676 414.289C369.829 416.47 366.246 417.463 362.682 417.057C359.117 416.652 355.849 414.88 353.564 412.115C351.279 409.35 350.155 405.806 350.428 402.229C350.702 398.652 352.352 395.321 355.031 392.935C357.71 390.55 361.209 389.296 364.794 389.437C368.378 389.578 371.768 391.104 374.251 393.693C376.734 396.282 378.117 399.733 378.108 403.32Z" fill="#455A64"/>
<path d="M378.108 403.32C378.111 404.003 378.059 404.685 377.952 405.36L364.14 403.32V389.352C365.975 389.35 367.792 389.711 369.487 390.412C371.183 391.113 372.723 392.142 374.02 393.44C375.318 394.737 376.347 396.277 377.048 397.973C377.749 399.668 378.11 401.485 378.108 403.32V403.32Z" fill="#015D09"/>
<path d="M373.562 405.572C374.784 400.379 371.564 395.178 366.371 393.957C361.178 392.735 355.977 395.954 354.755 401.147C353.533 406.341 356.753 411.541 361.946 412.763C367.139 413.985 372.34 410.765 373.562 405.572Z" fill="#A7A7A7"/>
<path d="M368.16 401.172H360.12V402.312H368.16V401.172Z" fill="#263238"/>
<path d="M370.152 404.328H358.128V405.468H370.152V404.328Z" fill="#A6A6A6"/>
<path d="M417.444 403.32C417.442 406.707 416.208 409.978 413.973 412.523C411.737 415.068 408.652 416.713 405.293 417.151C401.934 417.589 398.53 416.791 395.717 414.904C392.903 413.018 390.872 410.173 390.001 406.899C389.13 403.626 389.48 400.147 390.985 397.113C392.489 394.078 395.047 391.694 398.179 390.405C401.312 389.117 404.807 389.012 408.011 390.109C411.216 391.207 413.911 393.433 415.596 396.372C416.808 398.487 417.445 400.882 417.444 403.32Z" fill="#455A64"/>
<path d="M417.444 403.32C417.453 406.151 416.602 408.917 415.003 411.253C413.404 413.589 411.134 415.384 408.492 416.4L403.488 403.368V389.352C405.322 389.352 407.138 389.713 408.832 390.416C410.526 391.118 412.065 392.147 413.361 393.444C414.657 394.741 415.684 396.281 416.385 397.976C417.086 399.67 417.446 401.486 417.444 403.32V403.32Z" fill="#015D09"/>
<path d="M413.136 403.32C413.124 405.216 412.551 407.066 411.489 408.637C410.427 410.208 408.924 411.429 407.168 412.146C405.413 412.864 403.485 413.045 401.627 412.668C399.768 412.291 398.063 411.372 396.727 410.027C395.39 408.682 394.482 406.971 394.116 405.111C393.751 403.25 393.944 401.323 394.673 399.572C395.401 397.822 396.631 396.326 398.209 395.274C399.786 394.221 401.64 393.66 403.536 393.66C404.802 393.66 406.055 393.91 407.224 394.396C408.392 394.883 409.453 395.595 410.346 396.493C411.238 397.391 411.944 398.456 412.423 399.628C412.901 400.799 413.144 402.054 413.136 403.32Z" fill="#A7A7A7"/>
<path d="M407.508 401.172H399.468V402.312H407.508V401.172Z" fill="#263238"/>
<path d="M409.5 404.328H397.476V405.468H409.5V404.328Z" fill="#A6A6A6"/>
<path d="M456.576 403.32C456.574 406.707 455.34 409.978 453.105 412.523C450.869 415.068 447.784 416.713 444.425 417.151C441.066 417.589 437.662 416.791 434.849 414.904C432.035 413.018 430.004 410.173 429.133 406.899C428.262 403.626 428.612 400.147 430.117 397.113C431.621 394.078 434.179 391.694 437.311 390.405C440.444 389.117 443.938 389.012 447.143 390.109C450.348 391.207 453.043 393.433 454.728 396.372C455.941 398.487 456.578 400.882 456.576 403.32V403.32Z" fill="#455A64"/>
<path d="M456.576 403.32C456.585 405.992 455.828 408.611 454.394 410.866C452.96 413.12 450.909 414.916 448.485 416.041C446.061 417.165 443.365 417.57 440.718 417.208C438.07 416.847 435.582 415.733 433.548 414L442.608 403.38V389.352C444.443 389.35 446.26 389.711 447.955 390.412C449.651 391.113 451.191 392.142 452.488 393.44C453.786 394.737 454.815 396.277 455.516 397.973C456.217 399.668 456.578 401.485 456.576 403.32V403.32Z" fill="#015D09"/>
<path d="M452.11 404.968C453.032 399.713 449.521 394.705 444.266 393.783C439.011 392.86 434.004 396.372 433.081 401.626C432.158 406.881 435.67 411.889 440.924 412.811C446.179 413.734 451.187 410.222 452.11 404.968Z" fill="#A7A7A7"/>
<path d="M446.628 401.172H438.588V402.312H446.628V401.172Z" fill="#263238"/>
<path d="M448.62 404.328H436.596V405.468H448.62V404.328Z" fill="#A6A6A6"/>
<path d="M479.34 74.028H120.672V83.952H479.34V74.028Z" fill="#A6A6A6"/>
<path d="M128.556 78.9959C128.556 79.4706 128.415 79.9346 128.152 80.3293C127.888 80.724 127.513 81.0316 127.074 81.2133C126.636 81.3949 126.153 81.4424 125.688 81.3498C125.222 81.2572 124.795 81.0287 124.459 80.693C124.123 80.3574 123.895 79.9297 123.802 79.4642C123.709 78.9986 123.757 78.5161 123.939 78.0775C124.12 77.639 124.428 77.2641 124.823 77.0004C125.217 76.7367 125.681 76.5959 126.156 76.5959C126.788 76.6112 127.389 76.8689 127.836 77.3157C128.283 77.7626 128.541 78.3642 128.556 78.9959V78.9959Z" fill="#C7C7C7"/>
<path d="M138.6 78.9959C138.6 79.4706 138.459 79.9346 138.196 80.3293C137.932 80.724 137.557 81.0316 137.118 81.2133C136.68 81.3949 136.197 81.4424 135.732 81.3498C135.266 81.2572 134.839 81.0287 134.503 80.693C134.167 80.3574 133.939 79.9297 133.846 79.4642C133.753 78.9986 133.801 78.5161 133.983 78.0775C134.164 77.639 134.472 77.2641 134.867 77.0004C135.261 76.7367 135.725 76.5959 136.2 76.5959C136.832 76.6112 137.433 76.8689 137.88 77.3157C138.327 77.7626 138.585 78.3642 138.6 78.9959V78.9959Z" fill="#A7A7A7"/>
<path d="M148.644 78.9959C148.656 79.4849 148.522 79.9662 148.259 80.3786C147.996 80.791 147.616 81.1156 147.168 81.311C146.719 81.5064 146.223 81.5638 145.742 81.4758C145.261 81.3877 144.817 81.1583 144.467 80.8168C144.117 80.4752 143.876 80.0371 143.777 79.5584C143.677 79.0796 143.722 78.5819 143.906 78.1289C144.09 77.6759 144.406 77.2881 144.811 77.0151C145.217 76.742 145.695 76.5961 146.184 76.5959C146.826 76.5958 147.443 76.8467 147.903 77.2951C148.362 77.7436 148.628 78.354 148.644 78.9959Z" fill="#015D09"/>
<path d="M88.116 444.24C88.488 434.772 88.3558 425.29 87.72 415.836C86.32 396.336 83.3463 376.981 78.828 357.96C76.344 347.256 73.284 336.732 70.104 326.208C70.008 325.896 69.504 325.98 69.588 326.316C79.428 363.384 87.516 401.652 86.952 440.196C86.796 450.996 85.548 461.568 84.552 472.284C84.552 472.572 84.996 472.692 85.056 472.392C86.9032 463.116 87.9271 453.696 88.116 444.24V444.24Z" fill="#015D09"/>
<path d="M69.6 326.316C69.6 326.316 54.684 364.176 58.02 373.116C61.356 382.056 68.244 383.916 68.244 383.916C68.244 383.916 59.124 396.948 65.496 409.116C71.868 421.284 86.04 420.768 86.988 434.616C86.976 434.616 87.768 376.68 69.6 326.316Z" fill="#015D09"/>
<path d="M85.356 410.7C85.3798 410.634 85.3798 410.562 85.356 410.496C83.4172 384.649 78.5871 359.102 70.956 334.332C70.956 334.26 70.812 334.332 70.836 334.332C73.788 345.412 76.396 356.548 78.66 367.74C76.6586 365.84 74.2116 364.474 71.544 363.768C71.544 363.768 71.472 363.768 71.544 363.852C74.3489 364.878 76.8671 366.561 78.888 368.76C79.328 370.952 79.752 373.148 80.16 375.348C76.824 371.628 72.204 369.768 67.572 368.016C67.572 368.016 67.476 368.088 67.572 368.124C72.372 370.08 77.172 372.612 80.46 376.764C81.596 383.044 82.592 389.348 83.448 395.676C80.9982 393.129 77.8503 391.363 74.4 390.6C74.304 390.6 74.244 390.72 74.4 390.756C77.9083 391.761 81.0454 393.772 83.424 396.54V396.54C83.728 398.756 84.008 400.984 84.264 403.224C82.3882 401.657 80.2733 400.401 78 399.504C77.94 399.504 77.904 399.564 78 399.588C80.306 400.592 82.418 401.994 84.24 403.728C84.24 403.728 84.3 403.728 84.324 403.728C84.564 405.84 84.816 407.964 85.032 410.088C81.6716 406.029 77.3127 402.915 72.384 401.052C72.288 401.052 72.228 401.172 72.384 401.208C77.2567 403.35 81.5356 406.644 84.852 410.808C84.8866 410.856 84.9352 410.892 84.991 410.911C85.0468 410.93 85.1072 410.932 85.164 410.916C85.492 414.172 85.776 417.436 86.016 420.708C86.016 420.708 86.1 420.708 86.088 420.708C85.86 417.384 85.62 414 85.356 410.7Z" fill="#263238"/>
<path d="M73.368 360C70.6674 358.319 67.5816 357.356 64.404 357.204C64.332 357.204 64.32 357.312 64.404 357.312C67.4752 357.884 70.4571 358.861 73.272 360.216C73.2994 360.223 73.3283 360.22 73.3536 360.207C73.379 360.195 73.3992 360.174 73.4106 360.148C73.4221 360.122 73.4241 360.093 73.4163 360.066C73.4085 360.039 73.3914 360.016 73.368 360Z" fill="#263238"/>
<path d="M75.18 400.116C73.0855 398.927 70.7851 398.146 68.4 397.812C68.316 397.812 68.316 397.932 68.4 397.944C70.7147 398.409 72.9526 399.196 75.048 400.284C75.0703 400.302 75.0986 400.309 75.1267 400.306C75.1549 400.303 75.1805 400.288 75.198 400.266C75.2155 400.244 75.2234 400.215 75.2201 400.187C75.2167 400.159 75.2023 400.133 75.18 400.116V400.116Z" fill="#263238"/>
<path d="M127.32 373.692C121.015 378.059 115.226 383.127 110.064 388.8C104.736 394.791 100.624 401.76 97.956 409.32C92.2831 425.076 89.2346 441.657 88.932 458.4C88.7466 467.672 89.6365 476.933 91.584 486C91.6028 486.062 91.6439 486.115 91.6995 486.149C91.755 486.183 91.8211 486.195 91.885 486.183C91.949 486.171 92.0063 486.136 92.0459 486.085C92.0856 486.033 92.1049 485.969 92.1 485.904C89.6844 469.907 89.7856 453.63 92.4 437.664C94.968 422.004 98.988 404.964 108.948 392.244C114.36 385.308 121.128 379.86 127.812 374.244C128.136 373.92 127.68 373.44 127.32 373.692Z" fill="#015D09"/>
<path d="M91.128 447.144C94.7184 441.336 98.94 435.943 103.716 431.064C111.168 423.6 117.456 418.296 118.428 413.364C119.4 408.432 110.952 404.796 110.952 404.796C110.952 404.796 121.284 406.656 124.152 402.312C127.02 397.968 128.34 372.888 128.34 372.888C128.34 372.888 109.56 386.292 100.74 405.096C91.92 423.9 91.128 447.144 91.128 447.144Z" fill="#015D09"/>
<path d="M121.584 396.432C120.349 396.25 119.097 396.206 117.852 396.3C117.817 396.3 117.783 396.314 117.759 396.339C117.734 396.363 117.72 396.397 117.72 396.432C117.72 396.467 117.734 396.5 117.759 396.525C117.783 396.55 117.817 396.564 117.852 396.564C119.052 396.564 120.324 396.504 121.56 396.564C121.668 396.576 121.68 396.432 121.584 396.432Z" fill="#263238"/>
<path d="M108.06 420.78C106.076 420.835 104.118 421.242 102.276 421.98C102.276 421.98 102.276 422.064 102.276 422.052C104.184 421.608 106.128 421.416 108.048 421.104C108.24 421.032 108.228 420.78 108.06 420.78Z" fill="#263238"/>
<path d="M104.016 412.368C103.191 412.356 102.366 412.428 101.556 412.584C101.54 412.59 101.527 412.601 101.518 412.615C101.508 412.629 101.503 412.645 101.503 412.662C101.503 412.679 101.508 412.695 101.518 412.709C101.527 412.723 101.54 412.734 101.556 412.74C102.382 412.778 103.21 412.738 104.028 412.62C104.16 412.596 104.16 412.368 104.016 412.368Z" fill="#263238"/>
<path d="M36.06 400.332C42.1713 402.405 48.0285 405.162 53.52 408.552C59.2147 412.188 64.1532 416.89 68.064 422.4C76.2921 433.855 82.5912 446.579 86.712 460.068C89.0127 467.529 90.4343 475.233 90.948 483.024C90.9363 483.074 90.908 483.119 90.8677 483.151C90.8274 483.183 90.7774 483.2 90.726 483.2C90.6746 483.2 90.6246 483.183 90.5843 483.151C90.544 483.119 90.5157 483.074 90.504 483.024C88.7781 469.501 84.9393 456.332 79.128 444C73.428 432 66.24 419.088 55.2 411.084C49.2 406.728 42.48 403.884 35.772 400.86C35.448 400.704 35.7 400.2 36.06 400.332Z" fill="#015D09"/>
<path d="M82.332 451.404C78.0742 447.533 73.4018 444.145 68.4 441.3C60.636 436.992 54.324 434.1 52.404 430.38C50.484 426.66 56.472 421.716 56.472 421.716C56.472 421.716 48.54 425.604 45.252 422.748C41.964 419.892 35.064 399.948 35.064 399.948C35.064 399.948 53.388 406.416 64.8 419.604C76.212 432.792 82.332 451.404 82.332 451.404Z" fill="#015D09"/>
<path d="M51.168 412.092C50.3652 412.03 49.5577 412.079 48.768 412.236C48.672 412.236 48.696 412.392 48.768 412.38C49.572 412.296 50.376 412.38 51.168 412.296C51.1843 412.302 51.2017 412.303 51.2187 412.301C51.2358 412.298 51.252 412.292 51.2661 412.282C51.2801 412.272 51.2916 412.259 51.2995 412.243C51.3074 412.228 51.3115 412.211 51.3115 412.194C51.3115 412.177 51.3074 412.16 51.2995 412.144C51.2916 412.129 51.2801 412.116 51.2661 412.106C51.252 412.096 51.2358 412.089 51.2187 412.087C51.2017 412.085 51.1843 412.086 51.168 412.092Z" fill="#263238"/>
<path d="M105.936 508.224H64.62L70.512 465.072L72.012 454.008H98.544L100.044 465.072L105.936 508.224Z" fill="#455A64"/>
<path d="M100.044 465.072H70.512L72.012 454.008H98.544L100.044 465.072Z" fill="#263238"/>
<path d="M102.324 450.168H68.22V459.54H102.324V450.168Z" fill="#455A64"/>
</svg>
