<svg width="500" height="500" viewBox="0 0 500 500" fill="none" xmlns="http://www.w3.org/2000/svg">
<path d="M205.06 44.14C205.06 44.14 251.78 34.67 294.29 44.14C320.29 49.93 375.04 63.66 387.97 94.78C400.9 125.9 338.67 152.45 369.24 184.02C382.43 197.64 445.72 215.6 442.16 303.94C438.6 392.28 345.87 446.13 217 443.73C88.13 441.33 13.73 324.14 63.57 266.43C113.41 208.72 134.87 208.55 112.28 161.55C89.69 114.55 121.05 57.59 205.06 44.14Z" fill="#01760C"/>
<path opacity="0.7" d="M205.06 44.14C205.06 44.14 251.78 34.67 294.29 44.14C320.29 49.93 375.04 63.66 387.97 94.78C400.9 125.9 338.67 152.45 369.24 184.02C382.43 197.64 445.72 215.6 442.16 303.94C438.6 392.28 345.87 446.13 217 443.73C88.13 441.33 13.73 324.14 63.57 266.43C113.41 208.72 134.87 208.55 112.28 161.55C89.69 114.55 121.05 57.59 205.06 44.14Z" fill="#CBCBCB" fill-opacity="0.96"/>
<path d="M115.94 188.19L124.64 213.63L82.92 227.9L72.6 197.71L114.32 183.44L115.94 188.19Z" stroke="#263238" stroke-linecap="round" stroke-linejoin="round"/>
<path d="M120.28 200.86L124.64 213.63L82.92 227.9L80.78 221.64L89.19 208.9L102.88 214.23L112.65 197.75L120.28 200.86Z" stroke="#263238" stroke-linecap="round" stroke-linejoin="round"/>
<path d="M94.22 199.25C94.5122 200.1 94.5457 201.017 94.3165 201.885C94.0872 202.754 93.6053 203.535 92.9319 204.13C92.2586 204.724 91.4239 205.106 90.5336 205.226C89.6433 205.346 88.7374 205.199 87.9305 204.804C87.1237 204.409 86.4521 203.784 86.0009 203.007C85.5497 202.23 85.3392 201.337 85.3959 200.44C85.4526 199.543 85.774 198.684 86.3194 197.97C86.8649 197.256 87.6098 196.72 88.46 196.43C89.0233 196.236 89.6193 196.156 90.2139 196.193C90.8085 196.229 91.3899 196.383 91.9249 196.645C92.46 196.907 92.9381 197.272 93.3319 197.719C93.7257 198.166 94.0275 198.686 94.22 199.25V199.25Z" stroke="#263238" stroke-linecap="round" stroke-linejoin="round"/>
<path d="M364.56 397L358.81 423.27L315.74 413.83L322.56 382.67L365.64 392.1L364.56 397Z" stroke="#263238" stroke-linecap="round" stroke-linejoin="round"/>
<path d="M324.28 407.11L353.87 413.59" stroke="#263238" stroke-linecap="round" stroke-linejoin="round"/>
<path d="M326.7 393.3C326.7 393.3 323.7 407.05 339.06 410.42C354.42 413.79 357.43 400 357.43 400" stroke="#263238" stroke-linecap="round" stroke-linejoin="round"/>
<path d="M328 393.59C327.919 393.93 327.708 394.224 327.413 394.411C327.118 394.598 326.762 394.662 326.42 394.59C326.162 394.534 325.927 394.402 325.745 394.212C325.562 394.022 325.44 393.781 325.394 393.522C325.349 393.262 325.381 392.994 325.488 392.753C325.594 392.512 325.77 392.308 325.993 392.167C326.216 392.026 326.475 391.954 326.739 391.961C327.003 391.968 327.258 392.053 327.473 392.206C327.689 392.358 327.853 392.571 327.947 392.818C328.041 393.064 328.059 393.333 328 393.59Z" fill="#CBCBCB" fill-opacity="0.96" stroke="#263238" stroke-linecap="round" stroke-linejoin="round"/>
<path d="M358.73 400.32C358.705 400.502 358.642 400.676 358.546 400.832C358.45 400.988 358.323 401.123 358.172 401.228C358.022 401.332 357.851 401.405 357.671 401.44C357.491 401.476 357.306 401.474 357.127 401.435C356.948 401.395 356.779 401.319 356.631 401.211C356.482 401.104 356.358 400.966 356.265 400.808C356.173 400.65 356.114 400.474 356.092 400.292C356.07 400.11 356.087 399.925 356.14 399.75C356.237 399.43 356.452 399.157 356.741 398.988C357.029 398.819 357.372 398.765 357.699 398.837C358.026 398.909 358.314 399.102 358.505 399.376C358.696 399.651 358.776 399.988 358.73 400.32Z" fill="#CBCBCB" fill-opacity="0.96" stroke="#263238" stroke-linecap="round" stroke-linejoin="round"/>
<path d="M325.1 406.159L322.823 405.661L322.325 407.937L324.601 408.436L325.1 406.159Z" fill="#CBCBCB" fill-opacity="0.96" stroke="#263238" stroke-linecap="round" stroke-linejoin="round"/>
<path d="M340.455 409.517L338.179 409.019L337.681 411.295L339.957 411.793L340.455 409.517Z" fill="#CBCBCB" fill-opacity="0.96" stroke="#263238" stroke-linecap="round" stroke-linejoin="round"/>
<path d="M355.829 412.886L353.553 412.388L353.055 414.664L355.331 415.162L355.829 412.886Z" fill="#CBCBCB" fill-opacity="0.96" stroke="#263238" stroke-linecap="round" stroke-linejoin="round"/>
<path d="M165.25 111.27L154.37 135.86L114.04 118L126.96 88.83L167.28 106.68L165.25 111.27Z" stroke="#263238" stroke-linecap="round" stroke-linejoin="round"/>
<path d="M144.08 121.41C143.31 123.15 140.52 123.61 137.86 122.41C135.2 121.21 133.67 118.86 134.44 117.11C135.21 115.36 138 114.91 140.66 116.11C143.32 117.31 144.85 119.66 144.08 121.41Z" fill="#263238"/>
<path d="M146.12 102.2L135.36 117.55L134.44 117.14L142.31 105.92L144.31 103C144.935 102.831 145.529 102.564 146.07 102.21L146.12 102.2Z" fill="#263238"/>
<path d="M146.11 102.21L143.5 105.91C143.104 105.952 142.706 105.952 142.31 105.91C141.13 105.813 139.982 105.473 138.94 104.91C138.233 104.529 137.432 104.356 136.63 104.411C135.829 104.466 135.059 104.746 134.41 105.22C134.54 105.06 137.08 101.89 140.58 103C141.807 103.387 143.123 103.387 144.35 103C144.975 102.831 145.569 102.564 146.11 102.21Z" fill="#263238"/>
<path d="M434.03 310.61L424.64 335.81L383.32 320.42L394.46 290.51L435.78 305.91L434.03 310.61Z" stroke="#263238" stroke-linecap="round" stroke-linejoin="round"/>
<path d="M406.22 305.07L395.86 309.81L400.6 320.18" stroke="#263238" stroke-linecap="round" stroke-linejoin="round"/>
<path d="M411.73 324.32L422.1 319.59L417.36 309.22" stroke="#263238" stroke-linecap="round" stroke-linejoin="round"/>
<path d="M413.6 307.8L404.35 321.59" stroke="#263238" stroke-linecap="round" stroke-linejoin="round"/>
<path d="M392.8 76.47L383.59 101.74L342.16 86.63L353.09 56.65L394.52 71.76L392.8 76.47Z" stroke="#263238" stroke-linecap="round" stroke-linejoin="round"/>
<path d="M363.45 78.37C363.45 78.37 362.95 75.54 358.77 76.16C354.91 76.74 353.77 81.08 357.07 82.27C360.9 83.67 363.9 80.43 367.63 77.27C371.52 73.94 375.05 70.35 375.5 69.93C375.5 69.93 366.73 85.62 365.59 87.69C364.45 89.76 367.88 89 368.5 88.08" stroke="#263238" stroke-linecap="round" stroke-linejoin="round"/>
<path d="M378.26 83C377.162 82.2684 375.827 81.9831 374.526 82.2024C373.225 82.4217 372.057 83.129 371.26 84.18C370.04 85.65 370.68 87.18 371.73 87.59C374.43 88.59 376.1 87.39 378.94 83.26C378.94 83.26 375.01 88.78 375.85 89.09C376.225 89.2157 376.627 89.2364 377.013 89.1501C377.399 89.0637 377.754 88.8735 378.04 88.6" stroke="#263238" stroke-linecap="round" stroke-linejoin="round"/>
<path d="M366.44 78.73L373.38 81.26" stroke="#263238" stroke-linecap="round" stroke-linejoin="round"/>
<path d="M119.36 368.44L76.28 359.02L82.16 332.14L125.38 341.6L119.36 368.44Z" stroke="#263238" stroke-linecap="round" stroke-linejoin="round"/>
<path d="M91.92 338.87L117.1 344.38" stroke="#263238" stroke-linecap="round" stroke-linejoin="round"/>
<path d="M87.85 340.51L116.57 346.8" stroke="#263238" stroke-linecap="round" stroke-linejoin="round"/>
<path d="M87.32 342.93L116.04 349.21" stroke="#263238" stroke-linecap="round" stroke-linejoin="round"/>
<path d="M86.79 345.35L115.51 351.63" stroke="#263238" stroke-linecap="round" stroke-linejoin="round"/>
<path d="M86.26 347.76L114.98 354.04" stroke="#263238" stroke-linecap="round" stroke-linejoin="round"/>
<path d="M85.74 350.18L114.46 356.46" stroke="#263238" stroke-linecap="round" stroke-linejoin="round"/>
<path d="M85.21 352.59L113.93 358.87" stroke="#263238" stroke-linecap="round" stroke-linejoin="round"/>
<path d="M84.68 355.01L109.86 360.52" stroke="#263238" stroke-linecap="round" stroke-linejoin="round"/>
<path d="M330.58 167.97H169.42L149.31 67.93H350.69L330.58 167.97Z" fill="#263238"/>
<path d="M164.43 71.18L134.75 273.01H365.25L335.57 71.18" fill="#01760C"/>
<path opacity="0.3" d="M365.25 273.01H134.75L147.16 188.61H352.84L365.25 273.01Z" fill="black" fill-opacity="0.7"/>
<path d="M164.43 71.18L134.75 273.01H365.25L335.57 71.18" stroke="#263238" stroke-linecap="round" stroke-linejoin="round"/>
<path d="M329.3 71.18H170.7L143.2 273.01H356.8L329.3 71.18Z" fill="#263238"/>
<path d="M313.63 86.56H227.54L226.54 84.36C226.272 83.7629 225.836 83.2563 225.286 82.9014C224.736 82.5465 224.095 82.3584 223.44 82.36H203.92C203.39 82.36 202.881 82.5707 202.506 82.9458C202.131 83.3209 201.92 83.8296 201.92 84.36V86.6H186.37C186.089 86.6005 185.812 86.6632 185.559 86.7835C185.305 86.9038 185.082 87.0788 184.904 87.2958C184.726 87.5128 184.599 87.7665 184.53 88.0387C184.462 88.3109 184.455 88.5948 184.51 88.87L197.23 152.12H302.77L315.49 88.87C315.551 88.592 315.55 88.3037 315.485 88.0265C315.42 87.7492 315.293 87.4902 315.115 87.2684C314.936 87.0466 314.71 86.8678 314.453 86.7452C314.196 86.6226 313.915 86.5593 313.63 86.56Z" fill="#BFBFBF" stroke="#263238" stroke-linecap="round" stroke-linejoin="round"/>
<path d="M316.88 91.41L315.78 96.87L304.48 153.06C304.317 153.904 303.866 154.665 303.204 155.212C302.542 155.759 301.709 156.059 300.85 156.06H199.15C198.291 156.059 197.458 155.759 196.796 155.212C196.134 154.665 195.683 153.904 195.52 153.06L184 95.54L183.17 91.41C183.116 91.1373 183.122 90.8559 183.189 90.5859C183.255 90.3159 183.38 90.0637 183.554 89.8472C183.729 89.6307 183.949 89.4552 184.199 89.333C184.448 89.2108 184.722 89.1449 185 89.14H315C315.282 89.1376 315.562 89.1981 315.817 89.3171C316.073 89.4361 316.3 89.6106 316.48 89.828C316.66 90.0454 316.789 90.3002 316.858 90.5738C316.928 90.8475 316.935 91.1331 316.88 91.41Z" fill="#CBCBCB" fill-opacity="0.96"/>
<path opacity="0.4" d="M315.78 96.87L304.48 153.06C304.317 153.904 303.866 154.665 303.204 155.212C302.542 155.759 301.709 156.059 300.85 156.06H199.15C198.291 156.059 197.458 155.759 196.796 155.212C196.134 154.665 195.683 153.904 195.52 153.06L184 95.54L315.78 96.87Z" fill="#01760C"/>
<path d="M316.88 91.41L315.78 96.87L304.48 153.06C304.317 153.904 303.866 154.665 303.204 155.212C302.542 155.759 301.709 156.059 300.85 156.06H199.15C198.291 156.059 197.458 155.759 196.796 155.212C196.134 154.665 195.683 153.904 195.52 153.06L184 95.54L183.17 91.41C183.116 91.1373 183.122 90.8559 183.189 90.5859C183.255 90.3159 183.38 90.0637 183.554 89.8472C183.729 89.6307 183.949 89.4552 184.199 89.333C184.448 89.2108 184.722 89.1449 185 89.14H315C315.282 89.1376 315.562 89.1981 315.817 89.3171C316.073 89.4361 316.3 89.6106 316.48 89.828C316.66 90.0454 316.789 90.3002 316.858 90.5738C316.928 90.8475 316.935 91.1331 316.88 91.41Z" stroke="#263238" stroke-linecap="round" stroke-linejoin="round"/>
<path d="M315.16 101.13H227L226 98.94C225.718 98.3389 225.269 97.8311 224.707 97.4768C224.146 97.1224 223.494 96.9361 222.83 96.94H202.83C202.3 96.94 201.791 97.1507 201.416 97.5258C201.041 97.9009 200.83 98.4096 200.83 98.94V101.18H184.83C184.547 101.176 184.266 101.236 184.009 101.354C183.751 101.472 183.523 101.647 183.341 101.864C183.159 102.081 183.028 102.336 182.957 102.611C182.886 102.885 182.877 103.172 182.93 103.45L195.93 166.51H304L317 103.45C317.061 103.173 317.059 102.886 316.996 102.61C316.932 102.334 316.807 102.075 316.631 101.853C316.455 101.631 316.231 101.451 315.977 101.326C315.723 101.201 315.443 101.134 315.16 101.13Z" fill="#BFBFBF" stroke="#263238" stroke-linecap="round" stroke-linejoin="round"/>
<path d="M318.48 106.15L317.38 111.49L305.79 167.62C305.612 168.473 305.144 169.238 304.466 169.785C303.788 170.332 302.941 170.627 302.07 170.62H197.93C197.059 170.627 196.212 170.332 195.534 169.785C194.856 169.238 194.388 168.473 194.21 167.62L182.58 111.3L181.52 106.15C181.467 105.872 181.476 105.585 181.547 105.311C181.618 105.036 181.749 104.781 181.931 104.564C182.113 104.347 182.341 104.173 182.598 104.054C182.856 103.936 183.137 103.876 183.42 103.88H316.58C316.863 103.876 317.144 103.936 317.402 104.054C317.659 104.173 317.887 104.347 318.069 104.564C318.251 104.781 318.382 105.036 318.453 105.311C318.524 105.585 318.533 105.872 318.48 106.15Z" fill="#CBCBCB" fill-opacity="0.96"/>
<path opacity="0.4" d="M317.38 111.49L305.79 167.62C305.612 168.473 305.144 169.238 304.466 169.785C303.788 170.332 302.941 170.627 302.07 170.62H197.93C197.059 170.627 196.212 170.332 195.534 169.785C194.856 169.238 194.388 168.473 194.21 167.62L182.58 111.3L317.38 111.49Z" fill="#01760C"/>
<path d="M318.48 106.15L317.38 111.49L305.79 167.62C305.612 168.473 305.144 169.238 304.466 169.785C303.788 170.332 302.941 170.627 302.07 170.62H197.93C197.059 170.627 196.212 170.332 195.534 169.785C194.856 169.238 194.388 168.473 194.21 167.62L182.58 111.3L181.52 106.15C181.467 105.872 181.476 105.585 181.547 105.311C181.618 105.036 181.749 104.781 181.931 104.564C182.113 104.347 182.341 104.173 182.598 104.054C182.856 103.936 183.137 103.876 183.42 103.88H316.58C316.863 103.876 317.144 103.936 317.402 104.054C317.659 104.173 317.887 104.347 318.069 104.564C318.251 104.781 318.382 105.036 318.453 105.311C318.524 105.585 318.533 105.872 318.48 106.15V106.15Z" stroke="#263238" stroke-linecap="round" stroke-linejoin="round"/>
<path d="M316.68 115.7H226.47L225.47 113.51C225.176 112.903 224.715 112.393 224.141 112.039C223.567 111.685 222.904 111.501 222.23 111.51H201.71C201.442 111.502 201.176 111.548 200.926 111.645C200.677 111.742 200.449 111.888 200.257 112.074C200.065 112.261 199.912 112.484 199.808 112.731C199.704 112.977 199.65 113.242 199.65 113.51V115.74H183.32C183.034 115.731 182.75 115.786 182.488 115.901C182.226 116.016 181.993 116.188 181.806 116.405C181.619 116.621 181.483 116.877 181.407 117.153C181.332 117.429 181.319 117.718 181.37 118L194.7 180.87H305.3L318.63 118C318.688 117.716 318.68 117.422 318.608 117.141C318.535 116.86 318.4 116.599 318.213 116.377C318.025 116.156 317.79 115.98 317.524 115.863C317.259 115.745 316.97 115.69 316.68 115.7Z" fill="#BFBFBF" stroke="#263238" stroke-linecap="round" stroke-linejoin="round"/>
<path d="M318.14 118.63H181.86C181.575 118.621 181.292 118.676 181.031 118.79C180.771 118.905 180.539 119.076 180.353 119.292C180.167 119.508 180.031 119.762 179.957 120.037C179.882 120.312 179.869 120.6 179.92 120.88L192.92 182.17C193.111 183.031 193.594 183.8 194.286 184.347C194.978 184.893 195.838 185.184 196.72 185.17H303.29C304.172 185.184 305.032 184.893 305.724 184.347C306.416 183.8 306.899 183.031 307.09 182.17L320.09 120.88C320.141 120.599 320.128 120.31 320.053 120.034C319.978 119.759 319.841 119.504 319.654 119.288C319.467 119.072 319.234 118.901 318.972 118.787C318.71 118.673 318.426 118.619 318.14 118.63Z" fill="#CBCBCB" fill-opacity="0.96" stroke="#263238" stroke-linecap="round" stroke-linejoin="round"/>
<path d="M318.21 127.27H225.93L224.88 125.09C224.571 124.48 224.097 123.969 223.512 123.616C222.926 123.262 222.254 123.08 221.57 123.09H200.57C200.298 123.075 200.026 123.116 199.771 123.209C199.515 123.303 199.282 123.448 199.084 123.635C198.887 123.823 198.729 124.048 198.622 124.298C198.515 124.548 198.46 124.818 198.46 125.09V127.32H181.79C181.501 127.305 181.213 127.356 180.947 127.468C180.68 127.579 180.442 127.749 180.25 127.965C180.058 128.181 179.917 128.438 179.838 128.715C179.758 128.993 179.742 129.285 179.79 129.57L193.42 192.26H306.57L320.2 129.57C320.257 129.282 320.247 128.986 320.172 128.702C320.096 128.419 319.958 128.156 319.766 127.935C319.574 127.713 319.334 127.538 319.065 127.423C318.795 127.308 318.503 127.255 318.21 127.27Z" fill="#BFBFBF" stroke="#263238" stroke-linecap="round" stroke-linejoin="round"/>
<path d="M319.7 130.37H180.3C180.011 130.355 179.723 130.406 179.457 130.518C179.19 130.629 178.952 130.799 178.76 131.015C178.568 131.231 178.427 131.488 178.348 131.765C178.268 132.043 178.252 132.335 178.3 132.62L191.59 193.73C191.808 194.589 192.312 195.348 193.019 195.883C193.726 196.417 194.594 196.695 195.48 196.67H304.48C305.366 196.695 306.234 196.417 306.941 195.883C307.648 195.348 308.152 194.589 308.37 193.73L321.66 132.62C321.707 132.339 321.692 132.05 321.614 131.775C321.537 131.501 321.4 131.247 321.212 131.031C321.025 130.816 320.792 130.645 320.53 130.531C320.269 130.417 319.985 130.362 319.7 130.37Z" fill="#CBCBCB" fill-opacity="0.96" stroke="#263238" stroke-linecap="round" stroke-linejoin="round"/>
<path d="M319.73 138.84H225.39L224.32 136.66C223.996 136.045 223.507 135.533 222.909 135.179C222.31 134.826 221.625 134.646 220.93 134.66H199.5C198.958 134.633 198.427 134.822 198.024 135.185C197.621 135.549 197.378 136.058 197.35 136.6V138.82H180.27C179.986 138.818 179.705 138.876 179.445 138.992C179.185 139.107 178.953 139.276 178.764 139.488C178.574 139.7 178.433 139.95 178.347 140.221C178.262 140.492 178.236 140.778 178.27 141.06L192.21 203.56H307.83L321.77 141.06C321.802 140.776 321.772 140.489 321.683 140.217C321.594 139.946 321.448 139.696 321.255 139.486C321.062 139.276 320.825 139.109 320.562 138.998C320.299 138.886 320.016 138.833 319.73 138.84Z" fill="#BFBFBF" stroke="#263238" stroke-linecap="round" stroke-linejoin="round"/>
<path d="M321.25 142.12H178.75C178.463 142.108 178.177 142.159 177.912 142.271C177.647 142.383 177.411 142.552 177.219 142.766C177.028 142.98 176.887 143.235 176.805 143.51C176.724 143.786 176.705 144.076 176.75 144.36L180.09 159.36L190.33 205.29C190.568 206.159 191.093 206.922 191.819 207.456C192.545 207.989 193.43 208.262 194.33 208.23H305.73C306.63 208.262 307.515 207.989 308.241 207.456C308.967 206.922 309.492 206.159 309.73 205.29L314.73 182.76L323.29 144.37C323.337 144.082 323.319 143.787 323.236 143.507C323.154 143.227 323.009 142.969 322.813 142.753C322.617 142.537 322.374 142.367 322.104 142.258C321.833 142.148 321.541 142.101 321.25 142.12Z" fill="#CBCBCB" fill-opacity="0.96"/>
<path opacity="0.4" d="M180.05 159.35L190.29 205.28C190.528 206.149 191.053 206.912 191.779 207.446C192.505 207.979 193.39 208.252 194.29 208.22H305.73C306.63 208.252 307.515 207.979 308.241 207.446C308.967 206.912 309.492 206.149 309.73 205.28L314.73 182.75L180.05 159.35Z" fill="#01760C"/>
<path d="M321.25 142.12H178.75C178.463 142.108 178.177 142.159 177.912 142.271C177.647 142.383 177.411 142.552 177.219 142.766C177.028 142.98 176.887 143.235 176.805 143.51C176.724 143.786 176.705 144.076 176.75 144.36L180.09 159.36L190.33 205.29C190.568 206.159 191.093 206.922 191.819 207.456C192.545 207.989 193.43 208.262 194.33 208.23H305.73C306.63 208.262 307.515 207.989 308.241 207.456C308.967 206.922 309.492 206.159 309.73 205.29L314.73 182.76L323.29 144.37C323.337 144.082 323.319 143.787 323.236 143.507C323.154 143.227 323.009 142.969 322.813 142.753C322.617 142.537 322.374 142.367 322.104 142.258C321.833 142.148 321.541 142.101 321.25 142.12V142.12Z" stroke="#263238" stroke-linecap="round" stroke-linejoin="round"/>
<path d="M221.77 210.39L220.51 208.29C220.097 207.683 219.53 207.197 218.868 206.881C218.206 206.565 217.471 206.43 216.74 206.49L193.46 207.56C192.899 207.538 192.351 207.733 191.932 208.106C191.512 208.479 191.254 209 191.21 209.56L191.31 211.76L172.75 212.61C171.33 212.67 170.31 213.79 170.65 214.92L188.65 275.92L314.29 270.14L326.6 207.77C326.82 206.61 325.71 205.59 324.28 205.66L221.77 210.39Z" fill="#BFBFBF" stroke="#263238" stroke-linecap="round" stroke-linejoin="round"/>
<path d="M328.4 211.67L327 218.85L316.43 272.48C316.169 273.385 315.617 274.179 314.86 274.739C314.102 275.3 313.182 275.595 312.24 275.58L191.17 281.14C190.233 281.242 189.289 281.033 188.483 280.545C187.677 280.057 187.054 279.317 186.71 278.44L170 221.74L169.19 218.99C168.86 217.86 169.88 216.74 171.3 216.68L326.11 209.56C327.52 209.5 328.63 210.52 328.4 211.67Z" fill="#CBCBCB" fill-opacity="0.96"/>
<path opacity="0.4" d="M327 218.85L316.43 272.48C316.169 273.385 315.617 274.179 314.86 274.739C314.102 275.3 313.182 275.595 312.24 275.58L191.17 281.14C190.233 281.242 189.289 281.033 188.483 280.545C187.677 280.057 187.054 279.317 186.71 278.44L170 221.74L327 218.85Z" fill="#01760C"/>
<path d="M328.4 211.67L327 218.85L316.43 272.48C316.169 273.385 315.617 274.179 314.86 274.739C314.102 275.3 313.182 275.595 312.24 275.58L191.17 281.14C190.233 281.242 189.289 281.033 188.483 280.545C187.677 280.057 187.054 279.317 186.71 278.44L170 221.74L169.19 218.99C168.86 217.86 169.88 216.74 171.3 216.68L326.11 209.56C327.52 209.5 328.63 210.52 328.4 211.67Z" stroke="#263238" stroke-linecap="round" stroke-linejoin="round"/>
<path d="M224.44 224.31L223.37 222.11C223.002 221.462 222.47 220.921 221.828 220.542C221.186 220.163 220.456 219.959 219.71 219.95L196 218.71C195.432 218.623 194.853 218.761 194.385 219.096C193.918 219.43 193.6 219.934 193.5 220.5L193.39 222.69L174.47 221.69C173.02 221.61 171.88 222.62 172.1 223.77L184.33 286.06L312.46 292.76L331.11 232.09C331.45 230.96 330.42 229.84 328.97 229.77L224.44 224.31Z" fill="#BFBFBF" stroke="#263238" stroke-linecap="round" stroke-linejoin="round"/>
<path d="M332.56 236.32L329.56 246.2L314.42 295.46C314.055 296.341 313.412 297.078 312.588 297.559C311.765 298.039 310.806 298.236 309.86 298.12L186.39 291.67C185.437 291.684 184.506 291.387 183.737 290.824C182.968 290.261 182.404 289.463 182.13 288.55L171.68 235.28L170.22 227.83C169.99 226.68 171.14 225.67 172.59 225.75L330.42 234C331.87 234.08 332.91 235.2 332.56 236.32Z" fill="#CBCBCB" fill-opacity="0.96"/>
<path opacity="0.4" d="M329.52 246.2L314.38 295.46C314.015 296.341 313.372 297.078 312.548 297.559C311.725 298.039 310.766 298.236 309.82 298.12L186.35 291.67C185.397 291.684 184.466 291.387 183.697 290.824C182.928 290.261 182.364 289.463 182.09 288.55L171.64 235.28L329.52 246.2Z" fill="#01760C"/>
<path d="M332.56 236.32L329.56 246.2L314.42 295.46C314.055 296.341 313.412 297.078 312.588 297.559C311.765 298.039 310.806 298.236 309.86 298.12L186.39 291.67C185.437 291.684 184.506 291.387 183.737 290.824C182.968 290.261 182.404 289.463 182.13 288.55L171.68 235.28L170.22 227.83C169.99 226.68 171.14 225.67 172.59 225.75L330.42 234C331.87 234.08 332.91 235.2 332.56 236.32Z" stroke="#263238" stroke-linecap="round" stroke-linejoin="round"/>
<path d="M222.16 240.26L221 238.12C220.59 237.483 220.021 236.964 219.349 236.614C218.678 236.263 217.927 236.093 217.17 236.12H192.88C192.305 236.057 191.727 236.222 191.272 236.579C190.816 236.936 190.517 237.456 190.44 238.03V240.21H171.12C169.64 240.21 168.53 241.27 168.82 242.41L184.58 303.78H315.42L331.18 242.41C331.47 241.27 330.36 240.21 328.88 240.21L222.16 240.26Z" fill="#BFBFBF" stroke="#263238" stroke-linecap="round" stroke-linejoin="round"/>
<path d="M313 309.49H187C184.82 309.49 182.93 308.28 182.5 306.61L167.1 246.78C166.8 245.64 167.91 244.58 169.4 244.58H330.6C332.09 244.58 333.2 245.64 332.9 246.78L317.54 306.61C317.11 308.28 315.22 309.49 313 309.49Z" fill="#CBCBCB" fill-opacity="0.96" stroke="#263238" stroke-linecap="round" stroke-linejoin="round"/>
<path d="M221.62 254.83L220.39 252.7C219.958 252.069 219.372 251.559 218.688 251.217C218.004 250.876 217.244 250.715 216.48 250.75H191.78C191.198 250.681 190.612 250.843 190.147 251.199C189.682 251.556 189.375 252.08 189.29 252.66V254.83H169.6C168.08 254.83 166.95 255.89 167.25 257.03L183.32 318.21H316.68L332.75 257C333.05 255.86 331.92 254.8 330.4 254.8L221.62 254.83Z" fill="#BFBFBF" stroke="#263238" stroke-linecap="round" stroke-linejoin="round"/>
<path d="M314.26 324H185.74C183.52 324 181.6 322.79 181.16 321.12L165.49 261.48C165.2 260.34 166.33 259.28 167.84 259.28H332.16C333.67 259.28 334.8 260.34 334.51 261.48L318.84 321.12C318.4 322.83 316.48 324 314.26 324Z" fill="#CBCBCB" fill-opacity="0.96" stroke="#263238" stroke-linecap="round" stroke-linejoin="round"/>
<path d="M340.37 392.97H159.63L120.07 280.78H379.93L340.37 392.97Z" fill="#01760C"/>
<path opacity="0.3" d="M340.37 392.97H159.63L120.07 280.78H379.93L340.37 392.97Z" fill="black" fill-opacity="0.7"/>
<path d="M340.37 392.97H159.63L120.07 280.78H379.93L340.37 392.97Z" stroke="#263238" stroke-linecap="round" stroke-linejoin="round"/>
<path d="M376.49 266.01H123.51L120.07 280.78H379.93L376.49 266.01Z" fill="#01760C" stroke="#263238" stroke-linecap="round" stroke-linejoin="round"/>
<path d="M187.27 332.18L184.74 356.13H315.26L312.73 332.18H306.97L308.61 349.27H191.39L193.03 332.18H187.27Z" fill="#BFBFBF" stroke="#263238" stroke-linecap="round" stroke-linejoin="round"/>
<path d="M314.28 361.63H185.72L184.74 356.13H315.26L314.28 361.63Z" fill="#757575" stroke="#263238" stroke-linecap="round" stroke-linejoin="round"/>
<path d="M306.97 332.18L306.17 338.53L306.97 349.27H308.61L306.97 332.18Z" fill="#757575" stroke="#263238" stroke-linecap="round" stroke-linejoin="round"/>
<path d="M193.03 332.18L193.84 338.53L193.03 349.27H191.39L193.03 332.18Z" fill="#757575" stroke="#263238" stroke-linecap="round" stroke-linejoin="round"/>
<path d="M292.06 320.16H207.94L203.93 299.84H296.07L292.06 320.16Z" fill="#CBCBCB" fill-opacity="0.96" stroke="#263238" stroke-linecap="round" stroke-linejoin="round"/>
<path d="M255.63 123.53L254.81 121.18C254.544 120.511 254.1 119.927 253.525 119.493C252.95 119.059 252.267 118.792 251.55 118.72L229.31 115.85C228.757 115.744 228.185 115.862 227.718 116.176C227.252 116.491 226.929 116.978 226.82 117.53L226.53 119.78L208.81 117.5C208.515 117.438 208.211 117.444 207.918 117.516C207.626 117.589 207.354 117.726 207.122 117.918C206.891 118.111 206.705 118.353 206.58 118.627C206.455 118.9 206.394 119.199 206.4 119.5L212.71 184.64L332.71 200.11L355.33 138.7C355.411 138.411 355.427 138.108 355.375 137.812C355.323 137.516 355.206 137.236 355.031 136.992C354.856 136.748 354.629 136.547 354.365 136.403C354.102 136.259 353.81 136.176 353.51 136.16L255.63 123.53Z" fill="#CBCBCB" fill-opacity="0.96"/>
<path opacity="0.4" d="M255.63 123.53L254.81 121.18C254.544 120.511 254.1 119.927 253.525 119.493C252.95 119.059 252.267 118.792 251.55 118.72L229.31 115.85C228.757 115.744 228.185 115.862 227.718 116.176C227.252 116.491 226.929 116.978 226.82 117.53L226.53 119.78L208.81 117.5C208.515 117.438 208.211 117.444 207.918 117.516C207.626 117.589 207.354 117.726 207.122 117.918C206.891 118.111 206.705 118.353 206.58 118.627C206.455 118.9 206.394 119.199 206.4 119.5L212.71 184.64L332.71 200.11L355.33 138.7C355.411 138.411 355.427 138.108 355.375 137.812C355.323 137.516 355.206 137.236 355.031 136.992C354.856 136.748 354.629 136.547 354.365 136.403C354.102 136.259 353.81 136.176 353.51 136.16L255.63 123.53Z" fill="#01760C"/>
<path d="M255.63 123.53L254.81 121.18C254.544 120.511 254.1 119.927 253.525 119.493C252.95 119.059 252.267 118.792 251.55 118.72L229.31 115.85C228.757 115.744 228.185 115.862 227.718 116.176C227.252 116.491 226.929 116.978 226.82 117.53L226.53 119.78L208.81 117.5C208.515 117.438 208.211 117.444 207.918 117.516C207.626 117.589 207.354 117.726 207.122 117.918C206.891 118.111 206.705 118.353 206.58 118.627C206.455 118.9 206.394 119.199 206.4 119.5L212.71 184.64L332.71 200.11L355.33 138.7C355.411 138.411 355.427 138.108 355.375 137.812C355.323 137.516 355.206 137.236 355.031 136.992C354.856 136.748 354.629 136.547 354.365 136.403C354.102 136.259 353.81 136.176 353.51 136.16L255.63 123.53Z" stroke="#263238" stroke-linecap="round" stroke-linejoin="round"/>
<path d="M356.48 142.39L336 198L334.42 202.28C334.05 203.133 333.405 203.837 332.587 204.28C331.769 204.722 330.826 204.877 329.91 204.72L214.26 189.8C213.333 189.719 212.461 189.328 211.783 188.692C211.105 188.055 210.66 187.21 210.52 186.29L204.37 122.79C204.364 122.489 204.425 122.19 204.55 121.917C204.675 121.643 204.861 121.401 205.092 121.208C205.324 121.016 205.596 120.879 205.888 120.806C206.181 120.734 206.485 120.728 206.78 120.79L305.2 133.48L354.66 139.85C354.96 139.866 355.252 139.949 355.515 140.093C355.779 140.237 356.006 140.438 356.181 140.682C356.356 140.926 356.473 141.206 356.525 141.502C356.577 141.798 356.561 142.101 356.48 142.39Z" fill="#CBCBCB" fill-opacity="0.96"/>
<path opacity="0.3" d="M356.48 142.39L336 198C321.49 194.57 320.94 185.53 318.51 180.85C315.83 175.69 298.84 172.95 294.09 172.12C289.34 171.29 286.45 166.48 286.45 166.48C282.17 154.48 304.51 143.98 304.51 143.98C304.07 142.33 304.72 136.92 305.19 133.5L354.65 139.87C354.948 139.885 355.24 139.967 355.502 140.109C355.765 140.251 355.992 140.451 356.168 140.692C356.343 140.934 356.462 141.212 356.516 141.506C356.571 141.8 356.558 142.102 356.48 142.39Z" fill="black" fill-opacity="0.7"/>
<path d="M356.48 142.39L336 198L334.42 202.28C334.05 203.133 333.405 203.837 332.587 204.28C331.769 204.722 330.826 204.877 329.91 204.72L214.26 189.8C213.333 189.719 212.461 189.328 211.783 188.692C211.105 188.055 210.66 187.21 210.52 186.29L204.37 122.79C204.364 122.489 204.425 122.19 204.55 121.917C204.675 121.643 204.861 121.401 205.092 121.208C205.324 121.016 205.596 120.879 205.888 120.806C206.181 120.734 206.485 120.728 206.78 120.79L305.2 133.48L354.66 139.85C354.96 139.866 355.252 139.949 355.515 140.093C355.779 140.237 356.006 140.438 356.181 140.682C356.356 140.926 356.473 141.206 356.525 141.502C356.577 141.798 356.561 142.101 356.48 142.39Z" stroke="#263238" stroke-linecap="round" stroke-linejoin="round"/>
<path d="M226.12 139.9L227.7 179.2L241.94 181.04L243.62 141.88L226.12 139.9Z" fill="#01760C" stroke="#263238" stroke-linecap="round" stroke-linejoin="round"/>
<path d="M234.81 176.31C234.991 175.615 235.023 174.89 234.904 174.181C234.785 173.473 234.518 172.798 234.12 172.2C233.311 171.012 232.338 169.945 231.23 169.03C232.882 169.978 234.709 170.583 236.6 170.81C236.6 168.76 234.6 167.34 232.89 166.26C233.281 166.108 233.702 166.045 234.12 166.076C234.539 166.108 234.945 166.232 235.31 166.44C235.335 166.122 235.284 165.803 235.16 165.509C235.037 165.215 234.845 164.955 234.6 164.75C234.82 164.94 235.16 164.64 235.15 164.36C235.097 164.079 234.977 163.815 234.8 163.59C234.531 162.984 234.425 162.319 234.49 161.66C234.49 159.31 234.56 156.95 234.59 154.6C234.624 154.815 234.719 155.015 234.865 155.177C235.01 155.339 235.2 155.454 235.41 155.51C235.41 154.58 235.3 153.65 235.21 152.72C234.99 150.37 234.77 148.01 234.54 145.66" stroke="#263238" stroke-linecap="round" stroke-linejoin="round"/>
<path d="M461 267.68C461 267.68 380.3 195.48 375.16 190.93C370.02 186.38 366.26 186.58 363.49 183.81C360.72 181.04 359.33 179.07 348.06 179.26C336.79 179.45 321.75 173.33 318.39 171.15C315.03 168.97 310.28 170.56 307.11 169.33C303.94 168.1 295.84 169.18 290.89 169.33C285.94 169.48 285.55 164.43 287.53 158.69C289.51 152.95 304.53 149.4 306.53 150.58C308.53 151.76 316.42 148.41 316.42 148.41C315.23 144.25 315.63 134.16 315.63 134.16C315.63 134.16 307.32 130.6 304.16 129.42C301.725 128.686 299.174 128.418 296.64 128.63C296.64 128.63 297.64 124.09 299.21 122.4C300.78 120.71 308.31 119.13 315.63 113.99C322.95 108.85 327.5 107.66 328.63 108.05C329.76 108.44 337.93 110.82 340.11 110.82C342.29 110.82 345.45 108.82 348.61 109.44C351.77 110.06 357.51 114.98 360.08 115.57C362.65 116.16 363.44 116.7 366.81 116.7C368.29 116.7 374.33 121.11 374.33 121.11C376.859 121.593 379.318 122.389 381.65 123.48C385.4 125.26 389.36 133.77 391.14 136.54C392.92 139.31 393.14 146.03 393.14 146.03C393.14 146.03 397.89 148.6 399.67 152.16C401.45 155.72 467 190.93 467 190.93C467 190.93 477.33 231.42 461 267.68Z" fill="#CBCBCB" fill-opacity="0.96"/>
<path opacity="0.4" d="M403.54 216.25C389.08 203.31 377.08 192.59 375.2 190.93C370.05 186.38 366.3 186.58 363.53 183.81C360.76 181.04 359.37 179.07 348.1 179.26C336.83 179.45 321.79 173.33 318.43 171.15C315.07 168.97 310.32 170.56 307.15 169.33C303.98 168.1 295.88 169.18 290.93 169.33C285.98 169.48 285.59 164.43 287.57 158.69C289.55 152.95 304.57 149.4 306.57 150.58C308.57 151.76 316.46 148.41 316.46 148.41C315.27 144.25 315.67 134.16 315.67 134.16C315.67 134.16 307.36 130.6 304.2 129.42C301.765 128.686 299.214 128.418 296.68 128.63C296.68 128.63 297.68 124.09 299.25 122.4C300.82 120.71 308.35 119.13 315.67 113.99C322.99 108.85 327.54 107.66 328.67 108.05C329.8 108.44 337.97 110.82 340.15 110.82C341.8 110.82 344.03 109.68 346.4 109.39C344.48 110.46 343.15 112.5 343.51 113.59C344.08 115.31 345.69 119.69 345.78 119.97C345.35 119.55 334.98 109.31 328.28 109.84C322.49 110.29 316.61 120.04 317.6 127.2C318.59 134.36 316.19 134.36 317.49 139.7C318.79 145.04 319.97 152.56 317.99 155.53C316.01 158.5 312.06 153.22 312.06 153.22C310.577 154.034 309.334 155.224 308.456 156.67C307.579 158.117 307.097 159.769 307.06 161.46C307.06 167.2 313.06 167.59 316.6 168.19C320.14 168.79 333.2 175.94 342.12 176.32L351.04 176.69C351.04 176.69 345.89 169.69 348.04 169.33C350.19 168.97 356.74 169.61 361.04 176.33C365.34 183.05 368.64 184.54 376.61 187.84C381.32 189.73 393.74 203.14 403.54 216.25Z" fill="#01760C"/>
<path opacity="0.4" d="M443.06 177.9C441.85 177.33 403.06 159.05 401.11 156.32C399.16 153.59 396.76 152.92 394.58 150.17C392.4 147.42 385.09 145.64 384.1 141.88C383.11 138.12 381.92 126.71 380.1 125.3C378.604 124.202 377.018 123.232 375.36 122.4L378.3 129.73C378.3 129.73 371.6 120.24 370.01 119.98C368.42 119.72 371.73 126.88 371.44 126.66C371.15 126.44 363.89 119.66 357.81 114.52C358.532 114.955 359.309 115.292 360.12 115.52C362.7 116.11 363.48 116.65 366.85 116.65C368.33 116.65 374.37 121.06 374.37 121.06C376.899 121.543 379.358 122.339 381.69 123.43C385.44 125.21 389.4 133.72 391.18 136.49C392.96 139.26 393.18 145.98 393.18 145.98C393.18 145.98 397.93 148.55 399.71 152.11C400.78 154.27 424.17 167.48 443.06 177.9Z" fill="#01760C"/>
<path d="M461 267.68C461 267.68 380.3 195.48 375.16 190.93C370.02 186.38 366.26 186.58 363.49 183.81C360.72 181.04 359.33 179.07 348.06 179.26C336.79 179.45 321.75 173.33 318.39 171.15C315.03 168.97 310.28 170.56 307.11 169.33C303.94 168.1 295.84 169.18 290.89 169.33C285.94 169.48 285.55 164.43 287.53 158.69C289.51 152.95 304.53 149.4 306.53 150.58C308.53 151.76 316.42 148.41 316.42 148.41C315.23 144.25 315.63 134.16 315.63 134.16C315.63 134.16 307.32 130.6 304.16 129.42C301.725 128.686 299.174 128.418 296.64 128.63C296.64 128.63 297.64 124.09 299.21 122.4C300.78 120.71 308.31 119.13 315.63 113.99C322.95 108.85 327.5 107.66 328.63 108.05C329.76 108.44 337.93 110.82 340.11 110.82C342.29 110.82 345.45 108.82 348.61 109.44C351.77 110.06 357.51 114.98 360.08 115.57C362.65 116.16 363.44 116.7 366.81 116.7C368.29 116.7 374.33 121.11 374.33 121.11C376.859 121.593 379.318 122.389 381.65 123.48C385.4 125.26 389.36 133.77 391.14 136.54C392.92 139.31 393.14 146.03 393.14 146.03C393.14 146.03 397.89 148.6 399.67 152.16C401.45 155.72 467 190.93 467 190.93" stroke="#263238" stroke-linecap="round" stroke-linejoin="round"/>
<path d="M315.66 134.16C315.66 134.16 316.58 126.38 315.66 125.3" stroke="#263238" stroke-linecap="round" stroke-linejoin="round"/>
<path d="M340.05 115.11C340.05 115.11 353.51 126.5 354.56 127.2" stroke="#263238" stroke-linecap="round" stroke-linejoin="round"/>
<path d="M352.69 111.28C354.54 112.43 369.46 125.66 374.34 128.69" stroke="#263238" stroke-linecap="round" stroke-linejoin="round"/>
<path d="M393.2 146C391.75 145.15 387.92 143.3 387.53 141.85" stroke="#263238" stroke-linecap="round" stroke-linejoin="round"/>
<path d="M316.45 148.41C316.45 148.41 317.24 151.64 316.45 153.22" stroke="#263238" stroke-linecap="round" stroke-linejoin="round"/>
<path d="M304.58 158.63C304.58 158.63 302.74 163.77 307.09 167.2" stroke="#263238" stroke-linecap="round" stroke-linejoin="round"/>
<path d="M322.52 109.84C321.133 111.293 320.214 113.129 319.88 115.11" stroke="#263238" stroke-linecap="round" stroke-linejoin="round"/>
<path d="M302 125.3C302.437 126.491 303.121 127.576 304.007 128.485C304.892 129.393 305.96 130.103 307.14 130.57" stroke="#263238" stroke-linecap="round" stroke-linejoin="round"/>
<path d="M361.15 181.61C358.579 177.882 355.752 174.337 352.69 171" stroke="#263238" stroke-linecap="round" stroke-linejoin="round"/>
<path d="M84.49 445.31C84.49 445.31 149.09 402.85 153.04 397.37C155.068 394.415 157.46 391.727 160.16 389.37C160.16 389.37 162.01 373.54 166.76 365.37C171.51 357.2 173.35 351.12 175.46 346.9C177.57 342.68 187.59 339.52 190.46 337.9C193.33 336.28 198.38 333.15 201.28 333.15C203.494 333.327 205.649 333.956 207.61 335C207.61 335 217.37 330 221.85 333.15C221.85 333.15 232.93 333.68 235.56 333.41C238.19 333.14 242.16 335 242.16 335C242.16 335 248.75 330.26 253.23 332.1C257.71 333.94 259.85 334.73 259.97 337.37C260.09 340.01 258.86 348.97 258.86 348.97H256.66C256.66 348.97 249.28 358.58 248.49 360.5C247.7 362.42 243.49 372.97 243.49 372.97C243.49 372.97 249.02 368.75 252.49 365.59C255.96 362.43 261.99 356.36 268.32 354.78C274.65 353.2 279.13 356.73 279.13 360.5C279.13 360.5 271.75 366.38 270.13 368.23C268.51 370.08 265.69 374.82 262.51 378.23C259.33 381.64 252 396 245.62 402.85C239.24 409.7 211.62 424.47 205.26 426.58C205.26 426.58 166.76 453.48 149.88 476.16C149.88 476.16 104 476.43 84.49 445.31Z" fill="#CBCBCB" fill-opacity="0.96"/>
<path opacity="0.4" d="M209.75 420.78C210.3 421.34 212.55 421.68 215.75 421.78C212.363 423.6 208.87 425.216 205.29 426.62C205.29 426.62 180.11 444.21 161.55 462.94C167.94 452.77 180.21 440.08 184.77 437.44C191.12 433.74 203.32 421.8 203.32 421.8C203.32 421.8 207.92 418.93 209.75 420.78Z" fill="#01760C"/>
<path opacity="0.4" d="M252.47 365.66C255.171 363.005 258.065 360.555 261.13 358.33C257.875 361.902 255.227 365.983 253.29 370.41C252.07 377.04 240.63 390.71 240.63 390.71C244.32 378.85 241.15 376.47 242.19 373.04C243.23 369.61 243.9 361.2 243.9 361.2C243.9 361.2 245.9 357.75 248.01 356.96C250.12 356.17 255.66 342.19 256.69 340.3C257.72 338.41 249.86 335.3 247.75 335.07C245.64 334.84 244.85 338.49 240.63 340.3C236.41 342.11 231.11 345.43 229.16 347.37C227.21 349.31 223.82 357.89 223.6 358.42C223.75 357.82 226.14 348.19 226.76 346.27C227.28 344.67 232.35 341.72 234.23 340.67C231.11 342.12 229.36 339.37 226.76 336.87C223.97 334.19 219.81 333.34 215.26 334.73C210.71 336.12 207.66 339.55 207.64 339.29C207.62 339.03 200.84 337.84 198.64 338.49C196.44 339.14 191.36 341.44 191.36 341.44C191.36 341.44 186.74 338.78 179.15 346.27C175.98 349.4 165.43 373.27 167.01 370.41C168.59 367.55 175.48 359.01 175.91 358.48C175.45 359.6 161.46 391 158.6 393C155.74 395 154.91 402.08 144.6 407.89C134.82 413.4 97.1 437.11 93.36 439.46C111.25 427.57 150 401.58 153 397.37C155.028 394.415 157.42 391.727 160.12 389.37C160.12 389.37 161.97 373.54 166.72 365.37C171.47 357.2 173.31 351.12 175.42 346.9C177.53 342.68 187.55 339.52 190.42 337.9C193.29 336.28 198.34 333.15 201.24 333.15C203.454 333.327 205.609 333.956 207.57 335C207.57 335 217.33 330 221.81 333.15C221.81 333.15 232.89 333.68 235.52 333.41C238.15 333.14 242.12 335 242.12 335C242.12 335 248.71 330.26 253.19 332.1C257.67 333.94 259.81 334.73 259.93 337.37C260.05 340.01 258.82 348.97 258.82 348.97H256.62C256.62 348.97 249.24 358.58 248.45 360.5C247.66 362.42 243.45 372.97 243.45 372.97C243.45 372.97 249 368.82 252.47 365.66Z" fill="#01760C"/>
<path opacity="0.4" d="M279.11 360.57C279.11 360.57 271.73 366.45 270.11 368.3C269.16 369.41 267.75 371.57 266.11 373.86C266.933 371.187 267.499 368.441 267.8 365.66C269.355 363.391 271.563 361.648 274.13 360.66C275.751 360.183 277.455 360.053 279.13 360.28C279.133 360.377 279.126 360.474 279.11 360.57Z" fill="#01760C"/>
<path d="M84.49 445.31C84.49 445.31 149.09 402.85 153.04 397.37C155.068 394.415 157.46 391.727 160.16 389.37C160.16 389.37 162.01 373.54 166.76 365.37C171.51 357.2 173.35 351.12 175.46 346.9C177.57 342.68 187.59 339.52 190.46 337.9C193.33 336.28 198.38 333.15 201.28 333.15C203.494 333.327 205.649 333.956 207.61 335C207.61 335 217.37 330 221.85 333.15C221.85 333.15 232.93 333.68 235.56 333.41C238.19 333.14 242.16 335 242.16 335C242.16 335 248.75 330.26 253.23 332.1C257.71 333.94 259.85 334.73 259.97 337.37C260.09 340.01 258.86 348.97 258.86 348.97H256.66C256.66 348.97 249.28 358.58 248.49 360.5C247.7 362.42 243.49 372.97 243.49 372.97C243.49 372.97 249.02 368.75 252.49 365.59C255.96 362.43 261.99 356.36 268.32 354.78C274.65 353.2 279.13 356.73 279.13 360.5C279.13 360.5 271.75 366.38 270.13 368.23C268.51 370.08 265.69 374.82 262.51 378.23C259.33 381.64 252 396 245.62 402.85C239.24 409.7 211.62 424.47 205.26 426.58C205.26 426.58 166.76 453.48 149.88 476.16" stroke="#263238" stroke-linecap="round" stroke-linejoin="round"/>
<path d="M243.51 373C243.51 373 245.09 380.92 241.92 388" stroke="#263238" stroke-linecap="round" stroke-linejoin="round"/>
<path d="M233.22 341.13C236.534 339.622 239.576 337.574 242.22 335.07" stroke="#263238" stroke-linecap="round" stroke-linejoin="round"/>
<path d="M256.69 349C257.541 347.255 258.121 345.39 258.41 343.47" stroke="#263238" stroke-linecap="round" stroke-linejoin="round"/>
<path d="M221.88 333.22C218.672 333.149 215.542 334.211 213.04 336.22" stroke="#263238" stroke-linecap="round" stroke-linejoin="round"/>
<path d="M207.64 335.07C207.64 335.07 199.73 338.76 196.96 338.76C194.19 338.76 189.7 342.45 189.7 343.51" stroke="#263238" stroke-linecap="round" stroke-linejoin="round"/>
<path d="M160.16 389.4C162.496 385.809 164.403 381.956 165.84 377.92" stroke="#263238" stroke-linecap="round" stroke-linejoin="round"/>
<path d="M234.93 343.51C234.93 343.51 229.93 344.82 228.21 349.04C226.49 353.26 218.58 367.9 218.58 367.9" stroke="#263238" stroke-linecap="round" stroke-linejoin="round"/>
<path d="M209.75 341.13C208.69 343.64 196.82 365.66 196.82 365.66" stroke="#263238" stroke-linecap="round" stroke-linejoin="round"/>
</svg>
